G04*
G04 #@! TF.GenerationSoftware,Altium Limited,Altium Designer,23.9.2 (47)*
G04*
G04 Layer_Color=8388736*
%FSLAX44Y44*%
%MOMM*%
G71*
G04*
G04 #@! TF.SameCoordinates,458E314B-9B54-440F-9B86-0865321BD611*
G04*
G04*
G04 #@! TF.FilePolarity,Negative*
G04*
G01*
G75*
%ADD34R,1.2032X1.2032*%
%ADD35R,1.1032X2.2032*%
%ADD36R,2.2032X1.1032*%
%ADD37R,1.2522X0.7036*%
%ADD38R,0.9032X0.8382*%
G04:AMPARAMS|DCode=39|XSize=1.778mm|YSize=0.5032mm|CornerRadius=0.1766mm|HoleSize=0mm|Usage=FLASHONLY|Rotation=180.000|XOffset=0mm|YOffset=0mm|HoleType=Round|Shape=RoundedRectangle|*
%AMROUNDEDRECTD39*
21,1,1.7780,0.1500,0,0,180.0*
21,1,1.4248,0.5032,0,0,180.0*
1,1,0.3532,-0.7124,0.0750*
1,1,0.3532,0.7124,0.0750*
1,1,0.3532,0.7124,-0.0750*
1,1,0.3532,-0.7124,-0.0750*
%
%ADD39ROUNDEDRECTD39*%
%ADD40R,2.2022X2.4028*%
%ADD41R,0.8382X0.9032*%
%ADD42R,1.3532X0.8032*%
%ADD43R,1.3532X0.5032*%
%ADD44R,1.2040X0.8534*%
%ADD45R,1.0032X1.0032*%
%ADD46R,1.5037X2.0523*%
%ADD47R,1.2032X1.2032*%
%ADD48C,2.9032*%
%ADD49O,2.2032X1.2032*%
%ADD50O,2.3032X1.2532*%
%ADD51C,0.8532*%
G36*
X437626Y292228D02*
X430576D01*
Y295628D01*
X437626D01*
Y292228D01*
D02*
G37*
G36*
X429276D02*
X422226D01*
Y295628D01*
X429276D01*
Y292228D01*
D02*
G37*
G36*
X401076Y300618D02*
X401170Y300610D01*
X401262Y300588D01*
X401349Y300552D01*
X401430Y300503D01*
X401502Y300441D01*
X401563Y300369D01*
X401612Y300289D01*
X401648Y300202D01*
X401670Y300110D01*
X401678Y300016D01*
Y292016D01*
Y292016D01*
Y292016D01*
X401678Y291818D01*
X401675Y291787D01*
X401674Y291755D01*
X401672Y291740D01*
X401670Y291724D01*
X401663Y291693D01*
X401657Y291663D01*
X401555Y291281D01*
X401544Y291251D01*
X401535Y291221D01*
X401529Y291207D01*
X401524Y291192D01*
X401508Y291164D01*
X401495Y291136D01*
X401297Y290794D01*
X401279Y290768D01*
X401263Y290741D01*
X401253Y290729D01*
X401244Y290716D01*
X401222Y290693D01*
X401202Y290669D01*
X400923Y290390D01*
X400899Y290369D01*
X400876Y290348D01*
X400863Y290339D01*
X400851Y290329D01*
X400824Y290312D01*
X400798Y290294D01*
X400456Y290097D01*
X400427Y290083D01*
X400400Y290068D01*
X400385Y290063D01*
X400371Y290056D01*
X400340Y290047D01*
X400311Y290037D01*
X399929Y289934D01*
X399898Y289929D01*
X399868Y289921D01*
X399852Y289920D01*
X399836Y289917D01*
X399805Y289916D01*
X399773Y289914D01*
X399378D01*
X399347Y289916D01*
X399315Y289917D01*
X399300Y289920D01*
X399284Y289921D01*
X399254Y289929D01*
X399223Y289934D01*
X398841Y290037D01*
X398812Y290047D01*
X398781Y290056D01*
X398767Y290063D01*
X398752Y290068D01*
X398725Y290083D01*
X398696Y290097D01*
X398354Y290294D01*
X398328Y290312D01*
X398301Y290329D01*
X398289Y290339D01*
X398276Y290348D01*
X398253Y290369D01*
X398229Y290390D01*
X397950Y290669D01*
X397930Y290693D01*
X397908Y290716D01*
X397899Y290729D01*
X397889Y290741D01*
X397872Y290768D01*
X397854Y290794D01*
X397657Y291136D01*
X397643Y291164D01*
X397628Y291192D01*
X397623Y291207D01*
X397616Y291221D01*
X397607Y291252D01*
X397597Y291281D01*
X397495Y291663D01*
X397489Y291693D01*
X397481Y291724D01*
X397480Y291740D01*
X397477Y291755D01*
X397477Y291787D01*
X397474Y291818D01*
Y292016D01*
Y300016D01*
X397481Y300110D01*
X397504Y300202D01*
X397540Y300289D01*
X397589Y300369D01*
X397650Y300441D01*
X397722Y300503D01*
X397803Y300552D01*
X397890Y300588D01*
X397982Y300610D01*
X398076Y300618D01*
X401076Y300618D01*
D02*
G37*
G36*
X396076D02*
X396170Y300610D01*
X396262Y300588D01*
X396349Y300552D01*
X396430Y300503D01*
X396502Y300441D01*
X396563Y300369D01*
X396612Y300289D01*
X396648Y300202D01*
X396670Y300110D01*
X396678Y300016D01*
Y292016D01*
Y292016D01*
Y292016D01*
X396678Y291818D01*
X396675Y291787D01*
X396674Y291755D01*
X396672Y291740D01*
X396670Y291724D01*
X396663Y291693D01*
X396657Y291663D01*
X396555Y291281D01*
X396544Y291251D01*
X396536Y291221D01*
X396529Y291207D01*
X396524Y291192D01*
X396508Y291164D01*
X396495Y291136D01*
X396297Y290794D01*
X396279Y290768D01*
X396263Y290741D01*
X396253Y290729D01*
X396244Y290716D01*
X396222Y290693D01*
X396202Y290669D01*
X395923Y290390D01*
X395899Y290369D01*
X395876Y290348D01*
X395863Y290339D01*
X395851Y290329D01*
X395824Y290312D01*
X395798Y290294D01*
X395456Y290097D01*
X395427Y290083D01*
X395400Y290068D01*
X395385Y290063D01*
X395371Y290056D01*
X395340Y290047D01*
X395311Y290037D01*
X394929Y289934D01*
X394898Y289929D01*
X394868Y289921D01*
X394852Y289920D01*
X394836Y289917D01*
X394805Y289916D01*
X394773Y289914D01*
X394379D01*
X394347Y289916D01*
X394315Y289917D01*
X394300Y289920D01*
X394284Y289921D01*
X394254Y289929D01*
X394223Y289934D01*
X393841Y290037D01*
X393812Y290047D01*
X393781Y290056D01*
X393767Y290063D01*
X393752Y290068D01*
X393725Y290083D01*
X393696Y290097D01*
X393354Y290294D01*
X393328Y290312D01*
X393301Y290329D01*
X393289Y290339D01*
X393276Y290348D01*
X393253Y290369D01*
X393229Y290390D01*
X392950Y290669D01*
X392930Y290693D01*
X392908Y290716D01*
X392899Y290729D01*
X392889Y290741D01*
X392872Y290768D01*
X392854Y290794D01*
X392657Y291136D01*
X392643Y291164D01*
X392628Y291192D01*
X392623Y291207D01*
X392616Y291221D01*
X392607Y291252D01*
X392597Y291281D01*
X392495Y291663D01*
X392489Y291693D01*
X392481Y291724D01*
X392480Y291740D01*
X392477Y291755D01*
X392477Y291787D01*
X392474Y291818D01*
Y292016D01*
Y300016D01*
X392481Y300110D01*
X392504Y300202D01*
X392540Y300289D01*
X392589Y300369D01*
X392650Y300441D01*
X392722Y300503D01*
X392803Y300552D01*
X392890Y300588D01*
X392982Y300610D01*
X393076Y300618D01*
X396076Y300618D01*
D02*
G37*
G36*
X391076D02*
X391170Y300610D01*
X391262Y300588D01*
X391349Y300552D01*
X391430Y300503D01*
X391502Y300441D01*
X391563Y300369D01*
X391612Y300289D01*
X391648Y300202D01*
X391670Y300110D01*
X391678Y300016D01*
Y292016D01*
Y292016D01*
Y292016D01*
X391678Y291818D01*
X391675Y291787D01*
X391674Y291755D01*
X391672Y291740D01*
X391670Y291724D01*
X391663Y291693D01*
X391657Y291663D01*
X391555Y291281D01*
X391544Y291251D01*
X391536Y291221D01*
X391529Y291207D01*
X391524Y291192D01*
X391508Y291164D01*
X391495Y291136D01*
X391297Y290794D01*
X391279Y290768D01*
X391263Y290741D01*
X391253Y290729D01*
X391244Y290716D01*
X391222Y290693D01*
X391202Y290669D01*
X390923Y290390D01*
X390899Y290369D01*
X390876Y290348D01*
X390863Y290339D01*
X390851Y290329D01*
X390824Y290312D01*
X390798Y290294D01*
X390456Y290097D01*
X390427Y290083D01*
X390400Y290068D01*
X390385Y290063D01*
X390371Y290056D01*
X390340Y290047D01*
X390311Y290037D01*
X389929Y289934D01*
X389898Y289929D01*
X389868Y289921D01*
X389852Y289920D01*
X389836Y289917D01*
X389805Y289916D01*
X389773Y289914D01*
X389379D01*
X389347Y289916D01*
X389316Y289917D01*
X389300Y289920D01*
X389284Y289921D01*
X389254Y289929D01*
X389223Y289934D01*
X388841Y290037D01*
X388812Y290047D01*
X388781Y290056D01*
X388767Y290063D01*
X388752Y290068D01*
X388725Y290083D01*
X388696Y290097D01*
X388354Y290294D01*
X388328Y290312D01*
X388301Y290329D01*
X388289Y290339D01*
X388276Y290348D01*
X388253Y290369D01*
X388229Y290390D01*
X387950Y290669D01*
X387930Y290693D01*
X387908Y290716D01*
X387899Y290729D01*
X387889Y290741D01*
X387872Y290768D01*
X387854Y290794D01*
X387657Y291136D01*
X387643Y291164D01*
X387628Y291192D01*
X387623Y291207D01*
X387616Y291221D01*
X387607Y291252D01*
X387597Y291281D01*
X387495Y291663D01*
X387489Y291693D01*
X387481Y291724D01*
X387480Y291740D01*
X387477Y291755D01*
X387477Y291787D01*
X387474Y291818D01*
Y292016D01*
Y300016D01*
X387481Y300110D01*
X387504Y300202D01*
X387540Y300289D01*
X387589Y300369D01*
X387650Y300441D01*
X387722Y300503D01*
X387803Y300552D01*
X387890Y300588D01*
X387982Y300610D01*
X388076Y300618D01*
X391076Y300618D01*
D02*
G37*
G36*
X386076D02*
X386170Y300610D01*
X386262Y300588D01*
X386349Y300552D01*
X386430Y300503D01*
X386502Y300441D01*
X386563Y300369D01*
X386612Y300289D01*
X386648Y300202D01*
X386670Y300110D01*
X386678Y300016D01*
Y292016D01*
Y292016D01*
Y292016D01*
X386678Y291818D01*
X386675Y291787D01*
X386674Y291755D01*
X386672Y291740D01*
X386670Y291724D01*
X386663Y291693D01*
X386657Y291663D01*
X386555Y291281D01*
X386544Y291251D01*
X386536Y291221D01*
X386529Y291207D01*
X386524Y291192D01*
X386508Y291164D01*
X386495Y291136D01*
X386297Y290794D01*
X386279Y290768D01*
X386263Y290741D01*
X386253Y290729D01*
X386244Y290716D01*
X386222Y290693D01*
X386202Y290669D01*
X385923Y290390D01*
X385899Y290369D01*
X385876Y290348D01*
X385863Y290339D01*
X385851Y290329D01*
X385824Y290312D01*
X385798Y290294D01*
X385456Y290097D01*
X385427Y290083D01*
X385400Y290068D01*
X385385Y290063D01*
X385371Y290056D01*
X385340Y290047D01*
X385311Y290037D01*
X384929Y289934D01*
X384898Y289929D01*
X384868Y289921D01*
X384852Y289920D01*
X384836Y289917D01*
X384805Y289916D01*
X384773Y289914D01*
X384379D01*
X384347Y289916D01*
X384316Y289917D01*
X384300Y289920D01*
X384284Y289921D01*
X384254Y289929D01*
X384223Y289934D01*
X383841Y290037D01*
X383812Y290047D01*
X383781Y290056D01*
X383767Y290063D01*
X383752Y290068D01*
X383725Y290083D01*
X383696Y290097D01*
X383354Y290294D01*
X383328Y290312D01*
X383301Y290329D01*
X383289Y290339D01*
X383276Y290348D01*
X383253Y290369D01*
X383229Y290390D01*
X382950Y290669D01*
X382930Y290693D01*
X382908Y290716D01*
X382899Y290729D01*
X382889Y290741D01*
X382872Y290768D01*
X382854Y290794D01*
X382657Y291136D01*
X382643Y291164D01*
X382628Y291192D01*
X382623Y291207D01*
X382616Y291221D01*
X382607Y291252D01*
X382597Y291281D01*
X382495Y291663D01*
X382489Y291693D01*
X382481Y291724D01*
X382480Y291740D01*
X382477Y291755D01*
X382477Y291787D01*
X382474Y291818D01*
Y292016D01*
Y300016D01*
X382481Y300110D01*
X382504Y300202D01*
X382540Y300289D01*
X382589Y300369D01*
X382650Y300441D01*
X382722Y300503D01*
X382803Y300552D01*
X382890Y300588D01*
X382982Y300610D01*
X383076Y300618D01*
X386076Y300618D01*
D02*
G37*
G36*
X381076D02*
X381170Y300610D01*
X381262Y300588D01*
X381349Y300552D01*
X381430Y300503D01*
X381502Y300441D01*
X381563Y300369D01*
X381612Y300289D01*
X381648Y300202D01*
X381670Y300110D01*
X381678Y300016D01*
Y292016D01*
Y292016D01*
Y292016D01*
X381678Y291818D01*
X381675Y291787D01*
X381674Y291755D01*
X381672Y291740D01*
X381670Y291724D01*
X381663Y291693D01*
X381657Y291663D01*
X381555Y291281D01*
X381545Y291251D01*
X381536Y291221D01*
X381529Y291207D01*
X381524Y291192D01*
X381509Y291164D01*
X381495Y291136D01*
X381297Y290794D01*
X381279Y290768D01*
X381263Y290741D01*
X381253Y290729D01*
X381244Y290716D01*
X381222Y290693D01*
X381202Y290669D01*
X380923Y290390D01*
X380899Y290369D01*
X380876Y290348D01*
X380863Y290339D01*
X380851Y290329D01*
X380824Y290312D01*
X380798Y290294D01*
X380456Y290097D01*
X380427Y290083D01*
X380400Y290068D01*
X380385Y290063D01*
X380371Y290056D01*
X380340Y290047D01*
X380311Y290037D01*
X379929Y289934D01*
X379898Y289929D01*
X379868Y289921D01*
X379852Y289920D01*
X379836Y289917D01*
X379805Y289916D01*
X379773Y289914D01*
X379379D01*
X379347Y289916D01*
X379316Y289917D01*
X379300Y289920D01*
X379284Y289921D01*
X379254Y289929D01*
X379223Y289934D01*
X378841Y290037D01*
X378812Y290047D01*
X378781Y290056D01*
X378767Y290063D01*
X378752Y290068D01*
X378725Y290083D01*
X378696Y290097D01*
X378354Y290294D01*
X378328Y290312D01*
X378301Y290329D01*
X378289Y290339D01*
X378276Y290348D01*
X378253Y290369D01*
X378229Y290390D01*
X377950Y290669D01*
X377930Y290693D01*
X377908Y290716D01*
X377899Y290729D01*
X377889Y290741D01*
X377872Y290768D01*
X377854Y290794D01*
X377657Y291136D01*
X377643Y291164D01*
X377628Y291192D01*
X377623Y291207D01*
X377616Y291221D01*
X377607Y291252D01*
X377597Y291281D01*
X377495Y291663D01*
X377489Y291693D01*
X377481Y291724D01*
X377480Y291740D01*
X377477Y291755D01*
X377477Y291787D01*
X377474Y291818D01*
Y292016D01*
Y300016D01*
X377481Y300110D01*
X377504Y300202D01*
X377540Y300289D01*
X377589Y300369D01*
X377650Y300441D01*
X377722Y300503D01*
X377803Y300552D01*
X377890Y300588D01*
X377982Y300610D01*
X378076Y300618D01*
X381076Y300618D01*
D02*
G37*
G36*
X376076D02*
X376170Y300610D01*
X376262Y300588D01*
X376349Y300552D01*
X376430Y300503D01*
X376502Y300441D01*
X376563Y300369D01*
X376612Y300289D01*
X376648Y300202D01*
X376670Y300110D01*
X376678Y300016D01*
Y292016D01*
Y292016D01*
Y292016D01*
X376678Y291818D01*
X376675Y291787D01*
X376674Y291755D01*
X376672Y291740D01*
X376670Y291724D01*
X376663Y291693D01*
X376657Y291663D01*
X376555Y291281D01*
X376545Y291251D01*
X376536Y291221D01*
X376529Y291207D01*
X376524Y291192D01*
X376509Y291164D01*
X376495Y291136D01*
X376297Y290794D01*
X376279Y290768D01*
X376263Y290741D01*
X376253Y290729D01*
X376244Y290716D01*
X376222Y290693D01*
X376202Y290669D01*
X375923Y290390D01*
X375899Y290369D01*
X375876Y290348D01*
X375863Y290339D01*
X375851Y290329D01*
X375824Y290312D01*
X375798Y290294D01*
X375456Y290097D01*
X375427Y290083D01*
X375400Y290068D01*
X375385Y290063D01*
X375371Y290056D01*
X375340Y290047D01*
X375311Y290037D01*
X374929Y289934D01*
X374898Y289929D01*
X374868Y289921D01*
X374852Y289920D01*
X374836Y289917D01*
X374805Y289916D01*
X374773Y289914D01*
X374379D01*
X374347Y289916D01*
X374316Y289917D01*
X374300Y289920D01*
X374284Y289921D01*
X374254Y289929D01*
X374223Y289934D01*
X373841Y290037D01*
X373812Y290047D01*
X373781Y290056D01*
X373767Y290063D01*
X373752Y290068D01*
X373725Y290083D01*
X373696Y290097D01*
X373354Y290294D01*
X373328Y290312D01*
X373301Y290329D01*
X373289Y290339D01*
X373276Y290348D01*
X373253Y290369D01*
X373229Y290390D01*
X372950Y290669D01*
X372930Y290693D01*
X372908Y290716D01*
X372899Y290729D01*
X372889Y290741D01*
X372872Y290768D01*
X372854Y290794D01*
X372657Y291136D01*
X372643Y291164D01*
X372628Y291192D01*
X372623Y291207D01*
X372616Y291221D01*
X372607Y291252D01*
X372597Y291281D01*
X372495Y291663D01*
X372489Y291693D01*
X372481Y291724D01*
X372480Y291740D01*
X372477Y291755D01*
X372477Y291787D01*
X372474Y291818D01*
Y292016D01*
Y300016D01*
X372481Y300110D01*
X372504Y300202D01*
X372540Y300289D01*
X372589Y300369D01*
X372650Y300441D01*
X372722Y300503D01*
X372803Y300552D01*
X372890Y300588D01*
X372982Y300610D01*
X373076Y300618D01*
X376076Y300618D01*
D02*
G37*
G36*
X371076D02*
X371170Y300610D01*
X371262Y300588D01*
X371349Y300552D01*
X371430Y300503D01*
X371502Y300441D01*
X371563Y300369D01*
X371612Y300289D01*
X371648Y300202D01*
X371670Y300110D01*
X371678Y300016D01*
Y292016D01*
Y292016D01*
Y292016D01*
X371678Y291818D01*
X371675Y291787D01*
X371674Y291755D01*
X371672Y291740D01*
X371670Y291724D01*
X371663Y291693D01*
X371657Y291663D01*
X371555Y291281D01*
X371545Y291251D01*
X371536Y291221D01*
X371529Y291207D01*
X371524Y291192D01*
X371509Y291164D01*
X371495Y291136D01*
X371297Y290794D01*
X371279Y290768D01*
X371263Y290741D01*
X371253Y290729D01*
X371244Y290716D01*
X371222Y290693D01*
X371202Y290669D01*
X370923Y290390D01*
X370899Y290369D01*
X370876Y290348D01*
X370863Y290339D01*
X370851Y290329D01*
X370824Y290312D01*
X370798Y290294D01*
X370456Y290097D01*
X370427Y290083D01*
X370400Y290068D01*
X370385Y290063D01*
X370371Y290056D01*
X370340Y290047D01*
X370311Y290037D01*
X369929Y289934D01*
X369898Y289929D01*
X369868Y289921D01*
X369852Y289920D01*
X369836Y289917D01*
X369805Y289916D01*
X369773Y289914D01*
X369379D01*
X369347Y289916D01*
X369316Y289917D01*
X369300Y289920D01*
X369284Y289921D01*
X369254Y289929D01*
X369223Y289934D01*
X368841Y290037D01*
X368812Y290047D01*
X368781Y290056D01*
X368767Y290063D01*
X368752Y290068D01*
X368725Y290083D01*
X368696Y290097D01*
X368354Y290294D01*
X368328Y290312D01*
X368301Y290329D01*
X368289Y290339D01*
X368276Y290348D01*
X368253Y290369D01*
X368229Y290390D01*
X367950Y290669D01*
X367930Y290693D01*
X367908Y290716D01*
X367899Y290729D01*
X367889Y290741D01*
X367872Y290768D01*
X367854Y290794D01*
X367657Y291136D01*
X367643Y291164D01*
X367628Y291192D01*
X367623Y291207D01*
X367616Y291221D01*
X367607Y291252D01*
X367597Y291281D01*
X367495Y291663D01*
X367489Y291693D01*
X367481Y291724D01*
X367480Y291740D01*
X367477Y291755D01*
X367477Y291787D01*
X367474Y291818D01*
Y292016D01*
Y300016D01*
X367481Y300110D01*
X367504Y300202D01*
X367540Y300289D01*
X367589Y300369D01*
X367650Y300441D01*
X367722Y300503D01*
X367803Y300552D01*
X367890Y300588D01*
X367982Y300610D01*
X368076Y300618D01*
X371076Y300618D01*
D02*
G37*
G36*
X364024Y288368D02*
X364055Y288365D01*
X364086Y288364D01*
X364102Y288361D01*
X364118Y288360D01*
X364148Y288353D01*
X364179Y288347D01*
X364561Y288245D01*
X364590Y288234D01*
X364621Y288225D01*
X364635Y288218D01*
X364650Y288213D01*
X364677Y288198D01*
X364706Y288185D01*
X365048Y287987D01*
X365074Y287969D01*
X365101Y287953D01*
X365113Y287943D01*
X365126Y287934D01*
X365149Y287912D01*
X365173Y287892D01*
X365452Y287612D01*
X365472Y287588D01*
X365494Y287565D01*
X365503Y287553D01*
X365513Y287540D01*
X365530Y287514D01*
X365547Y287488D01*
X365745Y287146D01*
X365759Y287117D01*
X365774Y287090D01*
X365779Y287075D01*
X365786Y287060D01*
X365795Y287030D01*
X365805Y287001D01*
X365907Y286619D01*
X365913Y286588D01*
X365920Y286557D01*
X365922Y286542D01*
X365924Y286526D01*
X365925Y286495D01*
X365928Y286463D01*
Y286068D01*
X365925Y286037D01*
X365924Y286005D01*
X365922Y285990D01*
X365920Y285974D01*
X365913Y285943D01*
X365907Y285912D01*
X365805Y285531D01*
X365795Y285501D01*
X365786Y285471D01*
X365779Y285457D01*
X365774Y285442D01*
X365759Y285414D01*
X365745Y285386D01*
X365547Y285044D01*
X365529Y285018D01*
X365513Y284991D01*
X365503Y284979D01*
X365494Y284966D01*
X365472Y284943D01*
X365452Y284919D01*
X365173Y284640D01*
X365149Y284619D01*
X365126Y284598D01*
X365113Y284589D01*
X365101Y284579D01*
X365074Y284562D01*
X365048Y284544D01*
X364706Y284347D01*
X364677Y284333D01*
X364650Y284318D01*
X364635Y284313D01*
X364621Y284306D01*
X364590Y284297D01*
X364561Y284287D01*
X364179Y284184D01*
X364148Y284179D01*
X364118Y284171D01*
X364102Y284170D01*
X364086Y284167D01*
X364055Y284166D01*
X364023Y284164D01*
X355826D01*
X355732Y284171D01*
X355640Y284193D01*
X355553Y284230D01*
X355472Y284279D01*
X355400Y284340D01*
X355339Y284412D01*
X355290Y284492D01*
X355253Y284580D01*
X355232Y284672D01*
X355224Y284766D01*
X355224Y287766D01*
X355232Y287860D01*
X355253Y287952D01*
X355290Y288039D01*
X355339Y288120D01*
X355400Y288191D01*
X355472Y288253D01*
X355553Y288302D01*
X355640Y288338D01*
X355732Y288360D01*
X355826Y288368D01*
X363826D01*
X363826D01*
X363826D01*
X364024Y288368D01*
D02*
G37*
G36*
X437626Y287228D02*
X430576D01*
Y290628D01*
X437626D01*
Y287228D01*
D02*
G37*
G36*
X429276D02*
X422226D01*
Y290628D01*
X429276D01*
Y287228D01*
D02*
G37*
G36*
X413420Y288360D02*
X413512Y288338D01*
X413599Y288302D01*
X413680Y288253D01*
X413751Y288191D01*
X413813Y288120D01*
X413862Y288039D01*
X413898Y287952D01*
X413920Y287860D01*
X413928Y287766D01*
X413928Y284766D01*
X413920Y284671D01*
X413898Y284580D01*
X413862Y284492D01*
X413813Y284412D01*
X413751Y284340D01*
X413680Y284279D01*
X413599Y284230D01*
X413512Y284193D01*
X413420Y284171D01*
X413326Y284164D01*
X405128D01*
X405097Y284166D01*
X405065Y284167D01*
X405050Y284170D01*
X405034Y284171D01*
X405004Y284179D01*
X404973Y284184D01*
X404591Y284287D01*
X404562Y284297D01*
X404531Y284306D01*
X404517Y284313D01*
X404502Y284318D01*
X404474Y284333D01*
X404446Y284347D01*
X404104Y284544D01*
X404078Y284562D01*
X404051Y284578D01*
X404039Y284589D01*
X404026Y284598D01*
X404003Y284619D01*
X403979Y284640D01*
X403700Y284919D01*
X403680Y284943D01*
X403658Y284966D01*
X403649Y284979D01*
X403639Y284991D01*
X403622Y285018D01*
X403604Y285044D01*
X403407Y285386D01*
X403393Y285414D01*
X403378Y285442D01*
X403373Y285457D01*
X403366Y285471D01*
X403357Y285501D01*
X403347Y285531D01*
X403245Y285912D01*
X403239Y285943D01*
X403232Y285974D01*
X403230Y285990D01*
X403227Y286005D01*
X403227Y286037D01*
X403224Y286068D01*
Y286463D01*
X403227Y286495D01*
X403227Y286526D01*
X403230Y286542D01*
X403232Y286557D01*
X403239Y286588D01*
X403245Y286619D01*
X403347Y287000D01*
X403357Y287030D01*
X403366Y287060D01*
X403373Y287075D01*
X403378Y287090D01*
X403393Y287117D01*
X403407Y287146D01*
X403604Y287488D01*
X403622Y287514D01*
X403639Y287540D01*
X403649Y287552D01*
X403658Y287565D01*
X403680Y287588D01*
X403700Y287612D01*
X403979Y287892D01*
X404003Y287912D01*
X404026Y287934D01*
X404039Y287943D01*
X404051Y287953D01*
X404078Y287969D01*
X404104Y287987D01*
X404446Y288185D01*
X404474Y288198D01*
X404502Y288213D01*
X404517Y288218D01*
X404531Y288225D01*
X404562Y288234D01*
X404591Y288245D01*
X404973Y288347D01*
X405004Y288353D01*
X405034Y288360D01*
X405050Y288361D01*
X405065Y288364D01*
X405097Y288365D01*
X405128Y288368D01*
X413326D01*
X413420Y288360D01*
D02*
G37*
G36*
X364024Y283368D02*
X364055Y283365D01*
X364086Y283364D01*
X364102Y283361D01*
X364118Y283360D01*
X364148Y283353D01*
X364179Y283347D01*
X364561Y283245D01*
X364590Y283234D01*
X364621Y283225D01*
X364635Y283219D01*
X364650Y283213D01*
X364677Y283198D01*
X364706Y283185D01*
X365048Y282987D01*
X365074Y282969D01*
X365101Y282953D01*
X365113Y282943D01*
X365126Y282934D01*
X365149Y282912D01*
X365173Y282892D01*
X365452Y282612D01*
X365472Y282588D01*
X365494Y282565D01*
X365503Y282553D01*
X365513Y282540D01*
X365530Y282514D01*
X365547Y282488D01*
X365745Y282146D01*
X365759Y282117D01*
X365774Y282090D01*
X365779Y282075D01*
X365786Y282060D01*
X365795Y282030D01*
X365805Y282001D01*
X365907Y281619D01*
X365913Y281588D01*
X365920Y281557D01*
X365922Y281542D01*
X365924Y281526D01*
X365925Y281495D01*
X365928Y281463D01*
Y281068D01*
X365925Y281037D01*
X365924Y281005D01*
X365922Y280990D01*
X365920Y280974D01*
X365913Y280943D01*
X365907Y280912D01*
X365805Y280531D01*
X365795Y280501D01*
X365786Y280471D01*
X365779Y280457D01*
X365774Y280442D01*
X365759Y280414D01*
X365745Y280386D01*
X365547Y280044D01*
X365529Y280018D01*
X365513Y279991D01*
X365503Y279979D01*
X365494Y279966D01*
X365472Y279943D01*
X365452Y279919D01*
X365173Y279640D01*
X365149Y279619D01*
X365126Y279598D01*
X365113Y279589D01*
X365101Y279579D01*
X365074Y279562D01*
X365048Y279544D01*
X364706Y279347D01*
X364677Y279333D01*
X364650Y279318D01*
X364635Y279313D01*
X364621Y279306D01*
X364590Y279297D01*
X364561Y279287D01*
X364179Y279184D01*
X364148Y279179D01*
X364118Y279171D01*
X364102Y279170D01*
X364086Y279167D01*
X364055Y279166D01*
X364023Y279164D01*
X355826D01*
X355732Y279171D01*
X355640Y279193D01*
X355553Y279230D01*
X355472Y279279D01*
X355400Y279340D01*
X355339Y279412D01*
X355290Y279492D01*
X355253Y279580D01*
X355232Y279672D01*
X355224Y279766D01*
X355224Y282766D01*
X355232Y282860D01*
X355253Y282952D01*
X355290Y283039D01*
X355339Y283120D01*
X355400Y283191D01*
X355472Y283253D01*
X355553Y283302D01*
X355640Y283338D01*
X355732Y283360D01*
X355826Y283368D01*
X363826D01*
X363826D01*
X363826D01*
X364024Y283368D01*
D02*
G37*
G36*
X437626Y281228D02*
X430576D01*
Y286628D01*
X437626D01*
Y281228D01*
D02*
G37*
G36*
X429276D02*
X422226D01*
Y286628D01*
X429276D01*
Y281228D01*
D02*
G37*
G36*
X413420Y283360D02*
X413512Y283338D01*
X413599Y283302D01*
X413680Y283253D01*
X413751Y283191D01*
X413813Y283120D01*
X413862Y283039D01*
X413898Y282952D01*
X413920Y282860D01*
X413928Y282766D01*
X413928Y279766D01*
X413920Y279672D01*
X413898Y279580D01*
X413862Y279492D01*
X413813Y279412D01*
X413751Y279340D01*
X413680Y279279D01*
X413599Y279230D01*
X413512Y279193D01*
X413420Y279171D01*
X413326Y279164D01*
X405128D01*
X405097Y279166D01*
X405065Y279167D01*
X405050Y279170D01*
X405034Y279171D01*
X405004Y279179D01*
X404973Y279184D01*
X404591Y279287D01*
X404562Y279297D01*
X404531Y279306D01*
X404517Y279313D01*
X404502Y279318D01*
X404474Y279333D01*
X404446Y279347D01*
X404104Y279544D01*
X404078Y279562D01*
X404051Y279578D01*
X404039Y279589D01*
X404026Y279598D01*
X404003Y279619D01*
X403979Y279640D01*
X403700Y279919D01*
X403680Y279943D01*
X403658Y279966D01*
X403649Y279979D01*
X403639Y279991D01*
X403622Y280018D01*
X403604Y280044D01*
X403407Y280386D01*
X403393Y280414D01*
X403378Y280442D01*
X403373Y280457D01*
X403366Y280471D01*
X403357Y280501D01*
X403347Y280531D01*
X403245Y280912D01*
X403239Y280943D01*
X403232Y280974D01*
X403230Y280990D01*
X403227Y281005D01*
X403227Y281037D01*
X403224Y281068D01*
Y281463D01*
X403227Y281495D01*
X403227Y281526D01*
X403230Y281542D01*
X403232Y281557D01*
X403239Y281588D01*
X403245Y281619D01*
X403347Y282001D01*
X403357Y282030D01*
X403366Y282060D01*
X403373Y282075D01*
X403378Y282090D01*
X403393Y282117D01*
X403407Y282146D01*
X403604Y282488D01*
X403622Y282514D01*
X403639Y282540D01*
X403649Y282552D01*
X403658Y282565D01*
X403680Y282588D01*
X403700Y282612D01*
X403979Y282892D01*
X404003Y282912D01*
X404026Y282934D01*
X404039Y282943D01*
X404051Y282953D01*
X404078Y282969D01*
X404104Y282987D01*
X404446Y283185D01*
X404474Y283198D01*
X404502Y283213D01*
X404517Y283218D01*
X404531Y283225D01*
X404562Y283234D01*
X404591Y283245D01*
X404973Y283347D01*
X405004Y283353D01*
X405034Y283360D01*
X405050Y283361D01*
X405065Y283364D01*
X405097Y283365D01*
X405128Y283368D01*
X413326D01*
X413420Y283360D01*
D02*
G37*
G36*
X364024Y278368D02*
X364055Y278365D01*
X364086Y278364D01*
X364102Y278361D01*
X364118Y278360D01*
X364148Y278353D01*
X364179Y278347D01*
X364561Y278245D01*
X364590Y278234D01*
X364621Y278225D01*
X364635Y278219D01*
X364650Y278213D01*
X364677Y278198D01*
X364706Y278185D01*
X365048Y277987D01*
X365074Y277969D01*
X365101Y277953D01*
X365113Y277943D01*
X365126Y277934D01*
X365149Y277912D01*
X365173Y277892D01*
X365452Y277612D01*
X365472Y277588D01*
X365494Y277565D01*
X365503Y277553D01*
X365513Y277540D01*
X365530Y277514D01*
X365547Y277488D01*
X365745Y277146D01*
X365759Y277117D01*
X365774Y277090D01*
X365779Y277075D01*
X365786Y277060D01*
X365795Y277030D01*
X365805Y277001D01*
X365907Y276619D01*
X365913Y276588D01*
X365920Y276557D01*
X365922Y276542D01*
X365924Y276526D01*
X365925Y276495D01*
X365928Y276463D01*
Y276068D01*
X365925Y276037D01*
X365924Y276005D01*
X365922Y275990D01*
X365920Y275974D01*
X365913Y275943D01*
X365907Y275912D01*
X365805Y275531D01*
X365795Y275501D01*
X365786Y275471D01*
X365779Y275457D01*
X365774Y275442D01*
X365759Y275414D01*
X365745Y275386D01*
X365547Y275044D01*
X365529Y275018D01*
X365513Y274991D01*
X365503Y274979D01*
X365494Y274966D01*
X365472Y274943D01*
X365452Y274919D01*
X365173Y274640D01*
X365149Y274619D01*
X365126Y274598D01*
X365113Y274589D01*
X365101Y274579D01*
X365074Y274562D01*
X365048Y274544D01*
X364706Y274347D01*
X364677Y274333D01*
X364650Y274318D01*
X364635Y274313D01*
X364621Y274306D01*
X364590Y274297D01*
X364561Y274287D01*
X364179Y274184D01*
X364148Y274179D01*
X364118Y274171D01*
X364102Y274170D01*
X364086Y274167D01*
X364055Y274166D01*
X364023Y274164D01*
X355826D01*
X355732Y274171D01*
X355640Y274193D01*
X355553Y274230D01*
X355472Y274279D01*
X355400Y274340D01*
X355339Y274412D01*
X355290Y274492D01*
X355253Y274580D01*
X355232Y274672D01*
X355224Y274766D01*
X355224Y277766D01*
X355232Y277860D01*
X355253Y277952D01*
X355290Y278039D01*
X355339Y278120D01*
X355400Y278191D01*
X355472Y278253D01*
X355553Y278302D01*
X355640Y278338D01*
X355732Y278360D01*
X355826Y278368D01*
X363826D01*
X363826D01*
X363826D01*
X364024Y278368D01*
D02*
G37*
G36*
X437626Y277228D02*
X430576D01*
Y280628D01*
X437626D01*
Y277228D01*
D02*
G37*
G36*
X429276D02*
X422226D01*
Y280628D01*
X429276D01*
Y277228D01*
D02*
G37*
G36*
X413420Y278360D02*
X413512Y278338D01*
X413599Y278302D01*
X413680Y278253D01*
X413751Y278191D01*
X413813Y278120D01*
X413862Y278039D01*
X413898Y277952D01*
X413920Y277860D01*
X413928Y277766D01*
X413928Y274766D01*
X413920Y274672D01*
X413898Y274580D01*
X413862Y274492D01*
X413813Y274412D01*
X413751Y274340D01*
X413680Y274279D01*
X413599Y274230D01*
X413512Y274193D01*
X413420Y274171D01*
X413326Y274164D01*
X405128D01*
X405097Y274166D01*
X405065Y274167D01*
X405050Y274170D01*
X405034Y274171D01*
X405004Y274179D01*
X404973Y274184D01*
X404591Y274287D01*
X404562Y274297D01*
X404531Y274306D01*
X404517Y274313D01*
X404502Y274318D01*
X404474Y274333D01*
X404446Y274347D01*
X404104Y274544D01*
X404078Y274562D01*
X404051Y274578D01*
X404039Y274589D01*
X404026Y274598D01*
X404003Y274619D01*
X403979Y274640D01*
X403700Y274919D01*
X403680Y274943D01*
X403658Y274966D01*
X403649Y274979D01*
X403639Y274991D01*
X403622Y275018D01*
X403604Y275044D01*
X403407Y275386D01*
X403393Y275414D01*
X403378Y275442D01*
X403373Y275457D01*
X403366Y275471D01*
X403357Y275501D01*
X403347Y275531D01*
X403245Y275912D01*
X403239Y275943D01*
X403232Y275974D01*
X403230Y275990D01*
X403227Y276005D01*
X403227Y276037D01*
X403224Y276068D01*
Y276463D01*
X403227Y276495D01*
X403227Y276526D01*
X403230Y276542D01*
X403232Y276557D01*
X403239Y276588D01*
X403245Y276619D01*
X403347Y277001D01*
X403357Y277030D01*
X403366Y277060D01*
X403373Y277075D01*
X403378Y277090D01*
X403393Y277117D01*
X403407Y277146D01*
X403604Y277488D01*
X403622Y277514D01*
X403639Y277540D01*
X403649Y277552D01*
X403658Y277565D01*
X403680Y277588D01*
X403700Y277612D01*
X403979Y277892D01*
X404003Y277912D01*
X404026Y277934D01*
X404039Y277943D01*
X404051Y277953D01*
X404078Y277969D01*
X404104Y277987D01*
X404446Y278185D01*
X404474Y278198D01*
X404502Y278213D01*
X404517Y278218D01*
X404531Y278225D01*
X404562Y278234D01*
X404591Y278245D01*
X404973Y278347D01*
X405004Y278353D01*
X405034Y278360D01*
X405050Y278361D01*
X405065Y278364D01*
X405097Y278365D01*
X405128Y278368D01*
X413326D01*
X413420Y278360D01*
D02*
G37*
G36*
X364024Y273368D02*
X364055Y273365D01*
X364086Y273364D01*
X364102Y273361D01*
X364118Y273360D01*
X364148Y273353D01*
X364179Y273347D01*
X364561Y273245D01*
X364590Y273234D01*
X364621Y273225D01*
X364635Y273219D01*
X364650Y273213D01*
X364677Y273198D01*
X364706Y273185D01*
X365048Y272987D01*
X365074Y272969D01*
X365101Y272953D01*
X365113Y272943D01*
X365126Y272934D01*
X365149Y272912D01*
X365173Y272892D01*
X365452Y272612D01*
X365472Y272588D01*
X365494Y272565D01*
X365503Y272553D01*
X365513Y272540D01*
X365530Y272514D01*
X365547Y272488D01*
X365745Y272146D01*
X365759Y272117D01*
X365774Y272090D01*
X365779Y272075D01*
X365786Y272060D01*
X365795Y272030D01*
X365805Y272001D01*
X365907Y271619D01*
X365913Y271588D01*
X365920Y271557D01*
X365922Y271542D01*
X365924Y271526D01*
X365925Y271495D01*
X365928Y271463D01*
Y271068D01*
X365925Y271037D01*
X365924Y271005D01*
X365922Y270990D01*
X365920Y270974D01*
X365913Y270944D01*
X365907Y270912D01*
X365805Y270531D01*
X365795Y270501D01*
X365786Y270471D01*
X365779Y270457D01*
X365774Y270442D01*
X365759Y270414D01*
X365745Y270386D01*
X365547Y270044D01*
X365529Y270018D01*
X365513Y269991D01*
X365503Y269979D01*
X365494Y269966D01*
X365472Y269943D01*
X365452Y269919D01*
X365173Y269640D01*
X365149Y269619D01*
X365126Y269598D01*
X365113Y269589D01*
X365101Y269579D01*
X365074Y269562D01*
X365048Y269544D01*
X364706Y269347D01*
X364677Y269333D01*
X364650Y269318D01*
X364635Y269313D01*
X364621Y269306D01*
X364590Y269297D01*
X364561Y269287D01*
X364179Y269184D01*
X364148Y269179D01*
X364118Y269171D01*
X364102Y269170D01*
X364086Y269167D01*
X364055Y269166D01*
X364023Y269164D01*
X355826D01*
X355732Y269171D01*
X355640Y269193D01*
X355553Y269230D01*
X355472Y269279D01*
X355400Y269340D01*
X355339Y269412D01*
X355290Y269493D01*
X355253Y269580D01*
X355232Y269672D01*
X355224Y269766D01*
X355224Y272766D01*
X355232Y272860D01*
X355253Y272952D01*
X355290Y273039D01*
X355339Y273120D01*
X355400Y273191D01*
X355472Y273253D01*
X355553Y273302D01*
X355640Y273338D01*
X355732Y273360D01*
X355826Y273368D01*
X363826D01*
X363826D01*
X363826D01*
X364024Y273368D01*
D02*
G37*
G36*
X437626Y272228D02*
X430576D01*
Y275628D01*
X437626D01*
Y272228D01*
D02*
G37*
G36*
X429276D02*
X422226D01*
Y275628D01*
X429276D01*
Y272228D01*
D02*
G37*
G36*
X413420Y273360D02*
X413512Y273338D01*
X413599Y273302D01*
X413680Y273253D01*
X413751Y273191D01*
X413813Y273120D01*
X413862Y273039D01*
X413898Y272952D01*
X413920Y272860D01*
X413928Y272766D01*
X413928Y269766D01*
X413920Y269672D01*
X413898Y269580D01*
X413862Y269492D01*
X413813Y269412D01*
X413751Y269340D01*
X413680Y269279D01*
X413599Y269230D01*
X413512Y269193D01*
X413420Y269171D01*
X413326Y269164D01*
X405128D01*
X405097Y269166D01*
X405065Y269167D01*
X405050Y269170D01*
X405034Y269171D01*
X405004Y269179D01*
X404973Y269184D01*
X404591Y269287D01*
X404562Y269297D01*
X404531Y269306D01*
X404517Y269313D01*
X404502Y269318D01*
X404474Y269333D01*
X404446Y269347D01*
X404104Y269544D01*
X404078Y269562D01*
X404051Y269579D01*
X404039Y269589D01*
X404026Y269598D01*
X404003Y269619D01*
X403979Y269640D01*
X403700Y269919D01*
X403680Y269943D01*
X403658Y269966D01*
X403649Y269979D01*
X403639Y269991D01*
X403622Y270018D01*
X403604Y270044D01*
X403407Y270386D01*
X403393Y270414D01*
X403378Y270442D01*
X403373Y270457D01*
X403366Y270471D01*
X403357Y270501D01*
X403347Y270531D01*
X403245Y270912D01*
X403239Y270943D01*
X403232Y270974D01*
X403230Y270990D01*
X403227Y271005D01*
X403227Y271037D01*
X403224Y271068D01*
Y271463D01*
X403227Y271495D01*
X403227Y271526D01*
X403230Y271542D01*
X403232Y271557D01*
X403239Y271588D01*
X403245Y271619D01*
X403347Y272001D01*
X403357Y272030D01*
X403366Y272060D01*
X403373Y272075D01*
X403378Y272090D01*
X403393Y272117D01*
X403407Y272146D01*
X403604Y272488D01*
X403622Y272514D01*
X403639Y272540D01*
X403649Y272552D01*
X403658Y272565D01*
X403680Y272588D01*
X403700Y272612D01*
X403979Y272892D01*
X404003Y272912D01*
X404026Y272934D01*
X404039Y272943D01*
X404051Y272953D01*
X404078Y272969D01*
X404104Y272987D01*
X404446Y273185D01*
X404474Y273198D01*
X404502Y273213D01*
X404517Y273218D01*
X404531Y273225D01*
X404562Y273234D01*
X404591Y273245D01*
X404973Y273347D01*
X405004Y273353D01*
X405034Y273360D01*
X405050Y273361D01*
X405065Y273364D01*
X405097Y273365D01*
X405128Y273368D01*
X413326D01*
X413420Y273360D01*
D02*
G37*
G36*
X364024Y268368D02*
X364055Y268365D01*
X364086Y268364D01*
X364102Y268361D01*
X364118Y268360D01*
X364148Y268353D01*
X364179Y268347D01*
X364561Y268245D01*
X364590Y268234D01*
X364621Y268225D01*
X364635Y268219D01*
X364650Y268213D01*
X364677Y268198D01*
X364706Y268185D01*
X365048Y267987D01*
X365074Y267969D01*
X365101Y267953D01*
X365113Y267943D01*
X365126Y267934D01*
X365149Y267912D01*
X365173Y267892D01*
X365452Y267612D01*
X365472Y267588D01*
X365494Y267566D01*
X365503Y267553D01*
X365513Y267540D01*
X365530Y267514D01*
X365547Y267488D01*
X365745Y267146D01*
X365759Y267117D01*
X365774Y267090D01*
X365779Y267075D01*
X365786Y267061D01*
X365795Y267030D01*
X365805Y267001D01*
X365907Y266619D01*
X365913Y266588D01*
X365920Y266557D01*
X365922Y266542D01*
X365924Y266526D01*
X365925Y266495D01*
X365928Y266463D01*
Y266068D01*
X365925Y266037D01*
X365924Y266005D01*
X365922Y265990D01*
X365920Y265974D01*
X365913Y265944D01*
X365907Y265912D01*
X365805Y265531D01*
X365795Y265501D01*
X365786Y265471D01*
X365779Y265457D01*
X365774Y265442D01*
X365759Y265414D01*
X365745Y265386D01*
X365547Y265044D01*
X365529Y265018D01*
X365513Y264991D01*
X365503Y264979D01*
X365494Y264966D01*
X365472Y264943D01*
X365452Y264919D01*
X365173Y264640D01*
X365149Y264619D01*
X365126Y264598D01*
X365113Y264589D01*
X365101Y264579D01*
X365074Y264562D01*
X365048Y264544D01*
X364706Y264347D01*
X364677Y264333D01*
X364650Y264318D01*
X364635Y264313D01*
X364621Y264306D01*
X364590Y264297D01*
X364561Y264287D01*
X364179Y264184D01*
X364148Y264179D01*
X364118Y264171D01*
X364102Y264170D01*
X364086Y264167D01*
X364055Y264166D01*
X364023Y264164D01*
X355826D01*
X355732Y264171D01*
X355640Y264193D01*
X355553Y264230D01*
X355472Y264279D01*
X355400Y264340D01*
X355339Y264412D01*
X355290Y264493D01*
X355253Y264580D01*
X355232Y264672D01*
X355224Y264766D01*
X355224Y267766D01*
X355232Y267860D01*
X355253Y267952D01*
X355290Y268039D01*
X355339Y268120D01*
X355400Y268191D01*
X355472Y268253D01*
X355553Y268302D01*
X355640Y268338D01*
X355732Y268360D01*
X355826Y268368D01*
X363826D01*
X363826D01*
X363826D01*
X364024Y268368D01*
D02*
G37*
G36*
X413420Y268360D02*
X413512Y268338D01*
X413599Y268302D01*
X413680Y268253D01*
X413751Y268191D01*
X413813Y268120D01*
X413862Y268039D01*
X413898Y267952D01*
X413920Y267860D01*
X413928Y267766D01*
X413928Y264766D01*
X413920Y264672D01*
X413898Y264580D01*
X413862Y264492D01*
X413813Y264412D01*
X413751Y264340D01*
X413680Y264279D01*
X413599Y264230D01*
X413512Y264193D01*
X413420Y264171D01*
X413326Y264164D01*
X405128D01*
X405097Y264166D01*
X405065Y264167D01*
X405050Y264170D01*
X405034Y264171D01*
X405004Y264179D01*
X404973Y264184D01*
X404591Y264287D01*
X404562Y264297D01*
X404531Y264306D01*
X404517Y264313D01*
X404502Y264318D01*
X404474Y264333D01*
X404446Y264347D01*
X404104Y264544D01*
X404078Y264562D01*
X404051Y264579D01*
X404039Y264589D01*
X404026Y264598D01*
X404003Y264619D01*
X403979Y264640D01*
X403700Y264919D01*
X403680Y264943D01*
X403658Y264966D01*
X403649Y264979D01*
X403639Y264991D01*
X403622Y265018D01*
X403604Y265044D01*
X403407Y265386D01*
X403393Y265414D01*
X403378Y265442D01*
X403373Y265457D01*
X403366Y265471D01*
X403357Y265501D01*
X403347Y265531D01*
X403245Y265912D01*
X403239Y265943D01*
X403232Y265974D01*
X403230Y265990D01*
X403227Y266005D01*
X403227Y266037D01*
X403224Y266068D01*
Y266463D01*
X403227Y266495D01*
X403227Y266526D01*
X403230Y266542D01*
X403232Y266557D01*
X403239Y266588D01*
X403245Y266619D01*
X403347Y267001D01*
X403357Y267030D01*
X403366Y267060D01*
X403373Y267075D01*
X403378Y267090D01*
X403393Y267117D01*
X403407Y267146D01*
X403604Y267488D01*
X403622Y267514D01*
X403639Y267540D01*
X403649Y267552D01*
X403658Y267565D01*
X403680Y267588D01*
X403700Y267612D01*
X403979Y267892D01*
X404003Y267912D01*
X404026Y267934D01*
X404039Y267943D01*
X404051Y267953D01*
X404078Y267969D01*
X404104Y267987D01*
X404446Y268185D01*
X404474Y268198D01*
X404502Y268213D01*
X404517Y268218D01*
X404531Y268225D01*
X404562Y268234D01*
X404591Y268245D01*
X404973Y268347D01*
X405004Y268353D01*
X405034Y268360D01*
X405050Y268361D01*
X405065Y268364D01*
X405097Y268365D01*
X405128Y268368D01*
X413326D01*
X413420Y268360D01*
D02*
G37*
G36*
X364024Y263368D02*
X364055Y263365D01*
X364086Y263364D01*
X364102Y263361D01*
X364118Y263360D01*
X364148Y263353D01*
X364179Y263347D01*
X364561Y263245D01*
X364590Y263234D01*
X364621Y263225D01*
X364635Y263219D01*
X364650Y263213D01*
X364677Y263198D01*
X364706Y263185D01*
X365048Y262987D01*
X365074Y262969D01*
X365101Y262953D01*
X365113Y262943D01*
X365126Y262934D01*
X365149Y262912D01*
X365173Y262892D01*
X365452Y262612D01*
X365472Y262588D01*
X365494Y262566D01*
X365503Y262553D01*
X365513Y262540D01*
X365530Y262514D01*
X365547Y262488D01*
X365745Y262146D01*
X365759Y262117D01*
X365774Y262090D01*
X365779Y262075D01*
X365786Y262061D01*
X365795Y262030D01*
X365805Y262001D01*
X365907Y261619D01*
X365913Y261588D01*
X365920Y261557D01*
X365922Y261542D01*
X365924Y261526D01*
X365925Y261495D01*
X365928Y261463D01*
Y261068D01*
X365925Y261037D01*
X365924Y261005D01*
X365922Y260990D01*
X365920Y260974D01*
X365913Y260944D01*
X365907Y260913D01*
X365805Y260531D01*
X365795Y260501D01*
X365786Y260471D01*
X365779Y260457D01*
X365774Y260442D01*
X365759Y260414D01*
X365745Y260386D01*
X365547Y260044D01*
X365529Y260018D01*
X365513Y259991D01*
X365503Y259979D01*
X365494Y259966D01*
X365472Y259943D01*
X365452Y259919D01*
X365173Y259640D01*
X365149Y259619D01*
X365126Y259598D01*
X365113Y259589D01*
X365101Y259579D01*
X365074Y259562D01*
X365048Y259544D01*
X364706Y259347D01*
X364677Y259333D01*
X364650Y259318D01*
X364635Y259313D01*
X364621Y259306D01*
X364590Y259297D01*
X364561Y259287D01*
X364179Y259184D01*
X364148Y259179D01*
X364118Y259171D01*
X364102Y259170D01*
X364086Y259167D01*
X364055Y259166D01*
X364023Y259164D01*
X355826D01*
X355732Y259171D01*
X355640Y259193D01*
X355553Y259230D01*
X355472Y259279D01*
X355400Y259340D01*
X355339Y259412D01*
X355290Y259493D01*
X355253Y259580D01*
X355232Y259672D01*
X355224Y259766D01*
X355224Y262766D01*
X355232Y262860D01*
X355253Y262952D01*
X355290Y263039D01*
X355339Y263120D01*
X355400Y263191D01*
X355472Y263253D01*
X355553Y263302D01*
X355640Y263338D01*
X355732Y263360D01*
X355826Y263368D01*
X363826D01*
X363826D01*
X363826D01*
X364024Y263368D01*
D02*
G37*
G36*
X413420Y263360D02*
X413512Y263338D01*
X413599Y263302D01*
X413680Y263253D01*
X413751Y263191D01*
X413813Y263120D01*
X413862Y263039D01*
X413898Y262952D01*
X413920Y262860D01*
X413928Y262766D01*
X413928Y259766D01*
X413920Y259672D01*
X413898Y259580D01*
X413862Y259492D01*
X413813Y259412D01*
X413751Y259340D01*
X413680Y259279D01*
X413599Y259230D01*
X413512Y259193D01*
X413420Y259171D01*
X413326Y259164D01*
X405128D01*
X405097Y259166D01*
X405065Y259167D01*
X405050Y259170D01*
X405034Y259171D01*
X405004Y259179D01*
X404973Y259184D01*
X404591Y259287D01*
X404562Y259297D01*
X404531Y259306D01*
X404517Y259313D01*
X404502Y259318D01*
X404474Y259333D01*
X404446Y259347D01*
X404104Y259544D01*
X404078Y259562D01*
X404051Y259579D01*
X404039Y259589D01*
X404026Y259598D01*
X404003Y259619D01*
X403979Y259640D01*
X403700Y259919D01*
X403680Y259943D01*
X403658Y259966D01*
X403649Y259979D01*
X403639Y259991D01*
X403622Y260018D01*
X403604Y260044D01*
X403407Y260386D01*
X403393Y260414D01*
X403378Y260442D01*
X403373Y260457D01*
X403366Y260471D01*
X403357Y260501D01*
X403347Y260531D01*
X403245Y260912D01*
X403239Y260943D01*
X403232Y260974D01*
X403230Y260990D01*
X403227Y261005D01*
X403227Y261037D01*
X403224Y261068D01*
Y261463D01*
X403227Y261495D01*
X403227Y261526D01*
X403230Y261542D01*
X403232Y261557D01*
X403239Y261588D01*
X403245Y261619D01*
X403347Y262001D01*
X403357Y262030D01*
X403366Y262060D01*
X403373Y262075D01*
X403378Y262090D01*
X403393Y262117D01*
X403407Y262146D01*
X403604Y262488D01*
X403622Y262514D01*
X403639Y262540D01*
X403649Y262552D01*
X403658Y262565D01*
X403680Y262588D01*
X403700Y262612D01*
X403979Y262892D01*
X404003Y262912D01*
X404026Y262934D01*
X404039Y262943D01*
X404051Y262953D01*
X404078Y262969D01*
X404104Y262987D01*
X404446Y263185D01*
X404474Y263198D01*
X404502Y263213D01*
X404517Y263218D01*
X404531Y263225D01*
X404562Y263234D01*
X404591Y263245D01*
X404973Y263347D01*
X405004Y263353D01*
X405034Y263360D01*
X405050Y263361D01*
X405065Y263364D01*
X405097Y263365D01*
X405128Y263368D01*
X413326D01*
X413420Y263360D01*
D02*
G37*
G36*
X364024Y258368D02*
X364055Y258365D01*
X364086Y258364D01*
X364102Y258361D01*
X364118Y258360D01*
X364148Y258353D01*
X364179Y258347D01*
X364561Y258245D01*
X364590Y258234D01*
X364621Y258225D01*
X364635Y258219D01*
X364650Y258213D01*
X364677Y258198D01*
X364706Y258185D01*
X365048Y257987D01*
X365074Y257969D01*
X365101Y257953D01*
X365113Y257943D01*
X365126Y257934D01*
X365149Y257912D01*
X365173Y257892D01*
X365452Y257612D01*
X365472Y257588D01*
X365494Y257566D01*
X365503Y257553D01*
X365513Y257541D01*
X365530Y257514D01*
X365547Y257488D01*
X365745Y257146D01*
X365759Y257117D01*
X365774Y257090D01*
X365779Y257075D01*
X365786Y257061D01*
X365795Y257030D01*
X365805Y257001D01*
X365907Y256619D01*
X365913Y256588D01*
X365920Y256557D01*
X365922Y256542D01*
X365924Y256526D01*
X365925Y256495D01*
X365928Y256463D01*
Y256068D01*
X365925Y256037D01*
X365924Y256005D01*
X365922Y255990D01*
X365920Y255974D01*
X365913Y255944D01*
X365907Y255913D01*
X365805Y255531D01*
X365795Y255501D01*
X365786Y255471D01*
X365779Y255457D01*
X365774Y255442D01*
X365759Y255414D01*
X365745Y255386D01*
X365547Y255044D01*
X365529Y255018D01*
X365513Y254991D01*
X365503Y254979D01*
X365494Y254966D01*
X365472Y254943D01*
X365452Y254919D01*
X365173Y254640D01*
X365149Y254620D01*
X365126Y254598D01*
X365113Y254589D01*
X365101Y254579D01*
X365074Y254562D01*
X365048Y254544D01*
X364706Y254347D01*
X364677Y254333D01*
X364650Y254318D01*
X364635Y254313D01*
X364621Y254306D01*
X364590Y254297D01*
X364561Y254287D01*
X364179Y254184D01*
X364148Y254179D01*
X364118Y254171D01*
X364102Y254170D01*
X364086Y254167D01*
X364055Y254166D01*
X364023Y254164D01*
X355826D01*
X355732Y254171D01*
X355640Y254193D01*
X355553Y254230D01*
X355472Y254279D01*
X355400Y254340D01*
X355339Y254412D01*
X355290Y254493D01*
X355253Y254580D01*
X355232Y254672D01*
X355224Y254766D01*
X355224Y257766D01*
X355232Y257860D01*
X355253Y257952D01*
X355290Y258039D01*
X355339Y258120D01*
X355400Y258191D01*
X355472Y258253D01*
X355553Y258302D01*
X355640Y258338D01*
X355732Y258360D01*
X355826Y258368D01*
X363826D01*
X363826D01*
X363826D01*
X364024Y258368D01*
D02*
G37*
G36*
X413420Y258360D02*
X413512Y258338D01*
X413599Y258302D01*
X413680Y258253D01*
X413751Y258191D01*
X413813Y258120D01*
X413862Y258039D01*
X413898Y257952D01*
X413920Y257860D01*
X413928Y257766D01*
X413928Y254766D01*
X413920Y254672D01*
X413898Y254580D01*
X413862Y254492D01*
X413813Y254412D01*
X413751Y254340D01*
X413680Y254279D01*
X413599Y254230D01*
X413512Y254193D01*
X413420Y254171D01*
X413326Y254164D01*
X405128D01*
X405097Y254166D01*
X405065Y254167D01*
X405050Y254170D01*
X405034Y254171D01*
X405004Y254179D01*
X404973Y254184D01*
X404591Y254287D01*
X404562Y254297D01*
X404531Y254306D01*
X404517Y254313D01*
X404502Y254318D01*
X404474Y254333D01*
X404446Y254347D01*
X404104Y254544D01*
X404078Y254562D01*
X404051Y254579D01*
X404039Y254589D01*
X404026Y254598D01*
X404003Y254619D01*
X403979Y254640D01*
X403700Y254919D01*
X403680Y254943D01*
X403658Y254966D01*
X403649Y254979D01*
X403639Y254991D01*
X403622Y255018D01*
X403604Y255044D01*
X403407Y255386D01*
X403393Y255414D01*
X403378Y255442D01*
X403373Y255457D01*
X403366Y255471D01*
X403357Y255501D01*
X403347Y255531D01*
X403245Y255912D01*
X403239Y255943D01*
X403232Y255974D01*
X403230Y255990D01*
X403227Y256005D01*
X403227Y256037D01*
X403224Y256068D01*
Y256463D01*
X403227Y256495D01*
X403227Y256526D01*
X403230Y256542D01*
X403232Y256557D01*
X403239Y256588D01*
X403245Y256619D01*
X403347Y257001D01*
X403357Y257030D01*
X403366Y257060D01*
X403373Y257075D01*
X403378Y257090D01*
X403393Y257117D01*
X403407Y257146D01*
X403604Y257488D01*
X403622Y257514D01*
X403639Y257540D01*
X403649Y257552D01*
X403658Y257565D01*
X403680Y257588D01*
X403700Y257612D01*
X403979Y257892D01*
X404003Y257912D01*
X404026Y257934D01*
X404039Y257943D01*
X404051Y257953D01*
X404078Y257969D01*
X404104Y257987D01*
X404446Y258185D01*
X404474Y258198D01*
X404502Y258213D01*
X404517Y258219D01*
X404531Y258225D01*
X404562Y258234D01*
X404591Y258245D01*
X404973Y258347D01*
X405004Y258353D01*
X405034Y258360D01*
X405050Y258361D01*
X405065Y258364D01*
X405097Y258365D01*
X405128Y258368D01*
X413326D01*
X413420Y258360D01*
D02*
G37*
G36*
X401459Y289025D02*
X401589Y288999D01*
X401716Y288956D01*
X401835Y288897D01*
X401946Y288824D01*
X402046Y288736D01*
X402134Y288636D01*
X402208Y288525D01*
X402267Y288405D01*
X402309Y288279D01*
X402335Y288149D01*
X402344Y288016D01*
Y254516D01*
X402335Y254383D01*
X402309Y254252D01*
X402267Y254126D01*
X402208Y254007D01*
X402134Y253896D01*
X402046Y253796D01*
X401946Y253708D01*
X401835Y253634D01*
X401716Y253575D01*
X401589Y253532D01*
X401459Y253506D01*
X401326Y253498D01*
X367826D01*
X367693Y253506D01*
X367562Y253532D01*
X367436Y253575D01*
X367317Y253634D01*
X367206Y253708D01*
X367106Y253796D01*
X367018Y253896D01*
X366944Y254007D01*
X366885Y254126D01*
X366842Y254252D01*
X366816Y254383D01*
X366808Y254516D01*
Y285516D01*
X366816Y285649D01*
X366842Y285779D01*
X366885Y285905D01*
X366944Y286025D01*
X367018Y286136D01*
X367106Y286236D01*
X369606Y288736D01*
X369706Y288824D01*
X369817Y288897D01*
X369936Y288956D01*
X370062Y288999D01*
X370193Y289025D01*
X370326Y289034D01*
X401326D01*
X401459Y289025D01*
D02*
G37*
G36*
X399805Y252615D02*
X399836Y252614D01*
X399852Y252612D01*
X399868Y252610D01*
X399898Y252603D01*
X399929Y252597D01*
X400311Y252495D01*
X400340Y252484D01*
X400370Y252475D01*
X400385Y252469D01*
X400400Y252463D01*
X400427Y252448D01*
X400456Y252435D01*
X400798Y252237D01*
X400824Y252219D01*
X400851Y252203D01*
X400863Y252193D01*
X400876Y252184D01*
X400898Y252162D01*
X400922Y252142D01*
X401202Y251862D01*
X401222Y251838D01*
X401244Y251815D01*
X401253Y251803D01*
X401263Y251791D01*
X401279Y251764D01*
X401297Y251738D01*
X401495Y251396D01*
X401508Y251367D01*
X401523Y251340D01*
X401529Y251325D01*
X401535Y251310D01*
X401544Y251280D01*
X401555Y251250D01*
X401657Y250869D01*
X401663Y250838D01*
X401670Y250807D01*
X401671Y250792D01*
X401674Y250776D01*
X401675Y250745D01*
X401678Y250713D01*
Y250516D01*
Y242516D01*
X401670Y242422D01*
X401648Y242330D01*
X401612Y242243D01*
X401563Y242162D01*
X401501Y242090D01*
X401430Y242029D01*
X401349Y241980D01*
X401262Y241943D01*
X401170Y241921D01*
X401076Y241914D01*
X398076Y241914D01*
X397982Y241921D01*
X397890Y241943D01*
X397803Y241980D01*
X397722Y242029D01*
X397650Y242090D01*
X397589Y242162D01*
X397540Y242243D01*
X397504Y242330D01*
X397481Y242422D01*
X397474Y242516D01*
Y250516D01*
Y250516D01*
Y250516D01*
X397474Y250713D01*
X397477Y250745D01*
X397477Y250776D01*
X397480Y250792D01*
X397481Y250807D01*
X397489Y250838D01*
X397495Y250869D01*
X397597Y251250D01*
X397607Y251280D01*
X397616Y251310D01*
X397623Y251325D01*
X397628Y251339D01*
X397643Y251367D01*
X397657Y251396D01*
X397854Y251738D01*
X397872Y251764D01*
X397889Y251791D01*
X397899Y251802D01*
X397908Y251815D01*
X397929Y251838D01*
X397950Y251862D01*
X398229Y252142D01*
X398253Y252162D01*
X398276Y252184D01*
X398289Y252193D01*
X398301Y252203D01*
X398328Y252219D01*
X398354Y252237D01*
X398696Y252435D01*
X398724Y252448D01*
X398752Y252463D01*
X398767Y252469D01*
X398781Y252475D01*
X398812Y252484D01*
X398841Y252495D01*
X399223Y252597D01*
X399254Y252603D01*
X399284Y252610D01*
X399300Y252612D01*
X399315Y252614D01*
X399347Y252615D01*
X399378Y252618D01*
X399773D01*
X399805Y252615D01*
D02*
G37*
G36*
X394805D02*
X394836Y252614D01*
X394852Y252612D01*
X394868Y252610D01*
X394898Y252603D01*
X394929Y252597D01*
X395311Y252495D01*
X395340Y252484D01*
X395370Y252475D01*
X395385Y252469D01*
X395400Y252463D01*
X395427Y252448D01*
X395456Y252435D01*
X395798Y252237D01*
X395824Y252219D01*
X395851Y252203D01*
X395863Y252193D01*
X395876Y252184D01*
X395898Y252162D01*
X395922Y252142D01*
X396202Y251862D01*
X396222Y251838D01*
X396244Y251815D01*
X396253Y251803D01*
X396263Y251791D01*
X396279Y251764D01*
X396297Y251738D01*
X396495Y251396D01*
X396508Y251367D01*
X396523Y251340D01*
X396529Y251325D01*
X396535Y251310D01*
X396544Y251280D01*
X396555Y251250D01*
X396657Y250869D01*
X396663Y250838D01*
X396670Y250807D01*
X396671Y250792D01*
X396674Y250776D01*
X396675Y250745D01*
X396678Y250713D01*
Y250516D01*
Y242516D01*
X396670Y242422D01*
X396648Y242330D01*
X396612Y242243D01*
X396563Y242162D01*
X396501Y242090D01*
X396430Y242029D01*
X396349Y241980D01*
X396262Y241943D01*
X396170Y241921D01*
X396076Y241914D01*
X393076Y241914D01*
X392982Y241921D01*
X392890Y241943D01*
X392803Y241980D01*
X392722Y242029D01*
X392650Y242090D01*
X392589Y242162D01*
X392540Y242243D01*
X392504Y242330D01*
X392481Y242422D01*
X392474Y242516D01*
Y250516D01*
Y250516D01*
Y250516D01*
X392474Y250713D01*
X392477Y250745D01*
X392477Y250776D01*
X392480Y250792D01*
X392481Y250807D01*
X392489Y250838D01*
X392495Y250869D01*
X392597Y251250D01*
X392607Y251280D01*
X392616Y251310D01*
X392623Y251325D01*
X392628Y251339D01*
X392643Y251367D01*
X392657Y251396D01*
X392854Y251738D01*
X392872Y251764D01*
X392889Y251791D01*
X392899Y251802D01*
X392908Y251815D01*
X392929Y251838D01*
X392950Y251862D01*
X393229Y252142D01*
X393253Y252162D01*
X393276Y252184D01*
X393289Y252193D01*
X393301Y252203D01*
X393328Y252219D01*
X393354Y252237D01*
X393696Y252435D01*
X393724Y252448D01*
X393752Y252463D01*
X393767Y252469D01*
X393781Y252475D01*
X393812Y252484D01*
X393841Y252495D01*
X394223Y252597D01*
X394254Y252603D01*
X394284Y252610D01*
X394300Y252612D01*
X394315Y252614D01*
X394347Y252615D01*
X394378Y252618D01*
X394773D01*
X394805Y252615D01*
D02*
G37*
G36*
X389805D02*
X389836Y252614D01*
X389852Y252612D01*
X389868Y252610D01*
X389898Y252603D01*
X389929Y252597D01*
X390311Y252495D01*
X390340Y252484D01*
X390370Y252475D01*
X390385Y252469D01*
X390400Y252463D01*
X390427Y252448D01*
X390456Y252435D01*
X390798Y252237D01*
X390824Y252219D01*
X390851Y252203D01*
X390863Y252193D01*
X390876Y252184D01*
X390899Y252162D01*
X390923Y252142D01*
X391202Y251862D01*
X391222Y251838D01*
X391244Y251815D01*
X391253Y251803D01*
X391263Y251791D01*
X391279Y251764D01*
X391297Y251738D01*
X391495Y251396D01*
X391508Y251367D01*
X391523Y251340D01*
X391529Y251325D01*
X391535Y251310D01*
X391544Y251280D01*
X391555Y251250D01*
X391657Y250869D01*
X391663Y250838D01*
X391670Y250807D01*
X391672Y250792D01*
X391674Y250776D01*
X391675Y250745D01*
X391678Y250713D01*
Y250516D01*
Y242516D01*
X391670Y242422D01*
X391648Y242330D01*
X391612Y242243D01*
X391563Y242162D01*
X391502Y242090D01*
X391430Y242029D01*
X391349Y241980D01*
X391262Y241943D01*
X391170Y241921D01*
X391076Y241914D01*
X388076Y241914D01*
X387982Y241921D01*
X387890Y241943D01*
X387803Y241980D01*
X387722Y242029D01*
X387650Y242090D01*
X387589Y242162D01*
X387540Y242243D01*
X387504Y242330D01*
X387481Y242422D01*
X387474Y242516D01*
Y250516D01*
Y250516D01*
Y250516D01*
X387474Y250713D01*
X387477Y250745D01*
X387477Y250776D01*
X387480Y250792D01*
X387481Y250807D01*
X387489Y250838D01*
X387495Y250869D01*
X387597Y251250D01*
X387607Y251280D01*
X387616Y251310D01*
X387623Y251325D01*
X387628Y251339D01*
X387643Y251367D01*
X387657Y251396D01*
X387854Y251738D01*
X387872Y251764D01*
X387889Y251791D01*
X387899Y251802D01*
X387908Y251815D01*
X387929Y251838D01*
X387950Y251862D01*
X388229Y252142D01*
X388253Y252162D01*
X388276Y252184D01*
X388289Y252193D01*
X388301Y252203D01*
X388328Y252219D01*
X388354Y252237D01*
X388696Y252435D01*
X388724Y252448D01*
X388752Y252463D01*
X388767Y252469D01*
X388781Y252475D01*
X388812Y252484D01*
X388841Y252495D01*
X389223Y252597D01*
X389254Y252603D01*
X389284Y252610D01*
X389300Y252612D01*
X389315Y252614D01*
X389347Y252615D01*
X389378Y252618D01*
X389773D01*
X389805Y252615D01*
D02*
G37*
G36*
X384805D02*
X384836Y252614D01*
X384852Y252612D01*
X384868Y252610D01*
X384898Y252603D01*
X384929Y252597D01*
X385311Y252495D01*
X385340Y252484D01*
X385371Y252475D01*
X385385Y252469D01*
X385400Y252463D01*
X385427Y252448D01*
X385456Y252435D01*
X385798Y252237D01*
X385824Y252219D01*
X385851Y252203D01*
X385863Y252193D01*
X385876Y252184D01*
X385899Y252162D01*
X385923Y252142D01*
X386202Y251862D01*
X386222Y251838D01*
X386244Y251815D01*
X386253Y251803D01*
X386263Y251791D01*
X386279Y251764D01*
X386297Y251738D01*
X386495Y251396D01*
X386508Y251367D01*
X386524Y251340D01*
X386529Y251325D01*
X386535Y251310D01*
X386544Y251280D01*
X386555Y251250D01*
X386657Y250869D01*
X386663Y250838D01*
X386670Y250807D01*
X386672Y250792D01*
X386674Y250776D01*
X386675Y250745D01*
X386678Y250713D01*
Y250516D01*
Y242516D01*
X386670Y242422D01*
X386648Y242330D01*
X386612Y242243D01*
X386563Y242162D01*
X386502Y242090D01*
X386430Y242029D01*
X386349Y241980D01*
X386262Y241943D01*
X386170Y241921D01*
X386076Y241914D01*
X383076Y241914D01*
X382982Y241921D01*
X382890Y241943D01*
X382803Y241980D01*
X382722Y242029D01*
X382650Y242090D01*
X382589Y242162D01*
X382540Y242243D01*
X382504Y242330D01*
X382481Y242422D01*
X382474Y242516D01*
Y250516D01*
Y250516D01*
Y250516D01*
X382474Y250713D01*
X382477Y250745D01*
X382477Y250776D01*
X382480Y250792D01*
X382481Y250807D01*
X382489Y250838D01*
X382495Y250869D01*
X382597Y251250D01*
X382607Y251280D01*
X382616Y251310D01*
X382623Y251325D01*
X382628Y251339D01*
X382643Y251367D01*
X382657Y251396D01*
X382854Y251738D01*
X382872Y251764D01*
X382889Y251791D01*
X382899Y251802D01*
X382908Y251815D01*
X382929Y251838D01*
X382950Y251862D01*
X383229Y252142D01*
X383253Y252162D01*
X383276Y252184D01*
X383289Y252193D01*
X383301Y252203D01*
X383328Y252219D01*
X383354Y252237D01*
X383696Y252435D01*
X383724Y252448D01*
X383752Y252463D01*
X383767Y252469D01*
X383781Y252475D01*
X383812Y252484D01*
X383841Y252495D01*
X384223Y252597D01*
X384254Y252603D01*
X384284Y252610D01*
X384300Y252612D01*
X384315Y252614D01*
X384347Y252615D01*
X384378Y252618D01*
X384773D01*
X384805Y252615D01*
D02*
G37*
G36*
X379805D02*
X379836Y252614D01*
X379852Y252612D01*
X379868Y252610D01*
X379898Y252603D01*
X379929Y252597D01*
X380311Y252495D01*
X380340Y252484D01*
X380371Y252475D01*
X380385Y252469D01*
X380400Y252463D01*
X380427Y252448D01*
X380456Y252435D01*
X380798Y252237D01*
X380824Y252219D01*
X380851Y252203D01*
X380863Y252193D01*
X380876Y252184D01*
X380899Y252162D01*
X380923Y252142D01*
X381202Y251862D01*
X381222Y251838D01*
X381244Y251815D01*
X381253Y251803D01*
X381263Y251791D01*
X381280Y251764D01*
X381297Y251738D01*
X381495Y251396D01*
X381508Y251367D01*
X381524Y251340D01*
X381529Y251325D01*
X381535Y251310D01*
X381545Y251280D01*
X381555Y251250D01*
X381657Y250869D01*
X381663Y250838D01*
X381670Y250807D01*
X381672Y250792D01*
X381674Y250776D01*
X381675Y250745D01*
X381678Y250713D01*
Y250516D01*
Y242516D01*
X381670Y242422D01*
X381648Y242330D01*
X381612Y242243D01*
X381563Y242162D01*
X381502Y242090D01*
X381430Y242029D01*
X381349Y241980D01*
X381262Y241943D01*
X381170Y241921D01*
X381076Y241914D01*
X378076Y241914D01*
X377982Y241921D01*
X377890Y241943D01*
X377803Y241980D01*
X377722Y242029D01*
X377650Y242090D01*
X377589Y242162D01*
X377540Y242243D01*
X377504Y242330D01*
X377481Y242422D01*
X377474Y242516D01*
Y250516D01*
Y250516D01*
Y250516D01*
X377474Y250713D01*
X377477Y250745D01*
X377477Y250776D01*
X377480Y250792D01*
X377481Y250807D01*
X377489Y250838D01*
X377495Y250869D01*
X377597Y251250D01*
X377607Y251280D01*
X377616Y251310D01*
X377623Y251325D01*
X377628Y251339D01*
X377643Y251367D01*
X377657Y251396D01*
X377854Y251738D01*
X377872Y251764D01*
X377889Y251791D01*
X377899Y251802D01*
X377908Y251815D01*
X377929Y251838D01*
X377950Y251862D01*
X378229Y252142D01*
X378253Y252162D01*
X378276Y252184D01*
X378289Y252193D01*
X378301Y252203D01*
X378328Y252219D01*
X378354Y252237D01*
X378696Y252435D01*
X378724Y252448D01*
X378752Y252463D01*
X378767Y252469D01*
X378781Y252475D01*
X378812Y252484D01*
X378841Y252495D01*
X379223Y252597D01*
X379254Y252603D01*
X379284Y252610D01*
X379300Y252612D01*
X379315Y252614D01*
X379347Y252615D01*
X379378Y252618D01*
X379773D01*
X379805Y252615D01*
D02*
G37*
G36*
X374805D02*
X374836Y252614D01*
X374852Y252612D01*
X374868Y252610D01*
X374898Y252603D01*
X374929Y252597D01*
X375311Y252495D01*
X375340Y252484D01*
X375371Y252475D01*
X375385Y252469D01*
X375400Y252463D01*
X375427Y252448D01*
X375456Y252435D01*
X375798Y252237D01*
X375824Y252219D01*
X375851Y252203D01*
X375863Y252193D01*
X375876Y252184D01*
X375899Y252162D01*
X375923Y252142D01*
X376202Y251862D01*
X376222Y251838D01*
X376244Y251815D01*
X376253Y251803D01*
X376263Y251791D01*
X376280Y251764D01*
X376297Y251738D01*
X376495Y251396D01*
X376508Y251367D01*
X376524Y251340D01*
X376529Y251325D01*
X376535Y251310D01*
X376545Y251280D01*
X376555Y251250D01*
X376657Y250869D01*
X376663Y250838D01*
X376670Y250807D01*
X376672Y250792D01*
X376674Y250776D01*
X376675Y250745D01*
X376678Y250713D01*
Y250516D01*
Y242516D01*
X376670Y242422D01*
X376648Y242330D01*
X376612Y242243D01*
X376563Y242162D01*
X376502Y242090D01*
X376430Y242029D01*
X376349Y241980D01*
X376262Y241943D01*
X376170Y241921D01*
X376076Y241914D01*
X373076Y241914D01*
X372982Y241921D01*
X372890Y241943D01*
X372803Y241980D01*
X372722Y242029D01*
X372650Y242090D01*
X372589Y242162D01*
X372540Y242243D01*
X372504Y242330D01*
X372481Y242422D01*
X372474Y242516D01*
Y250516D01*
Y250516D01*
Y250516D01*
X372474Y250713D01*
X372477Y250745D01*
X372477Y250776D01*
X372480Y250792D01*
X372481Y250807D01*
X372489Y250838D01*
X372495Y250869D01*
X372597Y251250D01*
X372607Y251280D01*
X372616Y251310D01*
X372623Y251325D01*
X372628Y251339D01*
X372643Y251367D01*
X372657Y251396D01*
X372854Y251738D01*
X372872Y251764D01*
X372889Y251791D01*
X372899Y251802D01*
X372908Y251815D01*
X372930Y251838D01*
X372950Y251862D01*
X373229Y252142D01*
X373253Y252162D01*
X373276Y252184D01*
X373289Y252193D01*
X373301Y252203D01*
X373328Y252219D01*
X373354Y252237D01*
X373696Y252435D01*
X373724Y252448D01*
X373752Y252463D01*
X373767Y252469D01*
X373781Y252475D01*
X373812Y252484D01*
X373841Y252495D01*
X374223Y252597D01*
X374254Y252603D01*
X374284Y252610D01*
X374300Y252612D01*
X374315Y252614D01*
X374347Y252615D01*
X374378Y252618D01*
X374773D01*
X374805Y252615D01*
D02*
G37*
G36*
X369805D02*
X369836Y252614D01*
X369852Y252612D01*
X369868Y252610D01*
X369898Y252603D01*
X369929Y252597D01*
X370311Y252495D01*
X370340Y252484D01*
X370371Y252475D01*
X370385Y252469D01*
X370400Y252463D01*
X370427Y252448D01*
X370456Y252435D01*
X370798Y252237D01*
X370824Y252219D01*
X370851Y252203D01*
X370863Y252193D01*
X370876Y252184D01*
X370899Y252162D01*
X370923Y252142D01*
X371202Y251862D01*
X371222Y251838D01*
X371244Y251815D01*
X371253Y251803D01*
X371263Y251791D01*
X371280Y251764D01*
X371297Y251738D01*
X371495Y251396D01*
X371508Y251367D01*
X371524Y251340D01*
X371529Y251325D01*
X371536Y251310D01*
X371545Y251280D01*
X371555Y251250D01*
X371657Y250869D01*
X371663Y250838D01*
X371670Y250807D01*
X371672Y250792D01*
X371674Y250776D01*
X371675Y250745D01*
X371678Y250713D01*
Y250516D01*
Y242516D01*
X371670Y242422D01*
X371648Y242330D01*
X371612Y242243D01*
X371563Y242162D01*
X371502Y242090D01*
X371430Y242029D01*
X371349Y241980D01*
X371262Y241943D01*
X371170Y241921D01*
X371076Y241914D01*
X368076Y241914D01*
X367982Y241921D01*
X367890Y241943D01*
X367803Y241980D01*
X367722Y242029D01*
X367650Y242090D01*
X367589Y242162D01*
X367540Y242243D01*
X367504Y242330D01*
X367481Y242422D01*
X367474Y242516D01*
Y250516D01*
Y250516D01*
Y250516D01*
X367474Y250713D01*
X367477Y250745D01*
X367477Y250776D01*
X367480Y250792D01*
X367481Y250807D01*
X367489Y250838D01*
X367495Y250869D01*
X367597Y251250D01*
X367607Y251280D01*
X367616Y251310D01*
X367623Y251325D01*
X367628Y251339D01*
X367643Y251367D01*
X367657Y251396D01*
X367854Y251738D01*
X367872Y251764D01*
X367889Y251791D01*
X367899Y251802D01*
X367908Y251815D01*
X367930Y251838D01*
X367950Y251862D01*
X368229Y252142D01*
X368253Y252162D01*
X368276Y252184D01*
X368289Y252193D01*
X368301Y252203D01*
X368328Y252219D01*
X368354Y252237D01*
X368696Y252435D01*
X368725Y252448D01*
X368752Y252463D01*
X368767Y252469D01*
X368781Y252475D01*
X368812Y252484D01*
X368841Y252495D01*
X369223Y252597D01*
X369254Y252603D01*
X369284Y252610D01*
X369300Y252612D01*
X369315Y252614D01*
X369347Y252615D01*
X369379Y252618D01*
X369773D01*
X369805Y252615D01*
D02*
G37*
D34*
X85080Y189500D02*
D03*
Y174500D02*
D03*
Y204500D02*
D03*
X100080Y174500D02*
D03*
Y189500D02*
D03*
Y204500D02*
D03*
X70080Y174500D02*
D03*
Y204500D02*
D03*
Y189500D02*
D03*
X454750Y232628D02*
D03*
Y266228D02*
D03*
D35*
X31580Y113100D02*
D03*
X44280D02*
D03*
X56980D02*
D03*
X69680D02*
D03*
X82380D02*
D03*
X95080D02*
D03*
X107780D02*
D03*
X120480D02*
D03*
X133180D02*
D03*
X145880D02*
D03*
X158580D02*
D03*
X171280D02*
D03*
X183980D02*
D03*
X196680D02*
D03*
Y293100D02*
D03*
X183980D02*
D03*
X171280D02*
D03*
X158580D02*
D03*
X145880D02*
D03*
X133180D02*
D03*
X120480D02*
D03*
X107780D02*
D03*
X95080D02*
D03*
X82380D02*
D03*
X69680D02*
D03*
X56980D02*
D03*
X44280D02*
D03*
X31580D02*
D03*
D36*
X211680Y133250D02*
D03*
Y145950D02*
D03*
Y158650D02*
D03*
Y171350D02*
D03*
Y184050D02*
D03*
Y196750D02*
D03*
Y209450D02*
D03*
Y222150D02*
D03*
Y234850D02*
D03*
Y247550D02*
D03*
Y260250D02*
D03*
Y272950D02*
D03*
D37*
X143032Y24036D02*
D03*
Y45524D02*
D03*
X101528Y24036D02*
D03*
Y45524D02*
D03*
X143032Y354256D02*
D03*
Y375744D02*
D03*
X101528Y354256D02*
D03*
Y375744D02*
D03*
D38*
X78500Y45524D02*
D03*
Y35524D02*
D03*
X162814Y354256D02*
D03*
Y364256D02*
D03*
X196670Y315778D02*
D03*
Y325778D02*
D03*
X390576Y224016D02*
D03*
Y234016D02*
D03*
X379576Y224016D02*
D03*
Y234016D02*
D03*
X478082Y179709D02*
D03*
Y189709D02*
D03*
X498082D02*
D03*
Y179709D02*
D03*
X510314D02*
D03*
Y189709D02*
D03*
D39*
X434082Y145709D02*
D03*
Y150706D02*
D03*
Y155709D02*
D03*
Y160713D02*
D03*
Y165709D02*
D03*
X478082Y145709D02*
D03*
Y150706D02*
D03*
Y155709D02*
D03*
Y160713D02*
D03*
Y165709D02*
D03*
D40*
X346592Y161204D02*
D03*
X405571D02*
D03*
D41*
X452675Y218000D02*
D03*
X442675D02*
D03*
X367576Y328140D02*
D03*
X377576D02*
D03*
X66970Y81028D02*
D03*
X56970D02*
D03*
X34270Y91778D02*
D03*
X44270D02*
D03*
Y81028D02*
D03*
X34270D02*
D03*
Y70028D02*
D03*
X44270D02*
D03*
X204500Y92250D02*
D03*
X214500D02*
D03*
Y80500D02*
D03*
X204500D02*
D03*
X474383Y32000D02*
D03*
X464383D02*
D03*
X498082Y165709D02*
D03*
X508082D02*
D03*
X379576Y315398D02*
D03*
X389576D02*
D03*
X346314Y258266D02*
D03*
X336314D02*
D03*
X434000Y71323D02*
D03*
X444000D02*
D03*
X393000D02*
D03*
X383000D02*
D03*
X339474Y115460D02*
D03*
X329474D02*
D03*
X353912D02*
D03*
X363912D02*
D03*
X357901Y223016D02*
D03*
X367901D02*
D03*
Y212016D02*
D03*
X357901D02*
D03*
X474133Y128709D02*
D03*
X464133D02*
D03*
X357901Y234016D02*
D03*
X367901D02*
D03*
X56970Y91778D02*
D03*
X66970D02*
D03*
Y70130D02*
D03*
X56970D02*
D03*
D42*
X473176Y255228D02*
D03*
Y319228D02*
D03*
Y263228D02*
D03*
Y311228D02*
D03*
D43*
Y289728D02*
D03*
Y284728D02*
D03*
Y294728D02*
D03*
Y299728D02*
D03*
Y304728D02*
D03*
Y279728D02*
D03*
Y274728D02*
D03*
Y269728D02*
D03*
D44*
X405896Y308734D02*
D03*
X428908Y318437D02*
D03*
X405896Y328140D02*
D03*
X353896D02*
D03*
X330883Y318437D02*
D03*
X353896Y308734D02*
D03*
D45*
X369912Y86323D02*
D03*
Y71323D02*
D03*
X457582Y86323D02*
D03*
Y71323D02*
D03*
D46*
X428253Y96250D02*
D03*
X399247D02*
D03*
D47*
X442608Y16637D02*
D03*
X476208D02*
D03*
D48*
X35027Y365102D02*
D03*
Y35102D02*
D03*
X515027D02*
D03*
Y365102D02*
D03*
D49*
X520726Y244028D02*
D03*
Y330428D02*
D03*
D50*
X478926Y244028D02*
D03*
Y330428D02*
D03*
D51*
X483926Y316128D02*
D03*
Y258328D02*
D03*
M02*
