%FSTAX23Y23*%
%MOIN*%
%SFA1B1*%

%IPPOS*%
%ADD38C,0.008000*%
%LNttsb-pcb-17-13-1*%
%LPD*%
G54D38*
X01378Y00197D02*
D01*
X01383Y00202*
X01388Y00208*
X01392Y00215*
X01396Y00221*
X014Y00228*
X01403Y00235*
X01405Y00243*
X01407Y0025*
X01409Y00258*
X0141Y00266*
X0141Y00274*
X0141Y00281*
X01409Y00289*
X01408Y00297*
X01406Y00304*
X01404Y00312*
X01401Y00319*
X01398Y00326*
X01394Y00333*
X0139Y0034*
X01385Y00346*
X0138Y00352*
X01378Y00354*
X00354Y01693D02*
D01*
X00348Y01698*
X00342Y01703*
X00335Y01707*
X00329Y01711*
X00322Y01715*
X00315Y01718*
X00307Y0172*
X003Y01722*
X00292Y01724*
X00284Y01725*
X00276Y01725*
X00269Y01725*
X00261Y01724*
X00253Y01723*
X00246Y01721*
X00238Y01719*
X00231Y01716*
X00224Y01713*
X00217Y01709*
X0021Y01705*
X00204Y017*
X00198Y01695*
X00197Y01693*
X01772Y00354D02*
D01*
X01766Y00348*
X01761Y00342*
X01757Y00335*
X01753Y00329*
X01749Y00322*
X01746Y00315*
X01744Y00307*
X01742Y003*
X0174Y00292*
X01739Y00284*
X01739Y00276*
X01739Y00269*
X0174Y00261*
X01741Y00253*
X01743Y00246*
X01745Y00238*
X01748Y00231*
X01751Y00224*
X01755Y00217*
X01759Y0021*
X01764Y00204*
X01769Y00198*
X01772Y00197*
X02953Y01693D02*
D01*
X02947Y01698*
X02941Y01703*
X02934Y01707*
X02928Y01711*
X02921Y01715*
X02914Y01718*
X02906Y0172*
X02899Y01722*
X02891Y01724*
X02883Y01725*
X02875Y01725*
X02868Y01725*
X0286Y01724*
X02852Y01723*
X02845Y01721*
X02837Y01719*
X0283Y01716*
X02823Y01713*
X02816Y01709*
X02809Y01705*
X02803Y017*
X02797Y01695*
X02795Y01693*
X01378Y0437D02*
D01*
X01383Y04375*
X01388Y04381*
X01392Y04388*
X01396Y04394*
X014Y04401*
X01403Y04408*
X01405Y04416*
X01407Y04423*
X01409Y04431*
X0141Y04439*
X0141Y04447*
X0141Y04454*
X01409Y04462*
X01408Y0447*
X01406Y04477*
X01404Y04485*
X01401Y04492*
X01398Y04499*
X01394Y04506*
X0139Y04513*
X01385Y04519*
X0138Y04525*
X01378Y04528*
X01772D02*
D01*
X01766Y04522*
X01761Y04516*
X01757Y04509*
X01753Y04503*
X01749Y04496*
X01746Y04489*
X01744Y04481*
X01742Y04474*
X0174Y04466*
X01739Y04458*
X01739Y0445*
X01739Y04443*
X0174Y04435*
X01741Y04427*
X01743Y0442*
X01745Y04412*
X01748Y04405*
X01751Y04398*
X01755Y04391*
X01759Y04384*
X01764Y04378*
X01769Y04372*
X01772Y0437*
X00197Y04154D02*
D01*
X00202Y04148*
X00208Y04143*
X00215Y04139*
X00221Y04135*
X00228Y04131*
X00235Y04128*
X00243Y04126*
X0025Y04124*
X00258Y04122*
X00266Y04121*
X00274Y04121*
X00281Y04121*
X00289Y04122*
X00297Y04123*
X00304Y04125*
X00312Y04127*
X00319Y0413*
X00326Y04133*
X00333Y04137*
X0034Y04141*
X00346Y04146*
X00352Y04151*
X00354Y04154*
X02795D02*
D01*
X028Y04148*
X02806Y04143*
X02813Y04139*
X02819Y04135*
X02826Y04131*
X02833Y04128*
X02841Y04126*
X02848Y04124*
X02856Y04122*
X02864Y04121*
X02872Y04121*
X02879Y04121*
X02887Y04122*
X02895Y04123*
X02902Y04125*
X0291Y04127*
X02917Y0413*
X02924Y04133*
X02931Y04137*
X02938Y04141*
X02944Y04146*
X0295Y04151*
X02953Y04154*
X00197Y04724D02*
X02953D01*
X0Y00197D02*
Y04528D01*
X00197Y0D02*
X02953D01*
X0315Y00197D02*
Y04528D01*
X0D02*
X00197Y04724D01*
X02953D02*
X0315Y04528D01*
X02953Y0D02*
X0315Y00197D01*
X0D02*
X00197Y0D01*
X01772Y00197D02*
X02835D01*
X02953Y00315*
Y01693*
X01772Y00354D02*
X02795D01*
Y01693*
X00315Y00197D02*
X01378D01*
X00197Y00315D02*
X00315Y00197D01*
X00197Y00315D02*
Y01693D01*
X00354Y00354D02*
X01378D01*
X00354D02*
Y01693D01*
X00315Y04528D02*
X01378D01*
X00197Y04409D02*
X00315Y04528D01*
X00354Y0437D02*
X01378D01*
X01772Y04528D02*
X02835D01*
X02953Y04409*
X01772Y0437D02*
X02795D01*
X00354Y04154D02*
Y0437D01*
X00197Y04154D02*
Y04409D01*
X02795Y04154D02*
Y0437D01*
X02953Y04154D02*
Y04409D01*
M02*