M48
;Layer_Color=9474304
;FILE_FORMAT=4:4
METRIC,LZ
;TYPE=PLATED
T03F00S00C0.2032
%
T03
X00269811Y00075552
X00275081
X00359823Y00074584
X00365093
X00355Y000439
X00326017Y00121955
X00620157Y002635
X00623745Y00333377
Y00338647
X00623559Y0034845
Y0035372
X00620606Y00373495
Y00378765
X0062432Y00398364
Y00403634
X00597359Y00408065
Y00413335
X0059835Y00423383
Y00428653
X00621392Y00433356
Y00438626
X006247Y00448371
Y00453641
X00621446Y00458537
Y00463807
X00591156Y004685
X00560073Y00453561
Y00448291
X00561675Y004037
Y0039843
X0055979Y00378599
Y00373329
X00583923Y0038319
Y0038846
X0059794Y00388648
Y00383378
X00594166Y00363616
Y00358346
X00583652Y00408416
Y00413686
X00560276Y0032868
Y0032341
X00558135Y00333428
Y00338698
X00548297Y00339246
Y00344516
X00556475Y00360057
Y00365327
X00548395Y00429196
Y00434466
X00553958Y00436909
Y00442179
X00558135Y00458428
Y00463698
X00514451Y00424119
X00446734Y0036898
X00279411Y00308286
X0024428Y00239149
X00163618Y00382915
X00163703Y00391967
X0027926Y00521489
X00157274Y00392136
X00150506
X00144371Y0039202
X00148125Y00374381
X00157104Y00382915
X00155575Y00339482
X00113599Y00344652
X00115248Y0029337
X00150849Y00294194
X00072488Y00268498
X00083894Y00380742
X00049871Y00378685
Y00373415
X00379876Y00567298
X0038027Y00724157
X00375
X0039Y00724168
X0039527
X00405
X0041027
X0042
X0042527
X00496363Y00700042
X00527413
M30
