G04*
G04 #@! TF.GenerationSoftware,Altium Limited,Altium Designer,22.1.2 (22)*
G04*
G04 Layer_Physical_Order=1*
G04 Layer_Color=255*
%FSLAX44Y44*%
%MOMM*%
G71*
G04*
G04 #@! TF.SameCoordinates,621C3779-344E-472B-82C5-B66534FA8C53*
G04*
G04*
G04 #@! TF.FilePolarity,Positive*
G04*
G01*
G75*
%ADD12C,0.2540*%
%ADD16R,0.9000X0.8000*%
%ADD17R,0.8000X0.9000*%
%ADD18O,0.6000X1.9500*%
%ADD19R,0.3500X1.4000*%
%ADD20O,0.3500X1.4000*%
G04:AMPARAMS|DCode=21|XSize=2.032mm|YSize=4mm|CornerRadius=0.508mm|HoleSize=0mm|Usage=FLASHONLY|Rotation=0.000|XOffset=0mm|YOffset=0mm|HoleType=Round|Shape=RoundedRectangle|*
%AMROUNDEDRECTD21*
21,1,2.0320,2.9840,0,0,0.0*
21,1,1.0160,4.0000,0,0,0.0*
1,1,1.0160,0.5080,-1.4920*
1,1,1.0160,-0.5080,-1.4920*
1,1,1.0160,-0.5080,1.4920*
1,1,1.0160,0.5080,1.4920*
%
%ADD21ROUNDEDRECTD21*%
%ADD22R,0.8000X1.3000*%
%ADD23O,1.4000X0.3500*%
%ADD24R,1.4000X0.3500*%
%ADD25R,0.8128X0.9000*%
G04:AMPARAMS|DCode=26|XSize=2.5mm|YSize=1.5mm|CornerRadius=0.375mm|HoleSize=0mm|Usage=FLASHONLY|Rotation=270.000|XOffset=0mm|YOffset=0mm|HoleType=Round|Shape=RoundedRectangle|*
%AMROUNDEDRECTD26*
21,1,2.5000,0.7500,0,0,270.0*
21,1,1.7500,1.5000,0,0,270.0*
1,1,0.7500,-0.3750,-0.8750*
1,1,0.7500,-0.3750,0.8750*
1,1,0.7500,0.3750,0.8750*
1,1,0.7500,0.3750,-0.8750*
%
%ADD26ROUNDEDRECTD26*%
%ADD27R,1.2500X1.2200*%
%ADD28R,1.0000X0.9000*%
%ADD29R,1.2000X1.8000*%
G04:AMPARAMS|DCode=30|XSize=2.032mm|YSize=4mm|CornerRadius=0.508mm|HoleSize=0mm|Usage=FLASHONLY|Rotation=90.000|XOffset=0mm|YOffset=0mm|HoleType=Round|Shape=RoundedRectangle|*
%AMROUNDEDRECTD30*
21,1,2.0320,2.9840,0,0,90.0*
21,1,1.0160,4.0000,0,0,90.0*
1,1,1.0160,1.4920,0.5080*
1,1,1.0160,1.4920,-0.5080*
1,1,1.0160,-1.4920,-0.5080*
1,1,1.0160,-1.4920,0.5080*
%
%ADD30ROUNDEDRECTD30*%
G04:AMPARAMS|DCode=31|XSize=2.032mm|YSize=4mm|CornerRadius=0.508mm|HoleSize=0mm|Usage=FLASHONLY|Rotation=90.000|XOffset=0mm|YOffset=0mm|HoleType=Round|Shape=RoundedRectangle|*
%AMROUNDEDRECTD31*
21,1,2.0320,2.9840,0,0,90.0*
21,1,1.0160,4.0000,0,0,90.0*
1,1,1.0160,1.4920,0.5080*
1,1,1.0160,1.4920,-0.5080*
1,1,1.0160,-1.4920,-0.5080*
1,1,1.0160,-1.4920,0.5080*
%
%ADD31ROUNDEDRECTD31*%
%ADD32R,1.3000X0.8000*%
%ADD33R,1.3000X1.0000*%
%ADD34R,1.8000X1.2000*%
%ADD35R,1.0414X1.1430*%
%ADD36R,1.7500X2.3000*%
%ADD37R,0.6000X1.1000*%
%ADD38O,0.6000X1.1000*%
%ADD39R,2.0000X0.6000*%
%ADD40O,2.0000X0.6000*%
%ADD41R,1.0000X1.3000*%
%ADD73C,0.7620*%
%ADD74C,0.5080*%
%ADD75C,1.0160*%
%ADD76C,0.6350*%
%ADD77C,0.3810*%
%ADD78C,1.6510*%
%ADD79R,1.6510X1.6510*%
%ADD80C,1.0000*%
%ADD81R,1.0000X1.0000*%
%ADD82C,6.0000*%
G36*
X169494Y219167D02*
X168379Y218705D01*
X164121Y216247D01*
X160222Y213255D01*
X156746Y209778D01*
X153753Y205879D01*
X151295Y201621D01*
X149414Y197080D01*
X148142Y192332D01*
X147500Y187458D01*
Y182542D01*
X148142Y177668D01*
X149414Y172920D01*
X151295Y168379D01*
X153753Y164121D01*
X156746Y160222D01*
X160222Y156746D01*
X164121Y153753D01*
X168379Y151295D01*
X172920Y149414D01*
X177668Y148142D01*
X182542Y147500D01*
X187458D01*
X192332Y148142D01*
X197080Y149414D01*
X201621Y151295D01*
X205879Y153753D01*
X209778Y156746D01*
X213255Y160222D01*
X216247Y164121D01*
X218705Y168379D01*
X219167Y169494D01*
X220413Y169247D01*
Y151320D01*
X215392D01*
Y144780D01*
Y138240D01*
X220413D01*
Y134805D01*
X220400Y133540D01*
X219143Y133540D01*
X207844D01*
Y132165D01*
X201976D01*
Y140862D01*
X201605Y142726D01*
X200549Y144307D01*
X198968Y145363D01*
X197104Y145734D01*
X195240Y145363D01*
X193659Y144307D01*
X192603Y142726D01*
X192232Y140862D01*
Y127362D01*
X192603Y125498D01*
X193659Y123917D01*
X195240Y122861D01*
X197104Y122490D01*
X198968Y122861D01*
X199714Y123359D01*
X207844D01*
Y121984D01*
X207844D01*
Y120840D01*
X207844D01*
Y119465D01*
X198223D01*
X197456Y120232D01*
X195910Y121124D01*
X194186Y121586D01*
X192402D01*
X190678Y121124D01*
X189132Y120232D01*
X188782Y119881D01*
X187512Y120407D01*
Y123692D01*
X187849Y123917D01*
X188905Y125498D01*
X189276Y127362D01*
Y140862D01*
X188905Y142726D01*
X187849Y144307D01*
X186268Y145363D01*
X184404Y145734D01*
X182540Y145363D01*
X180959Y144307D01*
X179903Y142726D01*
X179532Y140862D01*
Y127362D01*
X179903Y125498D01*
X180959Y123917D01*
X181296Y123692D01*
Y117522D01*
X181226D01*
X179752Y117127D01*
X179354Y117158D01*
X178316Y117842D01*
X178020Y118948D01*
X177128Y120494D01*
X175866Y121756D01*
X174812Y122364D01*
Y123692D01*
X175149Y123917D01*
X176205Y125498D01*
X176576Y127362D01*
Y140862D01*
X176205Y142726D01*
X175149Y144307D01*
X173568Y145363D01*
X171704Y145734D01*
X169840Y145363D01*
X168259Y144307D01*
X167203Y142726D01*
X166832Y140862D01*
Y127362D01*
X167203Y125498D01*
X168259Y123917D01*
X168596Y123692D01*
Y122364D01*
X167542Y121756D01*
X166280Y120494D01*
X166087Y120160D01*
X164621D01*
X164428Y120494D01*
X163166Y121756D01*
X162112Y122364D01*
Y123692D01*
X162449Y123917D01*
X163505Y125498D01*
X163876Y127362D01*
Y140862D01*
X163505Y142726D01*
X162449Y144307D01*
X160868Y145363D01*
X159004Y145734D01*
X158462Y145626D01*
X157480Y146431D01*
Y157662D01*
X148485D01*
X146872Y159275D01*
Y172212D01*
X146635Y173401D01*
X145962Y174410D01*
X141406Y178965D01*
Y184340D01*
X137982D01*
Y188286D01*
X140906D01*
Y200842D01*
X130362D01*
Y207187D01*
X130125Y208376D01*
X129452Y209384D01*
X122516Y216320D01*
X121508Y216993D01*
X120319Y217230D01*
X34290D01*
X33101Y216993D01*
X32092Y216320D01*
X26021Y210248D01*
X18360D01*
Y198692D01*
X30916D01*
Y206353D01*
X35577Y211014D01*
X81437D01*
X82116Y209744D01*
X81467Y208773D01*
X81038Y206616D01*
Y189116D01*
X81467Y186959D01*
X82689Y185131D01*
X84517Y183909D01*
X86674Y183480D01*
X87316D01*
Y173124D01*
X86895Y172784D01*
X86046Y172335D01*
X85090Y172526D01*
X74771D01*
X74381Y174483D01*
X73159Y176311D01*
X71331Y177533D01*
X69174Y177962D01*
X61674D01*
X59517Y177533D01*
X57689Y176311D01*
X56467Y174483D01*
X56038Y172326D01*
Y154826D01*
X56467Y152669D01*
X57689Y150841D01*
X59067Y149920D01*
X58681Y148650D01*
X55897D01*
X53014Y151533D01*
Y160464D01*
X40458D01*
Y159595D01*
X39188Y159009D01*
X38074Y159652D01*
X36350Y160114D01*
X34566D01*
X32842Y159652D01*
X31788Y159044D01*
X30518Y159673D01*
Y162521D01*
X36593Y168596D01*
X40458D01*
Y165926D01*
X53014D01*
Y177482D01*
X53014D01*
Y178626D01*
X53014D01*
Y190182D01*
X40458D01*
Y178626D01*
X40458D01*
Y177482D01*
X40458D01*
Y174812D01*
X35306D01*
X34117Y174575D01*
X33108Y173902D01*
X25213Y166005D01*
X24539Y164997D01*
X24302Y163808D01*
Y154868D01*
X21336D01*
Y147828D01*
X20066D01*
Y146558D01*
X13526D01*
Y140788D01*
Y137668D01*
X20066D01*
Y136398D01*
X21336D01*
Y129358D01*
X24302D01*
Y126741D01*
X11055Y113494D01*
X9103D01*
X8763Y114764D01*
X10004Y115480D01*
X11266Y116742D01*
X12158Y118288D01*
X12620Y120012D01*
Y121796D01*
X12158Y123520D01*
X11266Y125066D01*
X10004Y126328D01*
X8458Y127220D01*
X6734Y127682D01*
X4950D01*
X3226Y127220D01*
X1968Y126494D01*
X554D01*
Y126914D01*
X-4004D01*
Y128342D01*
X-1334D01*
Y140898D01*
X-334Y141550D01*
X8826D01*
Y152472D01*
X13526D01*
Y149098D01*
X18796D01*
Y154868D01*
X13906D01*
Y158242D01*
X7366D01*
X826D01*
Y154106D01*
X-2730D01*
Y154106D01*
X-3874Y154410D01*
Y165790D01*
X-3874D01*
Y165934D01*
X-3874D01*
Y178490D01*
X-5249D01*
Y180065D01*
X-2667D01*
Y195051D01*
X-16637D01*
Y180065D01*
X-14055D01*
Y178490D01*
X-15430D01*
Y167127D01*
X-16360Y166306D01*
X-16546Y166306D01*
X-32916D01*
X-33202Y167458D01*
Y169482D01*
X-32076D01*
Y181038D01*
X-44632D01*
Y179294D01*
X-47602D01*
Y183054D01*
X-64158D01*
Y179400D01*
X-80920D01*
X-82288Y179128D01*
X-90010D01*
Y172402D01*
X-93995Y168417D01*
X-95090Y166779D01*
X-95474Y164846D01*
Y145794D01*
X-96744Y145409D01*
X-96809Y145507D01*
X-104175Y152873D01*
X-105554Y153794D01*
Y156622D01*
X-116616D01*
Y167894D01*
X-117000Y169827D01*
X-118095Y171465D01*
X-124551Y177921D01*
X-126189Y179016D01*
X-128122Y179400D01*
X-134874D01*
X-135771Y179222D01*
X-141874D01*
X-143738Y178851D01*
X-145319Y177795D01*
X-146375Y176214D01*
X-146746Y174350D01*
X-146375Y172486D01*
X-145319Y170905D01*
X-143738Y169849D01*
X-141874Y169478D01*
X-135771D01*
X-134874Y169300D01*
X-130214D01*
X-126716Y165802D01*
Y156622D01*
X-127110D01*
Y141066D01*
X-108483D01*
X-106536Y139118D01*
Y128384D01*
X-115062D01*
Y119844D01*
Y111304D01*
X-106536D01*
Y109370D01*
X-106616D01*
Y106986D01*
X-107886Y106252D01*
X-108128Y106392D01*
X-109852Y106854D01*
X-111636D01*
X-113360Y106392D01*
X-114432Y105773D01*
X-134760D01*
Y113788D01*
X-155816D01*
Y105604D01*
X-163664D01*
X-163818Y106777D01*
X-164510Y108445D01*
X-165609Y109878D01*
X-167041Y110977D01*
X-168710Y111668D01*
X-170500Y111904D01*
X-200340D01*
X-202130Y111668D01*
X-203799Y110977D01*
X-205231Y109878D01*
X-206330Y108445D01*
X-207022Y106777D01*
X-207257Y104986D01*
Y94826D01*
X-207022Y93036D01*
X-206330Y91368D01*
X-205231Y89935D01*
X-203799Y88836D01*
X-202130Y88145D01*
X-200340Y87909D01*
X-170500D01*
X-168710Y88145D01*
X-167041Y88836D01*
X-165609Y89935D01*
X-164510Y91368D01*
X-163818Y93036D01*
X-163664Y94209D01*
X-155816D01*
Y87232D01*
X-134760D01*
Y94378D01*
X-114432D01*
X-113360Y93760D01*
X-111636Y93298D01*
X-109852D01*
X-108128Y93760D01*
X-107886Y93899D01*
X-106616Y93166D01*
Y92814D01*
X-106536D01*
Y67371D01*
X-107806Y66845D01*
X-108106Y67146D01*
X-109652Y68038D01*
X-111376Y68500D01*
X-113160D01*
X-114884Y68038D01*
X-116430Y67146D01*
X-117451Y66125D01*
X-150576D01*
X-159108Y74656D01*
X-160536Y75611D01*
X-162221Y75946D01*
X-163583D01*
Y76623D01*
X-163818Y78414D01*
X-164510Y80082D01*
X-165609Y81514D01*
X-167041Y82614D01*
X-168710Y83305D01*
X-170500Y83540D01*
X-200340D01*
X-202130Y83305D01*
X-203799Y82614D01*
X-205231Y81514D01*
X-206330Y80082D01*
X-207022Y78414D01*
X-207257Y76623D01*
Y66463D01*
X-207022Y64673D01*
X-206330Y63005D01*
X-205231Y61572D01*
X-203799Y60473D01*
X-202130Y59782D01*
X-200340Y59546D01*
X-170500D01*
X-168710Y59782D01*
X-167041Y60473D01*
X-165609Y61572D01*
X-164510Y63005D01*
X-163818Y64673D01*
X-163767Y65066D01*
X-162426Y65522D01*
X-155513Y58609D01*
X-154085Y57655D01*
X-152400Y57319D01*
X-152400Y57319D01*
X-117451D01*
X-116430Y56298D01*
X-116018Y56061D01*
Y54791D01*
X-116176Y54700D01*
X-117197Y53679D01*
X-155956D01*
X-157641Y53344D01*
X-159069Y52389D01*
X-162406Y49052D01*
X-163747Y49507D01*
X-163818Y50050D01*
X-164510Y51719D01*
X-165609Y53151D01*
X-167041Y54250D01*
X-168710Y54941D01*
X-170500Y55177D01*
X-200340D01*
X-202130Y54941D01*
X-203799Y54250D01*
X-205231Y53151D01*
X-206330Y51719D01*
X-207022Y50050D01*
X-207257Y48260D01*
Y38100D01*
X-207022Y36310D01*
X-206330Y34641D01*
X-205231Y33209D01*
X-203799Y32109D01*
X-202130Y31418D01*
X-200340Y31183D01*
X-170500D01*
X-168710Y31418D01*
X-167041Y32109D01*
X-165609Y33209D01*
X-164510Y34641D01*
X-163818Y36310D01*
X-163583Y38100D01*
Y38777D01*
X-162052D01*
X-160367Y39113D01*
X-158939Y40067D01*
X-154132Y44873D01*
X-117197D01*
X-116176Y43852D01*
X-114630Y42960D01*
X-112906Y42498D01*
X-111122D01*
X-109398Y42960D01*
X-107852Y43852D01*
X-107806Y43899D01*
X-106536Y43373D01*
Y37158D01*
X-121275Y22419D01*
X-122510Y20570D01*
X-122943Y18390D01*
Y15430D01*
X-125524D01*
Y4936D01*
X-126900D01*
Y15430D01*
X-126900Y15430D01*
X-126437Y16508D01*
X-125582Y17623D01*
X-124890Y19292D01*
X-124655Y21082D01*
X-124890Y22872D01*
X-125582Y24541D01*
X-126681Y25973D01*
X-128113Y27073D01*
X-129782Y27764D01*
X-131572Y27999D01*
X-139192D01*
X-140982Y27764D01*
X-142651Y27073D01*
X-144083Y25973D01*
X-145183Y24541D01*
X-145873Y22872D01*
X-146109Y21082D01*
X-145873Y19292D01*
X-145183Y17623D01*
X-144083Y16191D01*
X-144083Y16190D01*
X-144057Y16169D01*
X-144057Y16169D01*
X-144057Y16169D01*
X-143827Y15886D01*
X-144229Y14702D01*
X-147588D01*
Y15430D01*
X-160144D01*
Y14702D01*
X-163583D01*
Y19897D01*
X-163818Y21687D01*
X-164510Y23355D01*
X-165609Y24788D01*
X-167041Y25887D01*
X-168710Y26578D01*
X-170500Y26814D01*
X-200340D01*
X-202130Y26578D01*
X-203799Y25887D01*
X-205231Y24788D01*
X-206330Y23355D01*
X-207022Y21687D01*
X-207257Y19897D01*
Y9737D01*
X-207022Y7946D01*
X-206330Y6278D01*
X-205231Y4845D01*
X-203799Y3746D01*
X-202130Y3055D01*
X-200340Y2819D01*
X-170500D01*
X-168710Y3055D01*
X-167041Y3746D01*
X-165926Y4602D01*
X-160144D01*
Y3874D01*
X-147588D01*
Y4602D01*
X-143456D01*
Y-6540D01*
X-126900D01*
Y-6460D01*
X-125524D01*
Y-6540D01*
X-109014D01*
X-108968Y-6540D01*
Y-6540D01*
X-107744D01*
Y-6540D01*
X-107698Y-6540D01*
X-98121D01*
X-96866Y-6790D01*
X-94790Y-8176D01*
X-93472Y-10149D01*
X-93180Y-11374D01*
D01*
X-92922Y-12585D01*
X-92116Y-18018D01*
X-89882Y-26934D01*
X-86786Y-35589D01*
X-82856Y-43898D01*
X-78131Y-51782D01*
X-72655Y-59164D01*
X-66483Y-65975D01*
X-59672Y-72147D01*
X-52290Y-77623D01*
X-51272Y-78233D01*
X-51299Y-78279D01*
X-50378Y-78771D01*
X-48116Y-80628D01*
X-46259Y-82891D01*
X-44879Y-85472D01*
X-44029Y-88273D01*
X-43770Y-90904D01*
X-43797Y-91040D01*
Y-93216D01*
X-44007Y-93425D01*
X-45607Y-93301D01*
X-49457Y-89451D01*
X-51095Y-88356D01*
X-53028Y-87972D01*
X-56968D01*
Y-87244D01*
X-69524D01*
X-70458Y-86433D01*
Y-85086D01*
X-73436D01*
Y-71374D01*
X-73820Y-69441D01*
X-74915Y-67803D01*
X-99329Y-43389D01*
X-100967Y-42295D01*
X-102900Y-41910D01*
X-117088D01*
Y-31132D01*
X-132644D01*
Y-52688D01*
X-117088D01*
Y-52010D01*
X-104992D01*
X-83536Y-73466D01*
Y-85086D01*
X-86514D01*
Y-100842D01*
X-70458D01*
Y-99611D01*
X-69524Y-98800D01*
X-56968D01*
X-55956Y-99423D01*
Y-102334D01*
X-56206Y-103500D01*
X-57226Y-103500D01*
X-61976D01*
Y-108770D01*
X-56206D01*
Y-107984D01*
X-55956Y-106818D01*
X-54936Y-106818D01*
X-43797D01*
Y-127448D01*
X-44007Y-127657D01*
X-45607Y-127533D01*
X-49457Y-123683D01*
X-51095Y-122588D01*
X-53028Y-122204D01*
X-56968D01*
Y-121476D01*
X-69524D01*
X-70458Y-120665D01*
Y-119376D01*
X-73436D01*
Y-118364D01*
X-73820Y-116431D01*
X-74915Y-114793D01*
X-90454Y-99254D01*
Y-73914D01*
X-90838Y-71981D01*
X-91933Y-70343D01*
X-98791Y-63485D01*
X-100429Y-62390D01*
X-102362Y-62006D01*
X-117088D01*
Y-59834D01*
X-132644D01*
Y-81390D01*
X-117088D01*
Y-72106D01*
X-104454D01*
X-100554Y-76006D01*
Y-84324D01*
X-106716D01*
Y-92964D01*
Y-101604D01*
X-100503D01*
X-100170Y-103279D01*
X-99075Y-104917D01*
X-85789Y-118203D01*
X-86275Y-119376D01*
X-86514D01*
Y-135132D01*
X-70458D01*
Y-133843D01*
X-69524Y-133032D01*
X-56968D01*
X-55956Y-133655D01*
Y-136566D01*
X-56206Y-137732D01*
X-57226Y-137732D01*
X-61976D01*
Y-143002D01*
X-56206D01*
Y-142216D01*
X-55956Y-141050D01*
X-54936Y-141050D01*
X-43797D01*
Y-162050D01*
X-44007Y-162259D01*
X-45607Y-162135D01*
X-49457Y-158285D01*
X-51095Y-157190D01*
X-53028Y-156806D01*
X-56968D01*
Y-156020D01*
X-69524D01*
X-70458Y-155209D01*
Y-153920D01*
X-73436D01*
Y-152146D01*
X-73820Y-150213D01*
X-74915Y-148575D01*
X-91216Y-132274D01*
Y-118872D01*
X-91600Y-116939D01*
X-92695Y-115301D01*
X-102123Y-105873D01*
X-103761Y-104778D01*
X-105694Y-104394D01*
X-111967D01*
X-113583Y-102777D01*
X-113097Y-101604D01*
X-109256D01*
Y-92964D01*
Y-84324D01*
X-116776D01*
Y-86718D01*
X-117088Y-87859D01*
X-132644D01*
Y-109415D01*
X-121230D01*
X-117630Y-113015D01*
X-115991Y-114110D01*
X-114059Y-114494D01*
X-107786D01*
X-104839Y-117441D01*
X-105325Y-118614D01*
X-106716D01*
Y-127254D01*
Y-135894D01*
X-101012D01*
X-100932Y-136299D01*
X-99837Y-137937D01*
X-85027Y-152747D01*
X-85513Y-153920D01*
X-86514D01*
Y-169676D01*
X-70458D01*
Y-168387D01*
X-69524Y-167576D01*
X-56968D01*
X-55956Y-168199D01*
Y-171110D01*
X-56206Y-172276D01*
X-57226Y-172276D01*
X-61976D01*
Y-177546D01*
X-56206D01*
Y-176818D01*
X-55956Y-175652D01*
X-54936Y-175652D01*
X-43797D01*
Y-189484D01*
X-43364Y-191664D01*
X-42129Y-193513D01*
X-37151Y-198491D01*
X-35302Y-199726D01*
X-33956Y-199994D01*
Y-200740D01*
X-20400D01*
Y-200740D01*
X-19232Y-200986D01*
Y-202222D01*
X-6786D01*
X-6676Y-202222D01*
X-5516D01*
X-5406Y-202222D01*
X7040D01*
X7700Y-203219D01*
Y-206687D01*
X7040Y-207684D01*
X6430Y-207684D01*
X-5516D01*
Y-207684D01*
X-6676D01*
Y-207684D01*
X-19232D01*
Y-207684D01*
X-20400Y-207438D01*
Y-207184D01*
X-33956D01*
Y-219143D01*
X-33956Y-219740D01*
X-34947Y-220413D01*
X-55106D01*
X-56206Y-220002D01*
X-56206Y-219143D01*
Y-214732D01*
X-63246D01*
X-70286D01*
X-70286Y-220002D01*
X-71386Y-220413D01*
X-169247D01*
X-169494Y-219167D01*
X-168379Y-218705D01*
X-164121Y-216247D01*
X-160222Y-213255D01*
X-156746Y-209778D01*
X-153753Y-205879D01*
X-151295Y-201621D01*
X-149414Y-197080D01*
X-148142Y-192332D01*
X-147500Y-187458D01*
Y-182542D01*
X-148142Y-177668D01*
X-149414Y-172920D01*
X-151295Y-168379D01*
X-153753Y-164121D01*
X-156746Y-160222D01*
X-160222Y-156746D01*
X-164121Y-153753D01*
X-168379Y-151295D01*
X-172920Y-149414D01*
X-177668Y-148142D01*
X-182542Y-147500D01*
X-187458D01*
X-192332Y-148142D01*
X-197080Y-149414D01*
X-201621Y-151295D01*
X-205879Y-153753D01*
X-209778Y-156746D01*
X-213255Y-160222D01*
X-216247Y-164121D01*
X-218705Y-168379D01*
X-219167Y-169494D01*
X-220413Y-169247D01*
Y169247D01*
X-219167Y169494D01*
X-218705Y168379D01*
X-216247Y164121D01*
X-213255Y160222D01*
X-209778Y156746D01*
X-205879Y153753D01*
X-201621Y151295D01*
X-197080Y149414D01*
X-192332Y148142D01*
X-187458Y147500D01*
X-182542D01*
X-177668Y148142D01*
X-172920Y149414D01*
X-168379Y151295D01*
X-164121Y153753D01*
X-160222Y156746D01*
X-156746Y160222D01*
X-153753Y164121D01*
X-151295Y168379D01*
X-149414Y172920D01*
X-148142Y177668D01*
X-147500Y182542D01*
Y183212D01*
X-146230Y183597D01*
X-145868Y183056D01*
X-144036Y181831D01*
X-141874Y181401D01*
X-136144D01*
Y187050D01*
Y192698D01*
X-141874D01*
X-144036Y192269D01*
X-145868Y191044D01*
X-146556Y190015D01*
X-147877Y190323D01*
X-148142Y192332D01*
X-149414Y197080D01*
X-151295Y201621D01*
X-153753Y205879D01*
X-156746Y209778D01*
X-160222Y213255D01*
X-164121Y216247D01*
X-168379Y218705D01*
X-169494Y219167D01*
X-169247Y220413D01*
X-7747D01*
Y213720D01*
X7747D01*
Y220413D01*
X169247D01*
X169494Y219167D01*
D02*
G37*
G36*
X-62302Y160528D02*
X-62124Y159631D01*
Y158028D01*
X-61753Y156164D01*
X-60697Y154583D01*
X-59116Y153527D01*
X-57252Y153156D01*
X-55388Y153527D01*
X-53807Y154583D01*
X-53595Y154901D01*
X-52325D01*
X-51746Y154034D01*
X-49914Y152809D01*
X-49022Y152632D01*
Y160528D01*
X-46482D01*
Y152632D01*
X-45590Y152809D01*
X-44300Y153672D01*
X-43030Y153250D01*
Y153250D01*
X-35366D01*
X-34840Y151980D01*
X-41365Y145455D01*
X-42319Y144027D01*
X-42655Y142342D01*
Y137039D01*
X-42753Y136892D01*
X-43124Y135028D01*
Y130028D01*
X-42753Y128164D01*
X-42503Y127789D01*
Y125150D01*
X-44894D01*
Y112594D01*
X-45986Y112164D01*
X-49264D01*
X-50356Y112594D01*
X-50356Y113434D01*
Y125150D01*
X-54144D01*
Y126358D01*
X-53807Y126583D01*
X-52751Y128164D01*
X-52380Y130028D01*
Y135028D01*
X-52751Y136892D01*
X-53807Y138473D01*
X-55388Y139529D01*
X-57252Y139900D01*
X-59116Y139529D01*
X-60697Y138473D01*
X-61753Y136892D01*
X-62124Y135028D01*
Y130028D01*
X-61753Y128164D01*
X-60697Y126583D01*
X-60360Y126358D01*
Y125150D01*
X-61912D01*
Y121726D01*
X-67128D01*
Y124396D01*
X-79684D01*
Y112840D01*
X-79168D01*
Y105156D01*
X-64088D01*
Y112926D01*
X-67128D01*
Y115510D01*
X-61912D01*
Y112594D01*
X-57908D01*
X-56816Y112164D01*
X-56816Y111324D01*
Y104943D01*
X-56955Y103886D01*
X-56816Y102829D01*
Y95608D01*
X-58013Y95432D01*
X-58102D01*
Y82876D01*
X-46546D01*
Y95432D01*
X-45349Y95608D01*
X-44176D01*
X-44007Y95439D01*
X-43161Y94790D01*
X-43024Y94652D01*
X-42856Y94555D01*
X-42575Y94340D01*
X-42247Y94204D01*
X-41478Y93760D01*
X-39754Y93298D01*
X-37970D01*
X-36246Y93760D01*
X-34700Y94652D01*
X-33438Y95914D01*
X-32546Y97460D01*
X-32084Y99184D01*
Y100968D01*
X-32199Y101397D01*
Y107442D01*
X-32434Y109232D01*
X-33126Y110901D01*
X-33450Y111324D01*
X-33338Y112594D01*
X-33338Y112594D01*
X-33338Y112594D01*
Y125150D01*
X-33697D01*
Y128434D01*
X-33380Y130028D01*
Y135028D01*
X-33751Y136892D01*
X-33849Y137039D01*
Y140518D01*
X-30032Y144336D01*
X-20468D01*
X-19982Y143163D01*
X-22247Y140898D01*
X-29908D01*
Y128342D01*
X-27192D01*
Y118808D01*
X-29392D01*
Y107252D01*
X-17912D01*
X-17233Y105982D01*
X-17515Y105560D01*
X-17595Y105156D01*
X1147D01*
X1067Y105560D01*
X768Y106008D01*
X1446Y107278D01*
X12342D01*
X13531Y107515D01*
X14540Y108188D01*
X29607Y123257D01*
X30281Y124265D01*
X30518Y125454D01*
Y129177D01*
X31306Y130120D01*
X44136D01*
Y126983D01*
X44026D01*
X42649Y126709D01*
X41483Y125930D01*
X40703Y124763D01*
X40429Y123386D01*
X40460Y123229D01*
X39310Y122501D01*
X38176Y123156D01*
X36452Y123618D01*
X34668D01*
X32944Y123156D01*
X31398Y122264D01*
X30136Y121002D01*
X29244Y119456D01*
X28782Y117732D01*
Y115948D01*
X29244Y114224D01*
X30136Y112678D01*
X31398Y111416D01*
X32944Y110524D01*
X34668Y110062D01*
X36452D01*
X38176Y110524D01*
X39289Y111166D01*
X40436Y110419D01*
X40429Y110386D01*
X40703Y109010D01*
X41483Y107843D01*
X41589Y107771D01*
Y106501D01*
X41483Y106430D01*
X40703Y105263D01*
X40429Y103886D01*
X40703Y102509D01*
X41483Y101342D01*
X42649Y100563D01*
X44026Y100289D01*
X52010D01*
Y96448D01*
X41084D01*
Y98448D01*
X31432D01*
Y99210D01*
X26162D01*
Y90170D01*
X23622D01*
Y99210D01*
X18542D01*
Y90170D01*
X16002D01*
Y99210D01*
X10732D01*
Y98448D01*
X1080D01*
Y93278D01*
X-4809D01*
X-9740Y98209D01*
X-9789Y98242D01*
X-9494Y99215D01*
Y102616D01*
X-18019D01*
X-18644Y101790D01*
X-29392D01*
Y90234D01*
X-16836D01*
Y92904D01*
X-13225D01*
X-8293Y87972D01*
X-7285Y87299D01*
X-6096Y87062D01*
X1080D01*
Y84016D01*
X160Y83140D01*
X0Y83148D01*
X-8150Y82748D01*
X-16221Y81551D01*
X-24137Y79568D01*
X-31819Y76819D01*
X-39196Y73330D01*
X-46195Y69135D01*
X-52749Y64274D01*
X-58795Y58795D01*
X-64274Y52749D01*
X-69135Y46195D01*
X-73330Y39196D01*
X-76819Y31819D01*
X-79568Y24137D01*
X-81551Y16221D01*
X-82748Y8150D01*
X-83148Y0D01*
X-82988Y-3262D01*
X-84242Y-3609D01*
X-84628Y-2887D01*
X-86825Y-211D01*
X-89501Y1986D01*
X-91188Y2887D01*
Y15430D01*
X-94416D01*
Y19346D01*
X-86853Y26909D01*
X-85758Y28547D01*
X-85374Y30480D01*
Y92814D01*
X-84646D01*
Y109370D01*
X-85374D01*
Y162754D01*
X-81619Y166509D01*
X-80446Y166023D01*
Y165100D01*
X-73406D01*
X-66366D01*
Y169300D01*
X-62302D01*
Y160528D01*
D02*
G37*
G36*
X124146Y205900D02*
Y202005D01*
X123888Y200842D01*
X112332D01*
Y188286D01*
X112367D01*
X113101Y187016D01*
X112810Y186512D01*
X112348Y184788D01*
Y183004D01*
X112810Y181280D01*
X113544Y180009D01*
X113071Y178739D01*
X111674D01*
X109220Y178251D01*
X107139Y176861D01*
X105749Y174780D01*
X105261Y172326D01*
Y164846D01*
X115424D01*
Y163576D01*
X116694D01*
Y148413D01*
X119174D01*
X121628Y148901D01*
X122876Y149735D01*
X124146Y149056D01*
Y145789D01*
X123026Y145190D01*
X122768Y145363D01*
X120904Y145734D01*
X119040Y145363D01*
X117459Y144307D01*
X116403Y142726D01*
X116032Y140862D01*
Y127362D01*
X116403Y125498D01*
X117459Y123917D01*
X119040Y122861D01*
X120904Y122490D01*
X122768Y122861D01*
X123026Y123034D01*
X124146Y122435D01*
Y114046D01*
X124383Y112857D01*
X125056Y111848D01*
X134560Y102345D01*
Y59555D01*
X134797Y58366D01*
X135471Y57358D01*
X141686Y51143D01*
X141908Y50994D01*
X142680Y50436D01*
X142231Y49367D01*
X141803Y48726D01*
X141432Y46862D01*
Y33362D01*
X141803Y31498D01*
X142859Y29917D01*
X143196Y29692D01*
Y22623D01*
X141969Y21396D01*
X132334D01*
X131145Y21159D01*
X130136Y20485D01*
X127088Y17437D01*
X126415Y16429D01*
X126178Y15240D01*
Y-13208D01*
X126415Y-14397D01*
X127088Y-15405D01*
X128362Y-16679D01*
X127876Y-17852D01*
X120460D01*
Y-29335D01*
X120346Y-30422D01*
X119250Y-30552D01*
X115760D01*
Y-25400D01*
X102680D01*
Y-28512D01*
X101854D01*
Y-35052D01*
Y-41592D01*
X107624D01*
Y-41592D01*
X108776Y-41877D01*
Y-43108D01*
X111045D01*
X111431Y-44378D01*
X111202Y-44531D01*
X110423Y-45697D01*
X110149Y-47074D01*
Y-49216D01*
X106862D01*
Y-46292D01*
X94306D01*
Y-46292D01*
X94162D01*
Y-46292D01*
X81606D01*
X81606Y-46292D01*
Y-46292D01*
X80370Y-46211D01*
X79578Y-45754D01*
X77854Y-45292D01*
X76070D01*
X74346Y-45754D01*
X72800Y-46646D01*
X71538Y-47908D01*
X70646Y-49454D01*
X70184Y-51178D01*
Y-52962D01*
X70646Y-54686D01*
X71538Y-56232D01*
X72800Y-57494D01*
X74346Y-58386D01*
X76070Y-58848D01*
X77854D01*
X79578Y-58386D01*
X80370Y-57929D01*
X81606Y-57848D01*
X81606Y-57848D01*
X81606Y-57848D01*
X94162D01*
Y-57848D01*
X94306D01*
Y-57848D01*
X106862D01*
Y-55432D01*
X110149D01*
Y-57574D01*
X110423Y-58951D01*
X111202Y-60118D01*
X112369Y-60897D01*
X113746Y-61171D01*
X115122Y-60897D01*
X115868Y-60399D01*
X117134Y-60957D01*
X117138Y-60962D01*
Y-68713D01*
X114879Y-70972D01*
X92544D01*
X91355Y-71209D01*
X90347Y-71882D01*
X88226Y-74002D01*
X87559Y-75002D01*
X83312D01*
Y-82042D01*
Y-89082D01*
X87316D01*
Y-156601D01*
X87322Y-156631D01*
X87317Y-156662D01*
X87440Y-157225D01*
X87553Y-157790D01*
X87570Y-157816D01*
X87577Y-157846D01*
X87907Y-158320D01*
X88226Y-158798D01*
X88252Y-158815D01*
X88270Y-158841D01*
X93360Y-163735D01*
X93380Y-164928D01*
X92456Y-165869D01*
X91948D01*
X90158Y-166105D01*
X88489Y-166796D01*
X87057Y-167895D01*
X85957Y-169327D01*
X85267Y-170996D01*
X85031Y-172786D01*
Y-202626D01*
X85267Y-204416D01*
X85957Y-206085D01*
X87057Y-207517D01*
X88489Y-208616D01*
X90158Y-209307D01*
X91948Y-209543D01*
X102108D01*
X103898Y-209307D01*
X105567Y-208616D01*
X106999Y-207517D01*
X108098Y-206085D01*
X108790Y-204416D01*
X109025Y-202626D01*
Y-172786D01*
X108790Y-170996D01*
X108098Y-169327D01*
X106999Y-167895D01*
X105567Y-166796D01*
X103898Y-166105D01*
X102108Y-165869D01*
X99708D01*
X99640Y-162414D01*
X99381Y-161230D01*
X98687Y-160235D01*
X93532Y-155278D01*
Y-117538D01*
X105338D01*
Y-114360D01*
X110218D01*
Y-118602D01*
X110638D01*
Y-151084D01*
X110875Y-152273D01*
X111549Y-153281D01*
X122114Y-163847D01*
Y-165869D01*
X120142D01*
X118352Y-166105D01*
X116683Y-166796D01*
X115251Y-167895D01*
X114151Y-169327D01*
X113461Y-170996D01*
X113225Y-172786D01*
Y-202626D01*
X113461Y-204416D01*
X114151Y-206085D01*
X115251Y-207517D01*
X116683Y-208616D01*
X118352Y-209307D01*
X120142Y-209543D01*
X130302D01*
X132092Y-209307D01*
X133761Y-208616D01*
X135193Y-207517D01*
X136292Y-206085D01*
X136983Y-204416D01*
X137219Y-202626D01*
Y-172786D01*
X136983Y-170996D01*
X136292Y-169327D01*
X135193Y-167895D01*
X133761Y-166796D01*
X132092Y-166105D01*
X130302Y-165869D01*
X128330D01*
Y-162560D01*
X128093Y-161371D01*
X127420Y-160362D01*
X116854Y-149797D01*
Y-119698D01*
X117274Y-118602D01*
X118544Y-118180D01*
X118869Y-118397D01*
X120246Y-118671D01*
X121622Y-118397D01*
X122789Y-117618D01*
X122861Y-117511D01*
X124131D01*
X124202Y-117618D01*
X125369Y-118397D01*
X126746Y-118671D01*
X128123Y-118397D01*
X128577Y-118094D01*
X130153Y-118167D01*
X131572Y-119115D01*
X131976Y-119195D01*
Y-109824D01*
X133246D01*
Y-108554D01*
X137620D01*
Y-104574D01*
X137293Y-102930D01*
X137252Y-102701D01*
X137980Y-101660D01*
X141042D01*
Y-106616D01*
X153598D01*
Y-106616D01*
X153742D01*
Y-106616D01*
X166298D01*
Y-95060D01*
X153742D01*
Y-95060D01*
X153598D01*
Y-95060D01*
X141042D01*
Y-95444D01*
X129540D01*
X128351Y-95681D01*
X127343Y-96355D01*
X124549Y-99149D01*
X124197Y-99675D01*
X122783Y-99730D01*
X122756Y-99720D01*
X122444Y-99253D01*
X118021Y-94831D01*
X117013Y-94157D01*
X115824Y-93920D01*
X105338D01*
Y-88964D01*
X105338D01*
X104838Y-88320D01*
Y-77187D01*
X116166D01*
X117356Y-76951D01*
X118364Y-76277D01*
X122444Y-72197D01*
X123117Y-71189D01*
X123354Y-70000D01*
Y-60962D01*
X123358Y-60957D01*
X124624Y-60399D01*
X125369Y-60897D01*
X126746Y-61171D01*
X128123Y-60897D01*
X129290Y-60118D01*
X129361Y-60011D01*
X130631D01*
X130702Y-60118D01*
X131869Y-60897D01*
X133246Y-61171D01*
X134623Y-60897D01*
X135789Y-60118D01*
X136569Y-58951D01*
X136843Y-57574D01*
Y-55432D01*
X141042D01*
Y-56578D01*
X153598D01*
Y-56578D01*
X153742D01*
Y-56578D01*
X166298D01*
Y-45022D01*
X153742D01*
Y-45022D01*
X153598D01*
Y-45022D01*
X141042D01*
Y-49216D01*
X136843D01*
Y-47074D01*
X136569Y-45697D01*
X135789Y-44531D01*
X135561Y-44378D01*
X135947Y-43108D01*
X137350D01*
Y-30552D01*
X133226D01*
X132016Y-30408D01*
Y-21992D01*
X133189Y-21506D01*
X133693Y-22009D01*
X134701Y-22683D01*
X135890Y-22920D01*
X183371D01*
X185868Y-25417D01*
Y-51896D01*
X182198D01*
Y-65452D01*
X183516D01*
X184042Y-66722D01*
X183552Y-67212D01*
X182660Y-68758D01*
X182198Y-70482D01*
Y-72266D01*
X182660Y-73990D01*
X183552Y-75536D01*
X184501Y-76485D01*
X184514Y-77944D01*
X184346Y-78040D01*
X182943Y-79444D01*
X181950Y-81164D01*
X181510Y-82804D01*
X188976D01*
X196442D01*
X196002Y-81164D01*
X195009Y-79444D01*
X193606Y-78040D01*
X193438Y-77944D01*
X193451Y-76485D01*
X194400Y-75536D01*
X195292Y-73990D01*
X195754Y-72266D01*
Y-70482D01*
X195292Y-68758D01*
X194400Y-67212D01*
X193909Y-66722D01*
X194436Y-65452D01*
X195754D01*
Y-61680D01*
X199793D01*
X199998Y-62445D01*
X201318Y-64732D01*
X203186Y-66600D01*
X205474Y-67921D01*
X208026Y-68605D01*
X210668D01*
X213220Y-67921D01*
X215507Y-66600D01*
X217375Y-64732D01*
X218696Y-62445D01*
X219143Y-60778D01*
X220413Y-60945D01*
Y-79008D01*
X219143Y-79349D01*
X217985Y-77344D01*
X215975Y-75334D01*
X213514Y-73913D01*
X210768Y-73177D01*
X210617D01*
Y-83972D01*
Y-94767D01*
X210768D01*
X213514Y-94031D01*
X215975Y-92610D01*
X217985Y-90600D01*
X219143Y-88595D01*
X220413Y-88935D01*
Y-106999D01*
X219143Y-107166D01*
X218696Y-105499D01*
X217375Y-103212D01*
X215507Y-101344D01*
X213220Y-100023D01*
X210668Y-99339D01*
X208026D01*
X205474Y-100023D01*
X203186Y-101344D01*
X201318Y-103212D01*
X199998Y-105499D01*
X199314Y-108051D01*
Y-110693D01*
X199998Y-113245D01*
X201318Y-115532D01*
X203186Y-117400D01*
X205474Y-118721D01*
X208026Y-119405D01*
X210668D01*
X213220Y-118721D01*
X215507Y-117400D01*
X217375Y-115532D01*
X218696Y-113245D01*
X219143Y-111578D01*
X220413Y-111745D01*
Y-124166D01*
X219380Y-124739D01*
X219143Y-124739D01*
X199314D01*
Y-144805D01*
X219143D01*
X219380Y-144805D01*
X220413Y-145378D01*
Y-169247D01*
X219167Y-169494D01*
X218705Y-168379D01*
X216247Y-164121D01*
X213255Y-160222D01*
X209778Y-156746D01*
X205879Y-153753D01*
X201621Y-151295D01*
X197080Y-149414D01*
X192332Y-148142D01*
X187458Y-147500D01*
X182542D01*
X177668Y-148142D01*
X172920Y-149414D01*
X168379Y-151295D01*
X164121Y-153753D01*
X160222Y-156746D01*
X156746Y-160222D01*
X153753Y-164121D01*
X151295Y-168379D01*
X149414Y-172920D01*
X148142Y-177668D01*
X147500Y-182542D01*
Y-187458D01*
X148142Y-192332D01*
X149414Y-197080D01*
X151295Y-201621D01*
X153753Y-205879D01*
X156746Y-209778D01*
X160222Y-213255D01*
X164121Y-216247D01*
X168379Y-218705D01*
X169494Y-219167D01*
X169247Y-220413D01*
X70267D01*
X70032Y-219240D01*
X70032Y-219143D01*
Y-207684D01*
X57476D01*
Y-207684D01*
X56824D01*
Y-207684D01*
X44268D01*
X43256Y-207184D01*
Y-207184D01*
X29700D01*
Y-219143D01*
X29700Y-219740D01*
X28709Y-220413D01*
X7275D01*
X7040Y-219240D01*
X7040Y-219143D01*
Y-211237D01*
X7700Y-210240D01*
X8310Y-210240D01*
X21256D01*
Y-197684D01*
X17586D01*
Y-196894D01*
X17349Y-195705D01*
X16675Y-194697D01*
X13881Y-191903D01*
X12873Y-191229D01*
X11684Y-190992D01*
X7040D01*
Y-190666D01*
X-5406D01*
X-5516Y-190666D01*
X-6676D01*
X-6786Y-190666D01*
X-19232D01*
Y-190666D01*
X-20400Y-190420D01*
Y-188184D01*
X-31343D01*
X-32403Y-187124D01*
Y-185152D01*
X-20400D01*
Y-184898D01*
X-19232Y-184652D01*
Y-184652D01*
X-6676D01*
Y-184652D01*
X-5516D01*
Y-184652D01*
X7040D01*
Y-176649D01*
X7700Y-175652D01*
X8310Y-175652D01*
X21256D01*
Y-163096D01*
X17586D01*
Y-162306D01*
X17349Y-161117D01*
X16675Y-160109D01*
X13881Y-157315D01*
X12873Y-156641D01*
X11684Y-156404D01*
X7040D01*
Y-156078D01*
X-5406D01*
X-5516Y-156078D01*
X-6676D01*
X-6786Y-156078D01*
X-19232D01*
Y-156078D01*
X-20400Y-155832D01*
Y-153596D01*
X-32403D01*
Y-150550D01*
X-20400D01*
Y-150296D01*
X-19232Y-150050D01*
Y-150050D01*
X-6676D01*
Y-150050D01*
X-5516D01*
Y-150050D01*
X7040D01*
Y-142047D01*
X7700Y-141050D01*
X8310Y-141050D01*
X21256D01*
Y-128494D01*
X17586D01*
Y-127704D01*
X17349Y-126515D01*
X16675Y-125506D01*
X13881Y-122712D01*
X12873Y-122039D01*
X11684Y-121802D01*
X7040D01*
Y-121476D01*
X-5406D01*
X-5516Y-121476D01*
X-6676D01*
X-6786Y-121476D01*
X-19232D01*
Y-121476D01*
X-20400Y-121230D01*
Y-118994D01*
X-32403D01*
Y-116318D01*
X-20400D01*
Y-116064D01*
X-19232Y-115818D01*
Y-115818D01*
X-6676D01*
Y-115818D01*
X-5516D01*
Y-115818D01*
X7040D01*
Y-107815D01*
X7700Y-106818D01*
X8310Y-106818D01*
X21256D01*
Y-94262D01*
X17586D01*
Y-93472D01*
X17349Y-92283D01*
X16675Y-91274D01*
X13881Y-88481D01*
X12873Y-87807D01*
X11684Y-87570D01*
X7040D01*
Y-87244D01*
X-5406D01*
X-5516Y-87244D01*
X-6676D01*
X-6786Y-87244D01*
X-19232D01*
Y-87244D01*
X-20400Y-86998D01*
Y-84762D01*
X-33283D01*
X-34386Y-81126D01*
X-36815Y-76581D01*
X-37781Y-75404D01*
X-36980Y-74378D01*
X-31819Y-76819D01*
X-24137Y-79568D01*
X-16221Y-81551D01*
X-8150Y-82748D01*
X0Y-83148D01*
X8150Y-82748D01*
X16221Y-81551D01*
X24137Y-79568D01*
X31819Y-76819D01*
X39196Y-73330D01*
X46195Y-69135D01*
X52749Y-64274D01*
X58795Y-58795D01*
X64274Y-52749D01*
X69135Y-46195D01*
X73330Y-39196D01*
X76819Y-31819D01*
X79568Y-24137D01*
X81551Y-16221D01*
X82748Y-8150D01*
X83148Y0D01*
X82748Y8150D01*
X82054Y12826D01*
X82884Y13788D01*
X92138D01*
Y26344D01*
X89381D01*
X89231Y27097D01*
X88558Y28105D01*
X86448Y30215D01*
X87305Y31498D01*
X87676Y33362D01*
Y46862D01*
X87305Y48726D01*
X86808Y49470D01*
X87486Y50740D01*
X90822D01*
X91500Y49470D01*
X91003Y48726D01*
X90632Y46862D01*
Y33362D01*
X91003Y31498D01*
X92059Y29917D01*
X93640Y28861D01*
X95504Y28490D01*
X97368Y28861D01*
X97626Y29034D01*
X98746Y28435D01*
Y26344D01*
X97600D01*
Y13788D01*
X97100Y13144D01*
X97100D01*
Y1588D01*
X109656D01*
Y13144D01*
X109656D01*
X109156Y13788D01*
Y26344D01*
X104962D01*
Y28435D01*
X106082Y29034D01*
X106340Y28861D01*
X108204Y28490D01*
X110068Y28861D01*
X111649Y29917D01*
X112705Y31498D01*
X113076Y33362D01*
Y46862D01*
X112705Y48726D01*
X111649Y50307D01*
X110068Y51363D01*
X108204Y51734D01*
X106340Y51363D01*
X105831Y51023D01*
X104725Y51481D01*
X104052Y52490D01*
X100496Y56045D01*
X99487Y56719D01*
X98298Y56956D01*
X69613D01*
X58226Y68343D01*
Y71192D01*
X69532D01*
Y83748D01*
X69532D01*
Y83892D01*
X69532D01*
Y96448D01*
X66862D01*
Y98870D01*
X70032D01*
Y110426D01*
X62371D01*
X60213Y112584D01*
X60087Y112668D01*
X60102Y113317D01*
X60272Y114072D01*
X61125Y114642D01*
X62371Y115888D01*
X70032D01*
Y127444D01*
X57476D01*
Y127185D01*
X56206Y126507D01*
X55903Y126709D01*
X54526Y126983D01*
X50352D01*
Y130120D01*
X53022D01*
Y141526D01*
X54292Y142498D01*
X54610Y142434D01*
X57722D01*
Y137668D01*
X64262D01*
X70802D01*
Y142434D01*
X76837D01*
X78011Y141260D01*
X77932Y140862D01*
Y127362D01*
X78303Y125498D01*
X79359Y123917D01*
X80940Y122861D01*
X82804Y122490D01*
X84668Y122861D01*
X86249Y123917D01*
X87305Y125498D01*
X87676Y127362D01*
Y140862D01*
X87305Y142726D01*
X86249Y144307D01*
X84668Y145363D01*
X82804Y145734D01*
X82406Y145654D01*
X80322Y147739D01*
X79313Y148413D01*
X78124Y148650D01*
X72167D01*
X71781Y149920D01*
X73159Y150841D01*
X74381Y152669D01*
X74810Y154826D01*
Y166310D01*
X83803D01*
X92396Y157717D01*
Y144532D01*
X92059Y144307D01*
X91003Y142726D01*
X90632Y140862D01*
Y127362D01*
X91003Y125498D01*
X92059Y123917D01*
X93640Y122861D01*
X95504Y122490D01*
X97368Y122861D01*
X98949Y123917D01*
X100005Y125498D01*
X100376Y127362D01*
Y140862D01*
X100005Y142726D01*
X99089Y144097D01*
X99140Y144605D01*
X100162Y145048D01*
X100505Y145036D01*
X103556Y141985D01*
X103332Y140862D01*
Y127362D01*
X103703Y125498D01*
X104759Y123917D01*
X106340Y122861D01*
X108204Y122490D01*
X110068Y122861D01*
X111649Y123917D01*
X112705Y125498D01*
X113076Y127362D01*
Y140862D01*
X112705Y142726D01*
X111649Y144307D01*
X110068Y145363D01*
X108695Y145636D01*
X102930Y151401D01*
Y161036D01*
X102693Y162225D01*
X102020Y163234D01*
X93532Y171721D01*
Y183480D01*
X94174D01*
X96331Y183909D01*
X98159Y185131D01*
X99381Y186959D01*
X99810Y189116D01*
Y206616D01*
X99381Y208773D01*
X98732Y209744D01*
X99411Y211014D01*
X119032D01*
X124146Y205900D01*
D02*
G37*
G36*
X142166Y153512D02*
X142549Y153063D01*
Y143842D01*
X141803Y142726D01*
X141432Y140862D01*
Y127362D01*
X141803Y125498D01*
X142859Y123917D01*
X144440Y122861D01*
X146304Y122490D01*
X148168Y122861D01*
X149749Y123917D01*
X150805Y125498D01*
X151176Y127362D01*
Y140862D01*
X150805Y142726D01*
X150059Y143842D01*
Y145106D01*
X154643D01*
X155245Y143836D01*
X154503Y142726D01*
X154132Y140862D01*
Y127362D01*
X154503Y125498D01*
X155559Y123917D01*
X155896Y123692D01*
Y122364D01*
X154842Y121756D01*
X153580Y120494D01*
X152688Y118948D01*
X152226Y117224D01*
Y115440D01*
X152688Y113716D01*
X153580Y112170D01*
X154842Y110908D01*
X156388Y110016D01*
X158112Y109554D01*
X159896D01*
X161620Y110016D01*
X163166Y110908D01*
X164428Y112170D01*
X164621Y112505D01*
X166087D01*
X166280Y112170D01*
X167542Y110908D01*
X169088Y110016D01*
X170812Y109554D01*
X172596D01*
X174070Y109949D01*
X174468Y109918D01*
X175506Y109234D01*
X175802Y108128D01*
X176694Y106582D01*
X177956Y105320D01*
X179502Y104428D01*
X181226Y103966D01*
X183010D01*
X184734Y104428D01*
X186280Y105320D01*
X187542Y106582D01*
X188434Y108128D01*
X188482Y108305D01*
X189958Y108908D01*
X190678Y108492D01*
X192402Y108030D01*
X194186D01*
X195910Y108492D01*
X197456Y109384D01*
X198718Y110646D01*
X198725Y110659D01*
X207844D01*
Y109284D01*
X220400Y109284D01*
X220413Y108019D01*
Y104584D01*
X215392D01*
Y98044D01*
Y91504D01*
X220413D01*
Y8133D01*
X219986Y7040D01*
X219143Y7040D01*
X213716D01*
Y0D01*
Y-7040D01*
X219143D01*
X219986Y-7040D01*
X220413Y-8133D01*
Y-30799D01*
X219143Y-30966D01*
X218696Y-29299D01*
X217375Y-27012D01*
X215507Y-25144D01*
X213220Y-23823D01*
X210668Y-23139D01*
X208026D01*
X205474Y-23823D01*
X203186Y-25144D01*
X201318Y-27012D01*
X199998Y-29299D01*
X199314Y-31851D01*
Y-34493D01*
X199998Y-37045D01*
X201318Y-39332D01*
X203186Y-41200D01*
X205474Y-42521D01*
X208026Y-43205D01*
X210668D01*
X213220Y-42521D01*
X215507Y-41200D01*
X217375Y-39332D01*
X218696Y-37045D01*
X219143Y-35378D01*
X220413Y-35545D01*
Y-56199D01*
X219143Y-56366D01*
X218696Y-54699D01*
X217375Y-52412D01*
X215507Y-50544D01*
X213220Y-49223D01*
X210668Y-48539D01*
X208026D01*
X205474Y-49223D01*
X203186Y-50544D01*
X201318Y-52412D01*
X199998Y-54699D01*
X199793Y-55464D01*
X195754D01*
Y-51896D01*
X192084D01*
Y-24130D01*
X191847Y-22941D01*
X191173Y-21932D01*
X187659Y-18418D01*
X186953Y-17501D01*
X187650Y-16691D01*
X188563Y-15778D01*
X197224D01*
Y-3222D01*
X183668D01*
Y-10710D01*
X183570Y-10792D01*
X182300Y-10203D01*
Y-8788D01*
X175260D01*
Y-7518D01*
X173990D01*
Y-978D01*
X168220D01*
Y-1080D01*
X163830D01*
Y-7620D01*
X161290D01*
Y-1080D01*
X151130D01*
Y-7620D01*
X148590D01*
Y-1080D01*
X142820D01*
Y-1842D01*
X132394D01*
Y3620D01*
X143438D01*
Y3620D01*
X143582D01*
Y3620D01*
X156138D01*
Y3620D01*
X156282D01*
Y3620D01*
X168838D01*
Y3620D01*
X168982Y3722D01*
X181538D01*
Y4995D01*
X183668D01*
Y3222D01*
X197224D01*
Y15778D01*
X197040D01*
Y20828D01*
X190500D01*
X183960D01*
Y15778D01*
X183668D01*
Y13801D01*
X181538D01*
Y15278D01*
X180306D01*
X179260Y15820D01*
Y28376D01*
X174812D01*
Y29692D01*
X175149Y29917D01*
X176205Y31498D01*
X176576Y33362D01*
Y46862D01*
X176205Y48726D01*
X175149Y50307D01*
X173568Y51363D01*
X171704Y51734D01*
X170778Y51549D01*
X166789Y55538D01*
X165781Y56211D01*
X164592Y56448D01*
X154568D01*
X153997Y57718D01*
X154652Y58852D01*
X155114Y60576D01*
Y62360D01*
X154652Y64084D01*
X153760Y65630D01*
X152498Y66892D01*
X150952Y67784D01*
X149228Y68246D01*
X147444D01*
X146268Y67931D01*
X145348Y68851D01*
Y105410D01*
X145111Y106599D01*
X144438Y107607D01*
X136712Y115333D01*
Y123692D01*
X137049Y123917D01*
X138105Y125498D01*
X138476Y127362D01*
Y140862D01*
X138105Y142726D01*
X137872Y143074D01*
X138551Y144344D01*
X141160D01*
Y150114D01*
X134620D01*
Y152654D01*
X141160D01*
Y153506D01*
X141690Y153724D01*
X142166Y153512D01*
D02*
G37*
%LPC*%
G36*
X-71232Y217322D02*
X-85232D01*
X-87096Y216951D01*
X-88677Y215895D01*
X-89733Y214314D01*
X-90104Y212450D01*
X-89733Y210586D01*
X-88677Y209005D01*
X-87096Y207949D01*
X-85232Y207578D01*
X-71232D01*
X-69368Y207949D01*
X-67787Y209005D01*
X-66731Y210586D01*
X-66360Y212450D01*
X-66731Y214314D01*
X-67787Y215895D01*
X-69368Y216951D01*
X-71232Y217322D01*
D02*
G37*
G36*
X-127874D02*
X-141874D01*
X-143738Y216951D01*
X-145319Y215895D01*
X-146375Y214314D01*
X-146746Y212450D01*
X-146375Y210586D01*
X-145319Y209005D01*
X-143738Y207949D01*
X-141874Y207578D01*
X-127874D01*
X-126010Y207949D01*
X-124429Y209005D01*
X-123373Y210586D01*
X-123002Y212450D01*
X-123373Y214314D01*
X-124429Y215895D01*
X-126010Y216951D01*
X-127874Y217322D01*
D02*
G37*
G36*
X7747Y211180D02*
X1270D01*
Y204195D01*
X7747D01*
Y211180D01*
D02*
G37*
G36*
X-1270D02*
X-7747D01*
Y204195D01*
X-1270D01*
Y211180D01*
D02*
G37*
G36*
X53776Y207962D02*
X48006D01*
Y202692D01*
X53776D01*
Y207962D01*
D02*
G37*
G36*
X45466D02*
X39696D01*
Y202692D01*
X45466D01*
Y207962D01*
D02*
G37*
G36*
X-57150Y205406D02*
X-64920D01*
Y202429D01*
X-66190Y202176D01*
X-67238Y203744D01*
X-69070Y204968D01*
X-71232Y205399D01*
X-76962D01*
Y199750D01*
Y194101D01*
X-71232D01*
X-69070Y194531D01*
X-67238Y195756D01*
X-66190Y197324D01*
X-64920Y197071D01*
Y190326D01*
X-57150D01*
Y197866D01*
Y205406D01*
D02*
G37*
G36*
X-127874Y205399D02*
X-133604D01*
Y201020D01*
X-122478D01*
X-122655Y201912D01*
X-123880Y203744D01*
X-125712Y204968D01*
X-127874Y205399D01*
D02*
G37*
G36*
X-136144D02*
X-141874D01*
X-144036Y204968D01*
X-145868Y203744D01*
X-147093Y201912D01*
X-147270Y201020D01*
X-136144D01*
Y205399D01*
D02*
G37*
G36*
X-79502D02*
X-85232D01*
X-87394Y204968D01*
X-89226Y203744D01*
X-90451Y201912D01*
X-90628Y201020D01*
X-79502D01*
Y205399D01*
D02*
G37*
G36*
X-46840Y205406D02*
X-54610D01*
Y199136D01*
X-46840D01*
Y205406D01*
D02*
G37*
G36*
X53776Y200152D02*
X48006D01*
Y194882D01*
X53776D01*
Y200152D01*
D02*
G37*
G36*
X45466D02*
X39696D01*
Y194882D01*
X45466D01*
Y200152D01*
D02*
G37*
G36*
X-79502Y198480D02*
X-90628D01*
X-90451Y197588D01*
X-89226Y195756D01*
X-87394Y194531D01*
X-85232Y194101D01*
X-79502D01*
Y198480D01*
D02*
G37*
G36*
X-122478D02*
X-133604D01*
Y194101D01*
X-127874D01*
X-125712Y194531D01*
X-123880Y195756D01*
X-122655Y197588D01*
X-122478Y198480D01*
D02*
G37*
G36*
X-136144D02*
X-147270D01*
X-147093Y197588D01*
X-145868Y195756D01*
X-144036Y194531D01*
X-141874Y194101D01*
X-136144D01*
Y198480D01*
D02*
G37*
G36*
X-31314Y198818D02*
X-37084D01*
Y193548D01*
X-31314D01*
Y198818D01*
D02*
G37*
G36*
X-39624D02*
X-45394D01*
Y193548D01*
X-39624D01*
Y198818D01*
D02*
G37*
G36*
X-46840Y196596D02*
X-54610D01*
Y190326D01*
X-46840D01*
Y196596D01*
D02*
G37*
G36*
X-127874Y192698D02*
X-133604D01*
Y188320D01*
X-122478D01*
X-122655Y189212D01*
X-123880Y191044D01*
X-125712Y192269D01*
X-127874Y192698D01*
D02*
G37*
G36*
X-71232D02*
X-76962D01*
Y188320D01*
X-65836D01*
X-66013Y189212D01*
X-67238Y191044D01*
X-69070Y192269D01*
X-71232Y192698D01*
D02*
G37*
G36*
X-79502D02*
X-85232D01*
X-87394Y192269D01*
X-89226Y191044D01*
X-90451Y189212D01*
X-90628Y188320D01*
X-79502D01*
Y192698D01*
D02*
G37*
G36*
X-31314Y191008D02*
X-37084D01*
Y185738D01*
X-31314D01*
Y191008D01*
D02*
G37*
G36*
X-39624D02*
X-45394D01*
Y185738D01*
X-39624D01*
Y191008D01*
D02*
G37*
G36*
X16383Y195051D02*
X2413D01*
Y180522D01*
X2413Y180065D01*
X1480Y179252D01*
X826D01*
Y173482D01*
X7366D01*
X13906D01*
Y178795D01*
X13906Y179252D01*
X14839Y180065D01*
X16383D01*
Y184450D01*
X18360D01*
Y181674D01*
X30916D01*
Y193230D01*
X18360D01*
Y190666D01*
X16383D01*
Y195051D01*
D02*
G37*
G36*
X-65836Y185780D02*
X-76962D01*
Y181401D01*
X-71232D01*
X-69070Y181831D01*
X-67238Y183056D01*
X-66013Y184888D01*
X-65836Y185780D01*
D02*
G37*
G36*
X-79502D02*
X-90628D01*
X-90451Y184888D01*
X-89226Y183056D01*
X-87394Y181831D01*
X-85232Y181401D01*
X-79502D01*
Y185780D01*
D02*
G37*
G36*
X-122478D02*
X-133604D01*
Y181401D01*
X-127874D01*
X-125712Y181831D01*
X-123880Y183056D01*
X-122655Y184888D01*
X-122478Y185780D01*
D02*
G37*
G36*
X13906Y170942D02*
X7366D01*
X826D01*
Y165172D01*
Y160782D01*
X7366D01*
X13906D01*
Y165172D01*
Y170942D01*
D02*
G37*
G36*
X212852Y151320D02*
X207082D01*
Y146050D01*
X212852D01*
Y151320D01*
D02*
G37*
G36*
X-133998Y157550D02*
X-144018D01*
Y144780D01*
X-133998D01*
Y157550D01*
D02*
G37*
G36*
X-146558D02*
X-156578D01*
Y144780D01*
X-146558D01*
Y157550D01*
D02*
G37*
G36*
X212852Y143510D02*
X207082D01*
Y138240D01*
X212852D01*
Y143510D01*
D02*
G37*
G36*
X-170500Y141036D02*
X-184150D01*
Y129540D01*
X-162814D01*
Y133350D01*
X-163076Y135339D01*
X-163844Y137193D01*
X-165065Y138785D01*
X-166657Y140006D01*
X-168511Y140774D01*
X-170500Y141036D01*
D02*
G37*
G36*
X-186690D02*
X-200340D01*
X-202329Y140774D01*
X-204183Y140006D01*
X-205775Y138785D01*
X-206996Y137193D01*
X-207764Y135339D01*
X-208026Y133350D01*
Y129540D01*
X-186690D01*
Y141036D01*
D02*
G37*
G36*
X-133998Y142240D02*
X-144018D01*
Y129470D01*
X-133998D01*
Y142240D01*
D02*
G37*
G36*
X-146558D02*
X-156578D01*
Y129470D01*
X-146558D01*
Y142240D01*
D02*
G37*
G36*
X18796Y135128D02*
X13526D01*
Y129358D01*
X18796D01*
Y135128D01*
D02*
G37*
G36*
X-117602Y128384D02*
X-127872D01*
Y121114D01*
X-117602D01*
Y128384D01*
D02*
G37*
G36*
X-162814Y127000D02*
X-184150D01*
Y115504D01*
X-170500D01*
X-168511Y115766D01*
X-166657Y116534D01*
X-165065Y117755D01*
X-163844Y119347D01*
X-163076Y121201D01*
X-162814Y123190D01*
Y127000D01*
D02*
G37*
G36*
X-186690D02*
X-208026D01*
Y123190D01*
X-207764Y121201D01*
X-206996Y119347D01*
X-205775Y117755D01*
X-204183Y116534D01*
X-202329Y115766D01*
X-200340Y115504D01*
X-186690D01*
Y127000D01*
D02*
G37*
G36*
X-117602Y118574D02*
X-127872D01*
Y111304D01*
X-117602D01*
Y118574D01*
D02*
G37*
G36*
X-130308Y-14804D02*
X-135578D01*
Y-20574D01*
X-130308D01*
Y-14804D01*
D02*
G37*
G36*
X-138118D02*
X-143388D01*
Y-20574D01*
X-138118D01*
Y-14804D01*
D02*
G37*
G36*
X-170500Y-1550D02*
X-200340D01*
X-202130Y-1785D01*
X-203799Y-2476D01*
X-205231Y-3576D01*
X-206330Y-5008D01*
X-207022Y-6676D01*
X-207257Y-8467D01*
Y-18627D01*
X-207022Y-20417D01*
X-206330Y-22085D01*
X-205231Y-23518D01*
X-203799Y-24617D01*
X-202130Y-25308D01*
X-200340Y-25544D01*
X-170500D01*
X-168710Y-25308D01*
X-167041Y-24617D01*
X-165609Y-23518D01*
X-164510Y-22085D01*
X-163818Y-20417D01*
X-163583Y-18627D01*
Y-12416D01*
X-160144D01*
Y-13144D01*
X-158916D01*
Y-15566D01*
X-159644D01*
Y-28122D01*
X-148088D01*
Y-15566D01*
X-148816D01*
Y-13144D01*
X-147588D01*
Y-1588D01*
X-160144D01*
Y-2316D01*
X-167428D01*
X-168710Y-1785D01*
X-170500Y-1550D01*
D02*
G37*
G36*
X-130308Y-23114D02*
X-135578D01*
Y-28884D01*
X-130308D01*
Y-23114D01*
D02*
G37*
G36*
X-138118D02*
X-143388D01*
Y-28884D01*
X-138118D01*
Y-23114D01*
D02*
G37*
G36*
X-170500Y-29913D02*
X-200340D01*
X-202130Y-30149D01*
X-203799Y-30840D01*
X-205231Y-31939D01*
X-206330Y-33372D01*
X-207022Y-35040D01*
X-207257Y-36830D01*
Y-46990D01*
X-207022Y-48780D01*
X-206330Y-50449D01*
X-205231Y-51881D01*
X-203799Y-52980D01*
X-202130Y-53671D01*
X-200340Y-53907D01*
X-170500D01*
X-168710Y-53671D01*
X-167041Y-52980D01*
X-165609Y-51881D01*
X-164510Y-50449D01*
X-163818Y-48780D01*
X-163583Y-46990D01*
Y-46960D01*
X-161644D01*
Y-52688D01*
X-146088D01*
Y-31132D01*
X-161644D01*
Y-36860D01*
X-163583D01*
Y-36830D01*
X-163818Y-35040D01*
X-164510Y-33372D01*
X-165609Y-31939D01*
X-167041Y-30840D01*
X-168710Y-30149D01*
X-170500Y-29913D01*
D02*
G37*
G36*
X-170500Y-58276D02*
X-200340D01*
X-202130Y-58512D01*
X-203799Y-59203D01*
X-205231Y-60302D01*
X-206330Y-61735D01*
X-207022Y-63403D01*
X-207257Y-65193D01*
Y-75353D01*
X-207022Y-77144D01*
X-206330Y-78812D01*
X-205231Y-80245D01*
X-203799Y-81344D01*
X-202130Y-82035D01*
X-200340Y-82270D01*
X-170500D01*
X-168710Y-82035D01*
X-167041Y-81344D01*
X-165609Y-80245D01*
X-164510Y-78812D01*
X-163819Y-77144D01*
X-163624Y-75662D01*
X-161644D01*
Y-81390D01*
X-146088D01*
Y-59834D01*
X-161644D01*
Y-65562D01*
X-163583D01*
Y-65193D01*
X-163819Y-63403D01*
X-164510Y-61735D01*
X-165609Y-60302D01*
X-167041Y-59203D01*
X-168710Y-58512D01*
X-170500Y-58276D01*
D02*
G37*
G36*
X-64516Y-103500D02*
X-70286D01*
Y-108770D01*
X-64516D01*
Y-103500D01*
D02*
G37*
G36*
X-170500Y-86639D02*
X-200340D01*
X-202130Y-86875D01*
X-203799Y-87566D01*
X-205231Y-88666D01*
X-206330Y-90098D01*
X-207022Y-91766D01*
X-207257Y-93557D01*
Y-103717D01*
X-207022Y-105507D01*
X-206330Y-107175D01*
X-205231Y-108608D01*
X-203799Y-109707D01*
X-202130Y-110398D01*
X-200340Y-110634D01*
X-170500D01*
X-168710Y-110398D01*
X-167041Y-109707D01*
X-165609Y-108608D01*
X-164510Y-107175D01*
X-163818Y-105507D01*
X-163583Y-103717D01*
Y-103687D01*
X-161644D01*
Y-109415D01*
X-146088D01*
Y-87859D01*
X-161644D01*
Y-93587D01*
X-163583D01*
Y-93557D01*
X-163818Y-91766D01*
X-164510Y-90098D01*
X-165609Y-88666D01*
X-167041Y-87566D01*
X-168710Y-86875D01*
X-170500Y-86639D01*
D02*
G37*
G36*
X-56206Y-111310D02*
X-61976D01*
Y-116580D01*
X-56206D01*
Y-111310D01*
D02*
G37*
G36*
X-64516D02*
X-70286D01*
Y-116580D01*
X-64516D01*
Y-111310D01*
D02*
G37*
G36*
X-170500Y-115003D02*
X-200340D01*
X-202130Y-115239D01*
X-203799Y-115929D01*
X-205231Y-117029D01*
X-206330Y-118461D01*
X-207022Y-120130D01*
X-207257Y-121920D01*
Y-132080D01*
X-207022Y-133870D01*
X-206330Y-135539D01*
X-205231Y-136971D01*
X-203799Y-138070D01*
X-202130Y-138762D01*
X-200340Y-138997D01*
X-170500D01*
X-168710Y-138762D01*
X-167041Y-138070D01*
X-165609Y-136971D01*
X-164510Y-135539D01*
X-163818Y-133870D01*
X-163583Y-132080D01*
Y-132050D01*
X-161644D01*
Y-137778D01*
X-146088D01*
Y-116222D01*
X-161644D01*
Y-121950D01*
X-163583D01*
Y-121920D01*
X-163818Y-120130D01*
X-164510Y-118461D01*
X-165609Y-117029D01*
X-167041Y-115929D01*
X-168710Y-115239D01*
X-170500Y-115003D01*
D02*
G37*
G36*
X-64516Y-137732D02*
X-70286D01*
Y-143002D01*
X-64516D01*
Y-137732D01*
D02*
G37*
G36*
X-56206Y-145542D02*
X-61976D01*
Y-150812D01*
X-56206D01*
Y-145542D01*
D02*
G37*
G36*
X-64516D02*
X-70286D01*
Y-150812D01*
X-64516D01*
Y-145542D01*
D02*
G37*
G36*
X-109256Y-163068D02*
X-116776D01*
Y-170438D01*
X-109256D01*
Y-163068D01*
D02*
G37*
G36*
X-64516Y-172276D02*
X-70286D01*
Y-177546D01*
X-64516D01*
Y-172276D01*
D02*
G37*
G36*
X-56206Y-180086D02*
X-61976D01*
Y-185356D01*
X-56206D01*
Y-180086D01*
D02*
G37*
G36*
X-64516D02*
X-70286D01*
Y-185356D01*
X-64516D01*
Y-180086D01*
D02*
G37*
G36*
X-99196Y-187702D02*
X-106716D01*
Y-195072D01*
X-99196D01*
Y-187702D01*
D02*
G37*
G36*
X-109256D02*
X-116776D01*
Y-195072D01*
X-109256D01*
Y-187702D01*
D02*
G37*
G36*
X-99196Y-197612D02*
X-106716D01*
Y-204982D01*
X-99196D01*
Y-197612D01*
D02*
G37*
G36*
X-109256D02*
X-116776D01*
Y-204982D01*
X-109256D01*
Y-197612D01*
D02*
G37*
G36*
X-117088Y-116222D02*
X-132644D01*
Y-137778D01*
X-129916D01*
Y-144628D01*
X-129532Y-146561D01*
X-128437Y-148199D01*
X-123205Y-153431D01*
X-121567Y-154526D01*
X-119634Y-154910D01*
X-116776D01*
Y-160528D01*
X-107986D01*
Y-161798D01*
X-106716D01*
Y-170438D01*
X-101062D01*
Y-174752D01*
X-100678Y-176685D01*
X-99583Y-178323D01*
X-86514Y-191392D01*
Y-204220D01*
X-70458D01*
Y-203033D01*
X-69524Y-202222D01*
X-56968D01*
X-55956Y-202845D01*
Y-205756D01*
X-56206Y-206922D01*
X-57226Y-206922D01*
X-61976D01*
Y-212192D01*
X-56206D01*
Y-211406D01*
X-55956Y-210240D01*
X-54936Y-210240D01*
X-42400D01*
Y-197684D01*
X-44965D01*
X-45607Y-196723D01*
X-49457Y-192873D01*
X-51095Y-191778D01*
X-53028Y-191394D01*
X-56968D01*
Y-190666D01*
X-69524D01*
X-70458Y-189855D01*
Y-188464D01*
X-76229D01*
X-76360Y-187805D01*
X-77455Y-186167D01*
X-90962Y-172660D01*
Y-153162D01*
X-91346Y-151229D01*
X-92441Y-149591D01*
X-95743Y-146289D01*
X-97381Y-145194D01*
X-99314Y-144810D01*
X-117542D01*
X-119816Y-142536D01*
Y-137778D01*
X-117088D01*
Y-137035D01*
X-116776Y-135894D01*
X-115818Y-135894D01*
X-109256D01*
Y-127254D01*
Y-118614D01*
X-116776Y-118614D01*
X-117088Y-117473D01*
Y-116222D01*
D02*
G37*
G36*
X-64516Y-206922D02*
X-70286D01*
Y-212192D01*
X-64516D01*
Y-206922D01*
D02*
G37*
G36*
X-66366Y162560D02*
X-72136D01*
Y157290D01*
X-66366D01*
Y162560D01*
D02*
G37*
G36*
X-74676D02*
X-80446D01*
Y157290D01*
X-74676D01*
Y162560D01*
D02*
G37*
G36*
X-67128Y152590D02*
X-79684D01*
Y141034D01*
Y129858D01*
X-67128D01*
Y141034D01*
Y152590D01*
D02*
G37*
G36*
X1147Y102616D02*
X-6954D01*
Y99512D01*
X-2974D01*
X-1300Y99845D01*
X119Y100793D01*
X1067Y102212D01*
X1147Y102616D01*
D02*
G37*
G36*
X-64088D02*
X-79168D01*
Y94846D01*
X-75882D01*
Y90424D01*
X-62802D01*
Y96194D01*
X-64088D01*
Y102616D01*
D02*
G37*
G36*
X-62802Y87884D02*
X-68072D01*
Y82114D01*
X-62802D01*
Y87884D01*
D02*
G37*
G36*
X-70612D02*
X-75882D01*
Y82114D01*
X-70612D01*
Y87884D01*
D02*
G37*
G36*
X114154Y162306D02*
X105261D01*
Y154826D01*
X105749Y152372D01*
X107139Y150291D01*
X109220Y148901D01*
X111674Y148413D01*
X114154D01*
Y162306D01*
D02*
G37*
G36*
X70802Y135128D02*
X65532D01*
Y129358D01*
X70802D01*
Y135128D01*
D02*
G37*
G36*
X62992D02*
X57722D01*
Y129358D01*
X62992D01*
Y135128D01*
D02*
G37*
G36*
X124416Y67484D02*
X122632D01*
X120908Y67022D01*
X119362Y66130D01*
X118100Y64868D01*
X117208Y63322D01*
X116746Y61598D01*
Y59814D01*
X117208Y58090D01*
X118100Y56544D01*
X119362Y55282D01*
X120908Y54390D01*
X122632Y53928D01*
X124416D01*
X125729Y54280D01*
X129976Y50033D01*
X129103Y48726D01*
X128732Y46862D01*
Y33362D01*
X129103Y31498D01*
X130159Y29917D01*
X131740Y28861D01*
X133604Y28490D01*
X135468Y28861D01*
X137049Y29917D01*
X138105Y31498D01*
X138476Y33362D01*
Y46862D01*
X138105Y48726D01*
X137049Y50307D01*
X136712Y50532D01*
Y50800D01*
X136475Y51989D01*
X135801Y52997D01*
X130024Y58775D01*
X130302Y59814D01*
Y61598D01*
X129840Y63322D01*
X128948Y64868D01*
X127686Y66130D01*
X126140Y67022D01*
X124416Y67484D01*
D02*
G37*
G36*
X120904Y51734D02*
X119040Y51363D01*
X117459Y50307D01*
X116403Y48726D01*
X116032Y46862D01*
Y33362D01*
X116403Y31498D01*
X116643Y31139D01*
X116083Y29692D01*
X114964Y29046D01*
X113702Y27784D01*
X112810Y26238D01*
X112348Y24514D01*
Y22730D01*
X112810Y21006D01*
X113702Y19460D01*
X114964Y18198D01*
X116510Y17306D01*
X118234Y16844D01*
X120018D01*
X121742Y17306D01*
X123288Y18198D01*
X124550Y19460D01*
X125442Y21006D01*
X125904Y22730D01*
Y24514D01*
X125442Y26238D01*
X124550Y27784D01*
X124012Y28322D01*
Y29692D01*
X124349Y29917D01*
X125405Y31498D01*
X125776Y33362D01*
Y46862D01*
X125405Y48726D01*
X124349Y50307D01*
X122768Y51363D01*
X120904Y51734D01*
D02*
G37*
G36*
X110418Y-3112D02*
X104648D01*
Y-8382D01*
X110418D01*
Y-3112D01*
D02*
G37*
G36*
X102108D02*
X96338D01*
Y-8382D01*
X102108D01*
Y-3112D01*
D02*
G37*
G36*
X110418Y-10922D02*
X103378D01*
X96338D01*
Y-16192D01*
X101782D01*
X102680Y-17090D01*
X102680Y-17462D01*
Y-22860D01*
X115760D01*
Y-17090D01*
X111316D01*
X110418Y-16192D01*
X110418Y-15820D01*
Y-10922D01*
D02*
G37*
G36*
X86614Y-28512D02*
X80844D01*
Y-33782D01*
X86614D01*
Y-28512D01*
D02*
G37*
G36*
X148720Y-26496D02*
X146936D01*
X145212Y-26958D01*
X143666Y-27850D01*
X142404Y-29112D01*
X141512Y-30658D01*
X141050Y-32382D01*
Y-34166D01*
X141512Y-35890D01*
X142404Y-37436D01*
X143666Y-38698D01*
X145212Y-39590D01*
X146936Y-40052D01*
X148720D01*
X150444Y-39590D01*
X151990Y-38698D01*
X152472Y-38215D01*
X153742Y-38742D01*
Y-39560D01*
X166298D01*
Y-28004D01*
X153742D01*
Y-28004D01*
X152472Y-28333D01*
X151990Y-27850D01*
X150444Y-26958D01*
X148720Y-26496D01*
D02*
G37*
G36*
X99314Y-28512D02*
X89154D01*
Y-35052D01*
Y-41592D01*
X99314D01*
Y-35052D01*
Y-28512D01*
D02*
G37*
G36*
X86614Y-36322D02*
X80844D01*
Y-41592D01*
X86614D01*
Y-36322D01*
D02*
G37*
G36*
X146050Y-61278D02*
X140280D01*
Y-66548D01*
X146050D01*
Y-61278D01*
D02*
G37*
G36*
Y-69088D02*
X140280D01*
Y-74358D01*
X146050D01*
Y-69088D01*
D02*
G37*
G36*
X80772Y-75002D02*
X75502D01*
Y-80772D01*
X80772D01*
Y-75002D01*
D02*
G37*
G36*
X146050Y-77280D02*
X140280D01*
Y-82550D01*
X146050D01*
Y-77280D01*
D02*
G37*
G36*
X208077Y-73177D02*
X207926D01*
X205180Y-73913D01*
X202719Y-75334D01*
X200709Y-77344D01*
X199287Y-79805D01*
X198552Y-82551D01*
Y-82702D01*
X208077D01*
Y-73177D01*
D02*
G37*
G36*
X80772Y-83312D02*
X75502D01*
Y-89082D01*
X80772D01*
Y-83312D01*
D02*
G37*
G36*
X35208Y-84000D02*
X28938D01*
Y-89770D01*
X35208D01*
Y-84000D01*
D02*
G37*
G36*
X154360Y-61278D02*
X148590D01*
Y-67818D01*
Y-74358D01*
X153598D01*
X153704Y-74752D01*
X154452Y-76048D01*
X154111Y-76884D01*
X153782Y-77280D01*
X148590D01*
Y-83820D01*
Y-90360D01*
X154360D01*
Y-89598D01*
X166298D01*
Y-78042D01*
X165496D01*
X164970Y-76772D01*
X165444Y-76298D01*
X166336Y-74752D01*
X166798Y-73028D01*
Y-71244D01*
X166336Y-69520D01*
X165444Y-67974D01*
X164182Y-66712D01*
X162636Y-65820D01*
X160912Y-65358D01*
X159128D01*
X157404Y-65820D01*
X155858Y-66712D01*
X155630Y-66940D01*
X154360Y-66414D01*
Y-61278D01*
D02*
G37*
G36*
X146050Y-85090D02*
X140280D01*
Y-90360D01*
X146050D01*
Y-85090D01*
D02*
G37*
G36*
X196442Y-85344D02*
X190246D01*
Y-91540D01*
X191886Y-91100D01*
X193606Y-90107D01*
X195009Y-88704D01*
X196002Y-86984D01*
X196442Y-85344D01*
D02*
G37*
G36*
X187706D02*
X181510D01*
X181950Y-86984D01*
X182943Y-88704D01*
X184346Y-90107D01*
X186066Y-91100D01*
X187706Y-91540D01*
Y-85344D01*
D02*
G37*
G36*
X208077Y-85242D02*
X198552D01*
Y-85393D01*
X199287Y-88139D01*
X200709Y-90600D01*
X202719Y-92610D01*
X205180Y-94031D01*
X207926Y-94767D01*
X208077D01*
Y-85242D01*
D02*
G37*
G36*
X35208Y-92310D02*
X28938D01*
Y-98080D01*
X35208D01*
Y-92310D01*
D02*
G37*
G36*
X64646Y-76026D02*
X62862D01*
X61138Y-76488D01*
X59592Y-77380D01*
X58330Y-78642D01*
X57438Y-80188D01*
X56976Y-81912D01*
Y-83696D01*
X57382Y-85212D01*
X57053Y-85899D01*
X56585Y-86482D01*
X51816D01*
Y-93022D01*
Y-99562D01*
X57586D01*
Y-98800D01*
X70032D01*
Y-87244D01*
X70032Y-87244D01*
X70032D01*
X69750Y-85974D01*
X70070Y-85420D01*
X70532Y-83696D01*
Y-81912D01*
X70070Y-80188D01*
X69178Y-78642D01*
X67916Y-77380D01*
X66370Y-76488D01*
X64646Y-76026D01*
D02*
G37*
G36*
X44018Y-84000D02*
X37748D01*
Y-91040D01*
Y-98080D01*
X43506D01*
Y-99562D01*
X49276D01*
Y-93022D01*
Y-86482D01*
X44018D01*
Y-84000D01*
D02*
G37*
G36*
X43256Y-103762D02*
Y-103762D01*
X43206Y-103762D01*
X29700D01*
Y-116318D01*
X43256D01*
Y-116318D01*
X44268Y-115818D01*
X56824D01*
Y-115818D01*
X57476D01*
Y-115818D01*
X70032D01*
Y-104262D01*
X57476D01*
Y-104262D01*
X56824D01*
Y-104262D01*
X44268D01*
X44268Y-104262D01*
X43256Y-103762D01*
D02*
G37*
G36*
X137620Y-111094D02*
X134516D01*
Y-119195D01*
X134920Y-119115D01*
X136339Y-118167D01*
X137287Y-116748D01*
X137620Y-115074D01*
Y-111094D01*
D02*
G37*
G36*
X74806Y-120476D02*
X73022D01*
X71298Y-120938D01*
X70199Y-121572D01*
X70032Y-121476D01*
Y-121476D01*
X57586D01*
Y-120714D01*
X51816D01*
Y-127254D01*
Y-133794D01*
X57586D01*
Y-133032D01*
X70032D01*
Y-133032D01*
X70199Y-132936D01*
X71298Y-133570D01*
X73022Y-134032D01*
X74806D01*
X76530Y-133570D01*
X78076Y-132678D01*
X79338Y-131416D01*
X80230Y-129870D01*
X80692Y-128146D01*
Y-126362D01*
X80230Y-124638D01*
X79338Y-123092D01*
X78076Y-121830D01*
X76530Y-120938D01*
X74806Y-120476D01*
D02*
G37*
G36*
X35208Y-118232D02*
X28938D01*
Y-124002D01*
X35208D01*
Y-118232D01*
D02*
G37*
G36*
Y-126542D02*
X28938D01*
Y-132312D01*
X35208D01*
Y-126542D01*
D02*
G37*
G36*
X44018Y-118232D02*
X37748D01*
Y-125272D01*
Y-132312D01*
X43506D01*
Y-133794D01*
X49276D01*
Y-127254D01*
Y-120714D01*
X44018D01*
Y-118232D01*
D02*
G37*
G36*
X43256Y-137994D02*
Y-137994D01*
X43206Y-137994D01*
X29700D01*
Y-150550D01*
X43256D01*
Y-150550D01*
X44268Y-150050D01*
X56824D01*
Y-150050D01*
X57476D01*
Y-150050D01*
X70032D01*
Y-138494D01*
X57476D01*
Y-138494D01*
X56824D01*
Y-138494D01*
X44268D01*
X44268Y-138494D01*
X43256Y-137994D01*
D02*
G37*
G36*
X74806Y-155020D02*
X73022D01*
X71298Y-155482D01*
X70149Y-156145D01*
X70032Y-156078D01*
Y-156078D01*
X57586D01*
Y-155316D01*
X51816D01*
Y-161856D01*
Y-168396D01*
X57586D01*
Y-167634D01*
X70032D01*
Y-167634D01*
X70249Y-167509D01*
X71298Y-168114D01*
X73022Y-168576D01*
X74806D01*
X76530Y-168114D01*
X78076Y-167222D01*
X79338Y-165960D01*
X80230Y-164414D01*
X80692Y-162690D01*
Y-160906D01*
X80230Y-159182D01*
X79338Y-157636D01*
X78076Y-156374D01*
X76530Y-155482D01*
X74806Y-155020D01*
D02*
G37*
G36*
X35208Y-152834D02*
X28938D01*
Y-158604D01*
X35208D01*
Y-152834D01*
D02*
G37*
G36*
Y-161144D02*
X28938D01*
Y-166914D01*
X35208D01*
Y-161144D01*
D02*
G37*
G36*
X44018Y-152834D02*
X37748D01*
Y-159874D01*
Y-166914D01*
X43506D01*
Y-168396D01*
X49276D01*
Y-161856D01*
Y-155316D01*
X44018D01*
Y-152834D01*
D02*
G37*
G36*
X43256Y-172596D02*
Y-172596D01*
X43206Y-172596D01*
X29700D01*
Y-185152D01*
X43256D01*
Y-185152D01*
X44268Y-184652D01*
X56824D01*
Y-184652D01*
X57476D01*
Y-184652D01*
X70032D01*
Y-173096D01*
X57476D01*
Y-173096D01*
X56824D01*
Y-173096D01*
X44268D01*
X44268Y-173096D01*
X43256Y-172596D01*
D02*
G37*
G36*
X74806Y-189564D02*
X73022D01*
X71298Y-190026D01*
X70111Y-190711D01*
X70032Y-190666D01*
Y-190666D01*
X57586D01*
Y-189904D01*
X51816D01*
Y-196444D01*
Y-202984D01*
X57586D01*
Y-202222D01*
X70032D01*
Y-202222D01*
X70287Y-202075D01*
X71298Y-202658D01*
X73022Y-203120D01*
X74806D01*
X76530Y-202658D01*
X78076Y-201766D01*
X79338Y-200504D01*
X80230Y-198958D01*
X80692Y-197234D01*
Y-195450D01*
X80230Y-193726D01*
X79338Y-192180D01*
X78076Y-190918D01*
X76530Y-190026D01*
X74806Y-189564D01*
D02*
G37*
G36*
X35208Y-187422D02*
X28938D01*
Y-193192D01*
X35208D01*
Y-187422D01*
D02*
G37*
G36*
Y-195732D02*
X28938D01*
Y-201502D01*
X35208D01*
Y-195732D01*
D02*
G37*
G36*
X44018Y-187422D02*
X37748D01*
Y-194462D01*
Y-201502D01*
X43506D01*
Y-202984D01*
X49276D01*
Y-196444D01*
Y-189904D01*
X44018D01*
Y-187422D01*
D02*
G37*
G36*
X212852Y104584D02*
X207082D01*
Y99314D01*
X212852D01*
Y104584D01*
D02*
G37*
G36*
Y96774D02*
X207082D01*
Y91504D01*
X212852D01*
Y96774D01*
D02*
G37*
G36*
X198374Y52258D02*
Y41382D01*
X202752D01*
Y46862D01*
X202323Y49024D01*
X201098Y50856D01*
X199266Y52081D01*
X198374Y52258D01*
D02*
G37*
G36*
X195834D02*
X194942Y52081D01*
X193110Y50856D01*
X191885Y49024D01*
X191455Y46862D01*
Y41382D01*
X195834D01*
Y52258D01*
D02*
G37*
G36*
X202752Y38842D02*
X191455D01*
Y33362D01*
X191885Y31200D01*
X192415Y30408D01*
X191770Y29202D01*
Y23368D01*
X197040D01*
Y27661D01*
X197104Y27713D01*
X199266Y28143D01*
X201098Y29368D01*
X202323Y31200D01*
X202752Y33362D01*
Y38842D01*
D02*
G37*
G36*
X184404Y51734D02*
X182540Y51363D01*
X180959Y50307D01*
X179903Y48726D01*
X179532Y46862D01*
Y33362D01*
X179903Y31498D01*
X180959Y29917D01*
X182540Y28861D01*
X183960Y28579D01*
Y23368D01*
X189230D01*
Y29138D01*
X188794D01*
X188177Y30408D01*
X188905Y31498D01*
X189276Y33362D01*
Y46862D01*
X188905Y48726D01*
X187849Y50307D01*
X186268Y51363D01*
X184404Y51734D01*
D02*
G37*
G36*
X211176Y7040D02*
X204906D01*
Y1270D01*
X211176D01*
Y7040D01*
D02*
G37*
G36*
X182300Y-978D02*
X176530D01*
Y-6248D01*
X182300D01*
Y-978D01*
D02*
G37*
G36*
X211176Y-1270D02*
X204906D01*
Y-7040D01*
X211176D01*
Y-1270D01*
D02*
G37*
%LPD*%
D12*
X125222Y-187706D02*
Y-162560D01*
X113746Y-151084D02*
Y-111252D01*
Y-151084D02*
X125222Y-162560D01*
X96533Y-162475D02*
X97028Y-187706D01*
X90424Y-156601D02*
Y-76200D01*
Y-156601D02*
X96533Y-162475D01*
X133604Y40112D02*
Y50800D01*
X123698Y60706D02*
X133604Y50800D01*
X35560Y116840D02*
X58928D01*
X-7112Y123386D02*
X3360D01*
X113746Y-111252D02*
Y-109824D01*
X99060Y-111252D02*
X113746D01*
X135128Y148590D02*
Y161544D01*
Y148590D02*
X139374Y144344D01*
X141233D01*
X76962Y-52070D02*
X87884D01*
X88138Y-52324D01*
X113746D01*
X95504Y134112D02*
Y159004D01*
X90424Y170434D02*
Y200406D01*
Y170434D02*
X99822Y161036D01*
X85090Y169418D02*
X95504Y159004D01*
X71266Y169418D02*
X85090D01*
X99822Y150114D02*
Y161036D01*
X35458Y138024D02*
Y153336D01*
X65424Y163576D02*
X71266Y169418D01*
X143764Y157988D02*
X148844Y152908D01*
X134874Y181102D02*
Y194564D01*
Y181102D02*
X143764Y172212D01*
Y157988D02*
Y172212D01*
X127254Y114046D02*
Y207187D01*
X120319Y214122D02*
X127254Y207187D01*
X34290Y214122D02*
X120319D01*
X127254Y114046D02*
X137668Y103632D01*
X142240Y67564D02*
Y105410D01*
X119126Y23622D02*
X120904Y25400D01*
Y40112D01*
X133604Y114046D02*
Y134112D01*
Y114046D02*
X142240Y105410D01*
X137668Y59555D02*
Y103632D01*
X142240Y67564D02*
X148336Y61468D01*
X143883Y53340D02*
X164592D01*
X171704Y40112D02*
Y46228D01*
X137668Y59555D02*
X143883Y53340D01*
X164592D02*
X171704Y46228D01*
Y23876D02*
Y40112D01*
X129286Y15240D02*
X132334Y18288D01*
X129286Y-13208D02*
Y15240D01*
X132334Y18288D02*
X143256D01*
X63754Y-93022D02*
Y-82804D01*
X90424Y-76200D02*
X92544Y-74080D01*
X116166D02*
X120246Y-70000D01*
X92544Y-74080D02*
X116166D01*
X120246Y-52324D02*
Y-44300D01*
Y-70000D02*
Y-52324D01*
X63754Y-127254D02*
X73914D01*
X159004Y116332D02*
Y134112D01*
X171704Y116332D02*
Y134112D01*
X3360Y123386D02*
X5842Y120904D01*
X126746Y-109824D02*
Y-101346D01*
X129540Y-98552D02*
X145034D01*
X126746Y-101346D02*
X129540Y-98552D01*
X101346Y-97028D02*
X115824D01*
X120246Y-109824D02*
Y-101450D01*
X115824Y-97028D02*
X120246Y-101450D01*
X99060Y-94742D02*
X101346Y-97028D01*
X99060Y-94742D02*
Y-82042D01*
X114554Y-38608D02*
X120246Y-44300D01*
X114554Y-38608D02*
Y-36830D01*
X126238Y-24130D02*
X126746Y-24638D01*
Y-52324D02*
Y-24638D01*
X129286Y-13208D02*
X135890Y-19812D01*
X184658D01*
X147828Y-33274D02*
X157988D01*
X-4064Y147828D02*
X3048D01*
X-15748Y143002D02*
X-8890D01*
X-4064Y147828D01*
X-24130Y134620D02*
X-15748Y143002D01*
X27410Y125454D02*
Y163808D01*
X-8224Y110386D02*
X12342D01*
X27410Y125454D01*
Y163808D02*
X35306Y171704D01*
X46736D01*
X63754Y90170D02*
Y104648D01*
Y77470D02*
Y90170D01*
X27432Y82550D02*
X30988Y78994D01*
X45212D02*
X46736Y77470D01*
X30988Y78994D02*
X45212D01*
X27432Y82550D02*
Y87630D01*
X24892Y90170D02*
X27432Y87630D01*
X55118Y67056D02*
X68326Y53848D01*
X55118Y67056D02*
Y103886D01*
X68326Y53848D02*
X98298D01*
X55118Y103886D02*
X55118Y103886D01*
X49276Y103886D02*
X55118D01*
X137160Y-8841D02*
Y-7620D01*
Y-8841D02*
X143559Y-15240D01*
X184706D01*
X190446Y-9500D01*
X184658Y-19812D02*
X188976Y-24130D01*
Y-58674D02*
Y-24130D01*
X160020Y-83820D02*
Y-72136D01*
X157988Y-33274D02*
X160020Y-35306D01*
X146304Y21336D02*
Y32258D01*
X143256Y18288D02*
X146304Y21336D01*
X147320Y-100838D02*
X160020D01*
X145034Y-98552D02*
X147320Y-100838D01*
Y-52324D02*
X160020D01*
X133246D02*
X147320D01*
X182118Y110744D02*
X184404Y113030D01*
Y134112D01*
X-8224Y123386D02*
X-7112D01*
X-7112Y123386D02*
Y134620D01*
X-7112Y123386D02*
X-7112Y123386D01*
X-11938Y96012D02*
X-6096Y90170D01*
X-23114Y96012D02*
X-11938D01*
X46736Y171704D02*
Y184404D01*
X35458Y138024D02*
X37084Y136398D01*
X7366Y172212D02*
Y174498D01*
X98298Y53848D02*
X101854Y50292D01*
Y21590D02*
Y50292D01*
Y21590D02*
X103378Y20066D01*
Y7366D02*
Y20066D01*
X86360D02*
Y25908D01*
X82804Y29464D02*
Y40112D01*
Y29464D02*
X86360Y25908D01*
X47244Y123444D02*
X47302Y123386D01*
X49276D01*
X47244Y123444D02*
Y136398D01*
X37084D02*
X47244D01*
X82804Y134112D02*
Y140862D01*
X78124Y145542D02*
X82804Y140862D01*
X54610Y145542D02*
X78124D01*
X46736Y153416D02*
X54610Y145542D01*
X46736Y153416D02*
Y154686D01*
X-6096Y90170D02*
X6858D01*
X35306D02*
X46736D01*
X58016Y110386D02*
X63754Y104648D01*
X49276Y110386D02*
X58016D01*
X58928Y116840D02*
X63754Y121666D01*
X-24130Y134620D02*
X-24084Y134574D01*
Y116886D02*
Y134574D01*
Y116886D02*
X-8224D01*
X-73406Y118618D02*
X-56388D01*
X-73406Y135636D02*
Y146812D01*
X-57252Y118872D02*
X-56134D01*
X24638Y204470D02*
X34290Y214122D01*
X189078Y-58572D02*
X209347D01*
X146304Y32258D02*
Y40112D01*
X137160Y9398D02*
X149860D01*
X99822Y150114D02*
X108204Y141732D01*
Y134112D02*
Y141732D01*
X-71628Y103886D02*
X-69342Y101600D01*
Y89154D02*
Y101600D01*
X7366Y159512D02*
Y172212D01*
X162560Y-7620D02*
X175158D01*
X149860D02*
X162560D01*
X149860Y9398D02*
X152400Y11938D01*
Y25146D02*
X159004Y31750D01*
X152400Y11938D02*
Y25146D01*
X159004Y31750D02*
Y40112D01*
X-57252Y119990D02*
Y132528D01*
X9398Y187558D02*
X24638D01*
X63754Y-196444D02*
X73812D01*
X63754Y-161856D02*
X73856D01*
X171704Y23876D02*
X173482Y22098D01*
X38460Y-196444D02*
X50546D01*
X38460Y-161856D02*
X50546D01*
X38460Y-127254D02*
X50546D01*
X38460Y-93022D02*
X50546D01*
X-25196Y-196444D02*
X-12954D01*
X-25196Y-161856D02*
X-12954D01*
X-25196Y-127254D02*
X-12954D01*
X-25196Y-93022D02*
X-12954D01*
X11684Y-194100D02*
X14478Y-196894D01*
Y-203962D02*
Y-196894D01*
X762Y-194100D02*
X11684D01*
Y-159512D02*
X14478Y-162306D01*
Y-169374D02*
Y-162306D01*
X762Y-159512D02*
X11684D01*
Y-124910D02*
X14478Y-127704D01*
Y-134772D02*
Y-127704D01*
X762Y-124910D02*
X11684D01*
X762Y-90678D02*
X11684D01*
X14478Y-100540D02*
Y-93472D01*
X11684Y-90678D02*
X14478Y-93472D01*
X-12954Y-144272D02*
X762D01*
X-27178D02*
X-12954D01*
Y-178874D02*
X762D01*
X-27178D02*
X-12954D01*
Y-213462D02*
X762D01*
X-27178D02*
X-12954D01*
X50546D02*
X63754D01*
X36478D02*
X50546D01*
Y-178874D02*
X63754D01*
X36478D02*
X50546D01*
Y-144272D02*
X63754D01*
X36478D02*
X50546D01*
Y-110040D02*
X63754D01*
X36478D02*
X50546D01*
X-12954D02*
X762D01*
X-27178D02*
X-12954D01*
D16*
X135128Y178562D02*
D03*
Y161544D02*
D03*
X100584Y-52070D02*
D03*
Y-35052D02*
D03*
X87884Y-52070D02*
D03*
Y-35052D02*
D03*
X99060Y-111760D02*
D03*
Y-94742D02*
D03*
X160020Y-100838D02*
D03*
Y-83820D02*
D03*
X147320Y-100838D02*
D03*
Y-83820D02*
D03*
Y-50800D02*
D03*
Y-67818D02*
D03*
X160020Y-50800D02*
D03*
Y-33782D02*
D03*
X46736Y154686D02*
D03*
Y171704D02*
D03*
X103378Y-9652D02*
D03*
Y7366D02*
D03*
X-23114Y96012D02*
D03*
Y113030D02*
D03*
X63754Y104648D02*
D03*
Y121666D02*
D03*
X46736Y201422D02*
D03*
Y184404D02*
D03*
X24638Y204470D02*
D03*
Y187452D02*
D03*
X214122Y98044D02*
D03*
Y115062D02*
D03*
X149860Y-7620D02*
D03*
Y9398D02*
D03*
X137160D02*
D03*
Y-7620D02*
D03*
X63754Y-178874D02*
D03*
Y-161856D02*
D03*
X50546D02*
D03*
Y-178874D02*
D03*
X63754Y-213462D02*
D03*
Y-196444D02*
D03*
X50546D02*
D03*
Y-213462D02*
D03*
X762D02*
D03*
Y-196444D02*
D03*
Y-144272D02*
D03*
Y-127254D02*
D03*
Y-110040D02*
D03*
Y-93022D02*
D03*
X-12954Y-196444D02*
D03*
Y-213462D02*
D03*
Y-127254D02*
D03*
Y-144272D02*
D03*
Y-93022D02*
D03*
Y-110040D02*
D03*
X-63246Y-93022D02*
D03*
Y-110040D02*
D03*
Y-196444D02*
D03*
Y-213462D02*
D03*
X762Y-178874D02*
D03*
Y-161856D02*
D03*
X162560Y-7620D02*
D03*
Y9398D02*
D03*
X-73406Y146812D02*
D03*
Y163830D02*
D03*
X50546Y-110040D02*
D03*
Y-93022D02*
D03*
X63754Y-127254D02*
D03*
Y-144272D02*
D03*
X-12954Y-178874D02*
D03*
Y-161856D02*
D03*
X-73406Y118618D02*
D03*
Y135636D02*
D03*
X63754Y-93022D02*
D03*
Y-110040D02*
D03*
X-63246Y-144272D02*
D03*
Y-127254D02*
D03*
X50546Y-144272D02*
D03*
Y-127254D02*
D03*
X-63246Y-178816D02*
D03*
Y-161798D02*
D03*
X-153866Y-7366D02*
D03*
Y9652D02*
D03*
X214122Y127762D02*
D03*
Y144780D02*
D03*
X175260Y9500D02*
D03*
Y-7518D02*
D03*
X-38354Y175260D02*
D03*
Y192278D02*
D03*
D17*
X135128Y194564D02*
D03*
X118110D02*
D03*
X114554Y-36830D02*
D03*
X131572D02*
D03*
X126238Y-24130D02*
D03*
X109220D02*
D03*
X99060Y-82042D02*
D03*
X82042D02*
D03*
X-24130Y134620D02*
D03*
X-7112D02*
D03*
X86360Y20066D02*
D03*
X103378D02*
D03*
X46736Y77470D02*
D03*
X63754D02*
D03*
X46736Y90170D02*
D03*
X63754D02*
D03*
X20066Y147828D02*
D03*
X3048D02*
D03*
X134620Y151384D02*
D03*
X-52324Y89154D02*
D03*
X-69342D02*
D03*
X7366Y172212D02*
D03*
X-9652D02*
D03*
X190500Y22098D02*
D03*
X173482D02*
D03*
X64262Y136398D02*
D03*
X47244D02*
D03*
X-39116Y118872D02*
D03*
X-56134D02*
D03*
X-136848Y-21844D02*
D03*
X-153866D02*
D03*
X-9652Y159512D02*
D03*
X7366D02*
D03*
X37084Y136398D02*
D03*
X20066D02*
D03*
D18*
X82804Y40112D02*
D03*
X95504D02*
D03*
X108204D02*
D03*
X120904D02*
D03*
X133604D02*
D03*
X146304D02*
D03*
X159004D02*
D03*
X171704D02*
D03*
X184404D02*
D03*
X197104D02*
D03*
X82804Y134112D02*
D03*
X95504D02*
D03*
X108204D02*
D03*
X120904D02*
D03*
X133604D02*
D03*
X146304D02*
D03*
X159004D02*
D03*
X171704D02*
D03*
X184404D02*
D03*
X197104D02*
D03*
D19*
X113746Y-109824D02*
D03*
D20*
X120246D02*
D03*
X126746D02*
D03*
X133246D02*
D03*
X113746Y-52324D02*
D03*
X120246D02*
D03*
X126746D02*
D03*
X133246D02*
D03*
D21*
X125222Y-187706D02*
D03*
X97028D02*
D03*
D22*
X35306Y90170D02*
D03*
X24892D02*
D03*
X6858D02*
D03*
X17272D02*
D03*
X-100838Y101092D02*
D03*
X-90424D02*
D03*
D23*
X49276Y103886D02*
D03*
Y110386D02*
D03*
Y116886D02*
D03*
Y123386D02*
D03*
X-8224Y103886D02*
D03*
Y110386D02*
D03*
Y116886D02*
D03*
D24*
Y123386D02*
D03*
D25*
X151638Y151384D02*
D03*
D26*
X115424Y163576D02*
D03*
X90424Y197866D02*
D03*
X65424Y163576D02*
D03*
D27*
X-78486Y-92964D02*
D03*
X-107986D02*
D03*
X-78486Y-127254D02*
D03*
X-107986D02*
D03*
X-78486Y-161798D02*
D03*
X-107986D02*
D03*
X-78486Y-196342D02*
D03*
X-107986D02*
D03*
D28*
X14478Y-203962D02*
D03*
X36478Y-194462D02*
D03*
Y-213462D02*
D03*
X14478Y-169374D02*
D03*
X36478Y-159874D02*
D03*
Y-178874D02*
D03*
X14478Y-134772D02*
D03*
X36478Y-125272D02*
D03*
Y-144272D02*
D03*
X14478Y-100540D02*
D03*
X36478Y-91040D02*
D03*
Y-110040D02*
D03*
X-49178Y-100540D02*
D03*
X-27178Y-91040D02*
D03*
Y-110040D02*
D03*
X-49178Y-134772D02*
D03*
X-27178Y-125272D02*
D03*
Y-144272D02*
D03*
X-49178Y-169374D02*
D03*
X-27178Y-159874D02*
D03*
Y-178874D02*
D03*
X-49178Y-203962D02*
D03*
X-27178Y-194462D02*
D03*
Y-213462D02*
D03*
X212446Y0D02*
D03*
X190446Y-9500D02*
D03*
Y9500D02*
D03*
D29*
X-153866Y-41910D02*
D03*
X-124866D02*
D03*
X-153866Y-70612D02*
D03*
X-124866D02*
D03*
X-153866Y-98637D02*
D03*
X-124866D02*
D03*
X-153866Y-127000D02*
D03*
X-124866D02*
D03*
D30*
X-185420Y-70273D02*
D03*
X-185420Y-13547D02*
D03*
D31*
Y14817D02*
D03*
Y-98637D02*
D03*
Y-41910D02*
D03*
Y43180D02*
D03*
Y71543D02*
D03*
Y99907D02*
D03*
Y128270D02*
D03*
Y-127000D02*
D03*
D32*
X-135178Y-762D02*
D03*
Y9652D02*
D03*
X-117246Y-762D02*
D03*
Y9652D02*
D03*
X-99466D02*
D03*
Y-762D02*
D03*
X-24638Y150114D02*
D03*
Y160528D02*
D03*
D33*
X-55880Y176276D02*
D03*
Y197866D02*
D03*
D34*
X-116332Y148844D02*
D03*
Y119844D02*
D03*
D35*
X0Y212450D02*
D03*
X9398Y187558D02*
D03*
X-9652D02*
D03*
D36*
X-145288Y100510D02*
D03*
Y143510D02*
D03*
D37*
X-38252Y160528D02*
D03*
D38*
X-47752D02*
D03*
X-57252D02*
D03*
Y132528D02*
D03*
X-38252D02*
D03*
D39*
X-78232Y174350D02*
D03*
D40*
Y187050D02*
D03*
Y199750D02*
D03*
Y212450D02*
D03*
X-134874Y174350D02*
D03*
Y187050D02*
D03*
Y199750D02*
D03*
Y212450D02*
D03*
D41*
X-71628Y103886D02*
D03*
X-50038D02*
D03*
D73*
X-87595Y-10167D02*
G03*
X-99467Y-712I-11719J-2533D01*
G01*
X-38100Y-91186D02*
G03*
X-48466Y-73322I-20575J0D01*
G01*
X-87595Y-10167D02*
G03*
X-48161Y-73516I87341J10421D01*
G01*
X-102193Y100076D02*
X-102023Y99907D01*
X-185420D02*
X-145288D01*
X-110744Y100076D02*
X-102193D01*
X-145119D02*
X-110744D01*
X-145288Y99907D02*
X-145119Y100076D01*
X-116284Y148844D02*
X-108204D01*
X-116332D02*
X-116246Y148806D01*
X-116246D01*
X-108204Y148844D02*
X-100838Y141478D01*
Y101092D02*
Y141478D01*
X-117246Y9652D02*
Y18390D01*
X-100838Y34798D02*
Y101092D01*
X-117246Y18390D02*
X-100838Y34798D01*
X-102023Y99907D02*
X-100838Y101092D01*
X-38100Y-91040D02*
X-27178D01*
X-38100Y-189484D02*
Y-91040D01*
X-117246Y-762D02*
X-99466D01*
X-135178D02*
X-117246D01*
X-38050Y-159874D02*
X-27178D01*
X-38050Y-125272D02*
X-27178D01*
X-33122Y-194462D02*
X-27178D01*
X-38100Y-189484D02*
X-33122Y-194462D01*
D74*
X-162052Y43180D02*
X-155956Y49276D01*
X-185420Y43180D02*
X-162052D01*
X-155956Y49276D02*
X-112014D01*
X-185420Y71543D02*
X-162221D01*
X-152400Y61722D02*
X-112268D01*
X-162221Y71543D02*
X-152400Y61722D01*
X-78232Y186944D02*
X-64008D01*
X-93980D02*
X-78232D01*
Y181864D02*
Y186944D01*
X162560Y9398D02*
X190344D01*
X-134768Y186944D02*
X-119126D01*
X-134874Y187050D02*
X-134768Y186944D01*
X-134874Y199750D02*
X-134768Y199644D01*
X-119126D01*
X-93980D02*
X-78338D01*
X-78232Y199750D01*
Y204978D01*
X-134874Y199750D02*
Y204978D01*
Y181864D02*
Y187050D01*
X-78232Y186944D02*
Y187050D01*
Y199750D01*
X-147270D02*
X-134874D01*
Y187050D02*
Y199750D01*
X-78232D02*
X-57764D01*
X162052Y21590D02*
X162560Y21082D01*
Y9398D02*
Y21082D01*
X-24638Y150114D02*
X-14986D01*
X-9652Y155448D01*
Y159512D01*
X-39116Y100330D02*
X-38862Y100076D01*
X-39116Y107442D02*
Y118872D01*
X-38252Y132528D02*
Y142342D01*
X-30480Y150114D01*
X-24638D01*
X-38100Y119888D02*
Y132122D01*
X-39116Y118872D02*
X-38100Y119888D01*
X-52324Y89154D02*
Y101600D01*
X-50038Y103886D01*
X193548Y115062D02*
X214122D01*
X193294Y114808D02*
X193548Y115062D01*
X-9652Y172212D02*
Y187558D01*
Y159512D02*
Y172212D01*
X197104Y127762D02*
X197104Y127762D01*
X197104Y127762D02*
Y134112D01*
X197104Y127762D02*
X214122D01*
Y115062D02*
Y127762D01*
D75*
X-42672Y103886D02*
X-39116Y107442D01*
X-42672Y103886D02*
X-39116Y100330D01*
Y107442D01*
X-50038Y103886D02*
X-42672D01*
X-135178Y21082D02*
X-131572D01*
X-139192D02*
X-135178D01*
D76*
Y9652D02*
Y21082D01*
X-185420Y9652D02*
X-153866D01*
X-57252Y174244D02*
Y174350D01*
Y174244D02*
X-39370D01*
X-57252Y174350D02*
X-56642D01*
X-78232D02*
X-57252D01*
X-80920D02*
X-78232D01*
X-90424Y101092D02*
Y164846D01*
X-80920Y174350D01*
X-121666Y151892D02*
X-118618Y148844D01*
X-121666Y151892D02*
Y167894D01*
X-128122Y174350D02*
X-121666Y167894D01*
X-134874Y174350D02*
X-128122D01*
X-118618Y148844D02*
X-116332D01*
X-38252Y160528D02*
X-24638D01*
X-124866Y-46960D02*
Y-41910D01*
X-124866Y-46960D02*
X-102900D01*
X-124866Y-46960D02*
X-124866Y-46960D01*
X-102900D02*
X-78486Y-71374D01*
X-102362Y-67056D02*
X-95504Y-73914D01*
X-124866Y-67056D02*
X-102362D01*
X-124866Y-70612D02*
Y-67056D01*
X-114059Y-109444D02*
X-105694D01*
X-96266Y-134366D02*
Y-118872D01*
X-105694Y-109444D02*
X-96266Y-118872D01*
X-119634Y-149860D02*
X-99314D01*
X-124866Y-144628D02*
Y-127000D01*
Y-144628D02*
X-119634Y-149860D01*
X-96012Y-174752D02*
Y-153162D01*
X-99314Y-149860D02*
X-96012Y-153162D01*
X-78486Y-161798D02*
Y-152146D01*
X-96266Y-134366D02*
X-78486Y-152146D01*
X-96012Y-174752D02*
X-81026Y-189738D01*
X-124866Y-98637D02*
X-114059Y-109444D01*
X-78486Y-127254D02*
Y-118364D01*
X-95504Y-101346D02*
Y-73914D01*
Y-101346D02*
X-78486Y-118364D01*
Y-92964D02*
Y-71374D01*
X-108204Y-139700D02*
Y-127472D01*
X-107986Y-92964D02*
Y-78196D01*
X-81026Y-193802D02*
Y-189738D01*
X-78486Y-161856D02*
X-63246D01*
X-53028D01*
X-78486Y-127254D02*
X-63246D01*
X-81026Y-193802D02*
X-78486Y-196342D01*
X-63246Y-196444D02*
X-53028D01*
X-78486D02*
X-63246D01*
X-78486Y-92964D02*
X-63304D01*
X-99466Y9652D02*
Y21438D01*
X-90424Y30480D01*
Y101092D01*
X-57252Y160528D02*
Y174244D01*
X-38252Y160528D02*
Y175158D01*
X-38354Y175260D02*
X-38252Y175158D01*
X-39370Y174244D02*
X-38354Y175260D01*
X-153866Y9652D02*
X-135178D01*
X-185420Y-7366D02*
X-153866D01*
Y-21844D02*
Y-7366D01*
X-185420Y-41910D02*
X-153866D01*
X-185420Y-70612D02*
X-153866D01*
X-185420Y-98637D02*
X-153866D01*
X-185420Y-127000D02*
X-153866D01*
X-53028Y-196444D02*
X-49178Y-200294D01*
Y-203962D02*
Y-200294D01*
X-53028Y-161856D02*
X-49178Y-165706D01*
Y-169374D02*
Y-165706D01*
X-63246Y-127254D02*
X-53028D01*
X-49178Y-131104D01*
Y-134772D02*
Y-131104D01*
Y-100540D02*
Y-96872D01*
X-53028Y-93022D02*
X-49178Y-96872D01*
X-63246Y-93022D02*
X-53028D01*
D77*
X119126Y183896D02*
Y194564D01*
X146304Y134112D02*
Y154432D01*
D78*
X209347Y-109372D02*
D03*
Y-83972D02*
D03*
Y-58572D02*
D03*
Y-33172D02*
D03*
D79*
Y-134772D02*
D03*
D80*
X188976Y-84074D02*
D03*
Y-71374D02*
D03*
X191262Y-123444D02*
D03*
X-108966Y-179324D02*
D03*
X-120396Y35306D02*
D03*
X-145034Y75692D02*
D03*
X123524Y60706D02*
D03*
X124460Y-146812D02*
D03*
X76962Y-52070D02*
D03*
X65532Y-65278D02*
D03*
X110744Y-65786D02*
D03*
X213360Y81788D02*
D03*
X-113792Y174244D02*
D03*
X-119126Y186944D02*
D03*
Y199644D02*
D03*
X-93980D02*
D03*
Y186944D02*
D03*
X80010Y178308D02*
D03*
X35458Y153336D02*
D03*
X81280Y160020D02*
D03*
X-46990Y212852D02*
D03*
X119126Y183896D02*
D03*
X121666Y76708D02*
D03*
X119380Y111252D02*
D03*
X119126Y23622D02*
D03*
X145288Y115316D02*
D03*
X101092Y86360D02*
D03*
X148336Y61468D02*
D03*
X151130Y74168D02*
D03*
X63754Y-82804D02*
D03*
X89154Y4064D02*
D03*
X-106934Y162814D02*
D03*
X-145034Y164084D02*
D03*
X-100330Y174244D02*
D03*
X-106426Y186944D02*
D03*
Y199644D02*
D03*
X-99568Y212344D02*
D03*
X-113538D02*
D03*
X73914Y-127254D02*
D03*
X171704Y116332D02*
D03*
X159004D02*
D03*
X5842Y120904D02*
D03*
X147828Y-33274D02*
D03*
X162052Y21590D02*
D03*
X35306Y179832D02*
D03*
X-110744Y100076D02*
D03*
X-112268Y61722D02*
D03*
X-38862Y100076D02*
D03*
X101092Y-125730D02*
D03*
X130302Y-80772D02*
D03*
X160020Y-72136D02*
D03*
X182118Y110744D02*
D03*
X179578Y-29718D02*
D03*
X-49530Y146050D02*
D03*
X70104Y64516D02*
D03*
X99822Y173736D02*
D03*
X60198Y205486D02*
D03*
X115316Y205994D02*
D03*
X145034Y-113792D02*
D03*
X-24384Y184912D02*
D03*
X-23622Y85090D02*
D03*
X75946Y118364D02*
D03*
X21590Y106680D02*
D03*
X35560Y116840D02*
D03*
X-39116Y107442D02*
D03*
X23368Y215392D02*
D03*
X-138430Y-150876D02*
D03*
X-108458Y-77724D02*
D03*
X-108204Y-139700D02*
D03*
X-77978Y-176530D02*
D03*
X-75692Y-140462D02*
D03*
X-155702Y25146D02*
D03*
X190500Y56642D02*
D03*
X193294Y114808D02*
D03*
X213106Y14478D02*
D03*
Y-14478D02*
D03*
X-213868Y119888D02*
D03*
X193040Y102616D02*
D03*
X153670Y214884D02*
D03*
X215138Y-152654D02*
D03*
X151892Y-213868D02*
D03*
X76454Y-214376D02*
D03*
X-80010Y78486D02*
D03*
X-86360Y18034D02*
D03*
X21844Y-87122D02*
D03*
X22606Y-151384D02*
D03*
X22098Y-215392D02*
D03*
X-75692Y-106172D02*
D03*
X-65024Y-77724D02*
D03*
X-116840Y-19050D02*
D03*
X-139954Y-41402D02*
D03*
X-139446Y-98044D02*
D03*
X-79502Y-212090D02*
D03*
X-149352Y-212344D02*
D03*
X-213868Y-113792D02*
D03*
Y-55880D02*
D03*
Y1778D02*
D03*
Y56896D02*
D03*
X-145034Y121920D02*
D03*
X-213868Y148590D02*
D03*
X-60706Y212598D02*
D03*
X-152908Y214376D02*
D03*
X-112014Y49276D02*
D03*
X-139192Y21082D02*
D03*
X-131572D02*
D03*
X73914Y-161798D02*
D03*
Y-196342D02*
D03*
D81*
X188976Y-58674D02*
D03*
D82*
X185000Y-185000D02*
D03*
X-185000D02*
D03*
Y185000D02*
D03*
X185000D02*
D03*
M02*
