M48
;DRILLfile{KiCad9.99.0-2186-g70c488c248}date2025-11-25T07:56:21+0000
;FORMAT={-:-/absolute/metric/decimal}
;#@!TF.CreationDate,2025-11-25T07:56:21+00:00
;#@!TF.GenerationSoftware,Kicad,Pcbnew,9.99.0-2186-g70c488c248
;#@!TF.FileFunction,MixedPlating,1,4
FMAT,2
METRIC
;#@!TA.AperFunction,Plated,PTH,ViaDrill
T1C0.012
;#@!TA.AperFunction,Plated,PTH,ViaDrill
T2C0.015
;#@!TA.AperFunction,Plated,PTH,ViaDrill
T3C0.016
;#@!TA.AperFunction,Plated,PTH,ViaDrill
T4C0.02
;#@!TA.AperFunction,Plated,PTH,ViaDrill
T5C0.025
;#@!TA.AperFunction,Plated,PTH,ViaDrill
T6C0.028
;#@!TA.AperFunction,Plated,PTH,ViaDrill
T7C0.0295
;#@!TA.AperFunction,Plated,PTH,ViaDrill
T8C0.03
;#@!TA.AperFunction,Plated,PTH,ComponentDrill
T9C0.0315
;#@!TA.AperFunction,Plated,PTH,ViaDrill
T10C0.032
;#@!TA.AperFunction,Plated,PTH,ComponentDrill
T11C0.0354
;#@!TA.AperFunction,Plated,PTH,ComponentDrill
T12C0.0394
;#@!TA.AperFunction,Plated,PTH,ComponentDrill
T13C0.0472
;#@!TA.AperFunction,Plated,PTH,ViaDrill
T14C0.05
;#@!TA.AperFunction,Plated,PTH,ComponentDrill
T15C0.0787
;#@!TA.AperFunction,Plated,PTH,ComponentDrill
T16C0.0906
;#@!TA.AperFunction,NonPlated,NPTH,ComponentDrill
T17C0.0551
%
G90
T1
X047638.75Y-389764.399
X048819.29Y-039764.939
X049606.957Y-338583.141
X050000.338Y-354331.64
X050000.669Y-334646.506
X051181.228Y-334646.384
X051575.148Y-334646.556
X051575.501Y-041339.876
X051969.291Y-334646.556
X053150.86Y-040945.352
X053150.974Y-374016.208
X053543.355Y-377953.605
X053543.482Y-358268.652
X053543.863Y-374016.081
X053543.99Y-041339.749
X053937.119Y-381890.242
X053937.244Y-039764.634
X053937.335Y-358268.997
X053937.498Y-374016.97
X053937.835Y-370079.904
X053937.879Y-381890.874
X054331.768Y-039370.669
X054331.768Y-041339.368
X054724.149Y-370079.954
X054724.403Y-385827.028
X054724.53Y-039370.034
X055118.038Y-040157.193
X056299.086Y-046850.669
X056299.213Y-041732.638
X056299.467Y-040157.447
X057087.499Y-370079.954
X057087.499Y-377953.224
X057087.499Y-381890.494
X057087.753Y-385827.891
X057480.261Y-374016.589
X057480.35Y-385827.167
X057480.388Y-377953.859
X057480.515Y-370079.319
X057480.642Y-389764.526
X058268.547Y-366142.43
X058661.182Y-370079.573
X058661.436Y-374016.716
X059055.579Y-362205.922
X059449.214Y-370079.446
X059449.976Y-374016.716
X059843.357Y-039764.05
X060236.246Y-362205.922
X060236.246Y-370079.446
X060630.008Y-366142.684
X060630.008Y-374016.081
X061417.167Y-051575.022
X063780.39Y-040157.32
X065748.208Y-334646.81
X066142.74Y-326772.524
X066535.028Y-047244.206
X067717.296Y-040157.193
X068504.862Y-052756.502
X069291.36Y-045276.782
X069291.36Y-046063.433
X069291.532Y-044094.69
X070472.281Y-385827.002
X070472.408Y-374016.081
X070472.662Y-044094.099
X070472.916Y-044488.75
X070866.17Y-042913.559
X070866.17Y-043307.448
X070866.297Y-041339.876
X070866.297Y-041732.765
X070866.678Y-047638.624
X071260.567Y-047638.624
X071260.821Y-050394.101
X071260.821Y-050787.117
X071654.329Y-045276.528
X071654.329Y-046063.687
X073228.139Y-046063.687
X074016.171Y-044488.623
X074016.171Y-046063.687
X074803.203Y-044094.512
X077953.966Y-042913.94
X079528.903Y-303150.047
X079921.538Y-053543.428
X081890.872Y-048031.767
X084646.095Y-050000.72
X084646.095Y-051181.133
X084646.476Y-048425.783
T2
X042913.05Y-047244.1
X042913.177Y-051181.768
X042913.685Y-057874.913
X043307.045Y-042520.086
X043307.045Y-043701.134
X043307.193Y-053937.372
X043307.955Y-058268.802
X043701.013Y-259843.43
X043701.59Y-055512.944
X044094.791Y-259843.43
X044488.546Y-039764.66
X044488.749Y-040945.733
X044488.876Y-389764.018
X044488.876Y-044094.607
X044488.921Y-039370.46
X044882.003Y-043701.083
X044882.045Y-381890.96
X044882.13Y-041732.257
X044882.13Y-046063.052
X044882.384Y-044882.766
X044882.542Y-040551.24
X045276.204Y-259843.684
X045669.086Y-299213.717
X046063.305Y-046457.322
X046063.305Y-048819.418
X046063.686Y-055512.69
X046457.321Y-346457.604
X046457.702Y-307087.19
X046457.702Y-043307.194
X046457.829Y-334646.556
X046850.591Y-043307.829
X046850.972Y-318898.238
X047244.099Y-334646.048
X047638.623Y-346457.477
X048031.512Y-039370.161
X048425.401Y-377953.224
X048425.528Y-346457.477
X048425.528Y-039370.415
X048819.417Y-385827.129
X048819.44Y-389764.145
X048819.544Y-044882.893
X048819.925Y-042520.035
X049213.306Y-042913.432
X049606.322Y-042520.035
X050000.192Y-043701.261
X050000.269Y-048425.072
X050394.151Y-047244.253
X050394.158Y-354331.687
X050787.096Y-053150.158
X050787.243Y-040157.447
X051181.132Y-342520.588
X051181.819Y-042126.35
X051969.819Y-047244.902
X053150.212Y-040551.336
X053543.413Y-303150.428
X053543.954Y-042126.197
X054331.26Y-050787.879
X054331.895Y-052756.906
X054331.965Y-052362.366
X054724.2Y-044488.903
X055512.308Y-291339.126
X055512.435Y-283465.475
X055512.562Y-362205.668
X055906.456Y-366142.43
X056299.213Y-041339.495
X056299.213Y-043307.194
X056693.483Y-053150.721
X056693.737Y-044488.369
X057087.753Y-053150.721
X057480.285Y-044488.649
X057874.023Y-053150.721
X058661.436Y-040551.717
X059055.579Y-326772.016
X059449.341Y-042126.273
X059843.23Y-051181.641
X059843.611Y-047638.37
X059843.738Y-267717.411
X059843.865Y-044882.766
X060236.373Y-051181.641
X060630.516Y-051181.641
X061024.151Y-362205.033
X061024.717Y-299213.844
X061024.786Y-040157.32
X061811.31Y-043701.464
X061811.437Y-326772.016
X061811.749Y-279528.383
X061811.776Y-042520.027
X062205.199Y-051969.546
X062205.58Y-040157.32
X062205.58Y-051575.657
X062205.707Y-303150.555
X062598.215Y-051969.546
X062598.342Y-044488.369
X062598.953Y-295276.066
X062598.977Y-358268.398
X063386.051Y-279528.256
X063780.39Y-053150.848
X063780.575Y-244094.366
X064173.533Y-307087.19
X064173.66Y-358268.398
X064567.168Y-326772.143
X064567.168Y-374016.716
X064567.93Y-053150.848
X064961.565Y-040945.606
X065354.073Y-049213.053
X065354.581Y-048819.037
X065354.835Y-047244.227
X065748.216Y-049213.053
X065748.851Y-041732.003
X065748.978Y-055512.055
X066142.994Y-043701.718
X066535.052Y-318898.492
X066535.248Y-039764.558
X066535.756Y-042126.908
X066929.391Y-044094.988
X066929.645Y-039764.558
X067323.458Y-291339.812
X067323.788Y-051181.006
X067717.804Y-045276.782
X067717.931Y-051181.006
X068110.844Y-330709.564
X068504.074Y-051181.006
X068898.344Y-318898.619
X068898.471Y-041339.368
X069291.36Y-342520.08
X069291.868Y-041732.511
X070079.323Y-255906.16
X070079.519Y-051969.8
X070472.535Y-040945.225
X070472.662Y-051969.8
X070472.72Y-291339.431
X070866.551Y-052362.943
X070866.863Y-307087.114
X071260.313Y-389764.145
X071260.821Y-051969.927
X071654.456Y-374016.081
X072047.599Y-307087.063
X072047.853Y-314961.984
X072835.504Y-389764.145
X072835.689Y-255906.16
X072835.816Y-259843.775
X073228.266Y-042520.162
X073228.393Y-374016.081
X074016.237Y-248031.382
X074016.61Y-267717.97
X074016.933Y-054724.15
X074409.187Y-041732.892
X074409.187Y-042913.432
X074409.314Y-389764.145
X074409.314Y-046063.474
X074409.88Y-267717.843
X074803.203Y-374016.081
X074803.203Y-046457.83
X074803.965Y-041732.892
X075197.023Y-291339.05
X075197.092Y-046063.474
X075197.092Y-054724.15
X075591.108Y-046457.83
X075591.235Y-338583.953
X075591.743Y-054724.15
X075591.87Y-354331.255
X075591.87Y-046063.474
X075984.505Y-366142.811
X075984.759Y-051181.514
X075984.886Y-046457.83
X076378.648Y-046063.433
X076378.775Y-267717.792
X076378.775Y-052756.197
X076378.775Y-053150.34
X076378.902Y-051181.514
X076378.902Y-051575.657
X076772.664Y-046457.703
X077165.426Y-046063.433
X077165.553Y-346457.35
X077165.553Y-370079.446
X077165.807Y-303150.936
X077953.077Y-346457.731
X077953.077Y-052756.197
X077953.077Y-053150.213
X078346.347Y-271654.3
X079134.379Y-342520.08
X079134.945Y-263780.065
X079921.088Y-295276.924
X079921.469Y-240157.731
X080315.935Y-279528.002
X081102.39Y-322835.559
X081102.586Y-052362.816
X081102.586Y-052756.832
X081496.221Y-046850.075
X081496.348Y-042913.432
X081496.856Y-279528.713
X081496.914Y-295276.193
X082283.507Y-326772.524
X082677.962Y-040551.768
X083071.724Y-334646.988
X083071.92Y-307087.063
X083465.105Y-358268.195
X083465.232Y-385827.18
X083465.232Y-039764.609
X083858.19Y-318898.365
X083858.761Y-374016.259
X084646.026Y-389764.45
X085039.55Y-054331.185
T3
X311024.586Y-255906.49
X311024.771Y-263780.954
X311024.771Y-275591.494
X311024.771Y-287402.034
X311024.771Y-295276.447
X311024.771Y-307087.114
X311024.771Y-314961.654
X311024.771Y-326772.194
X311024.771Y-334646.734
X311024.771Y-346457.274
X314961.138Y-244094.098
X314961.221Y-236220.41
X318898.745Y-275591.57
X318898.745Y-283465.983
X318898.999Y-346457.35
X322835.761Y-236220.41
X326772.523Y-240157.68
X330709.158Y-330709.667
X330709.285Y-318898.873
X330709.539Y-346457.35
X334646.047Y-236220.41
X334646.555Y-291339.634
X334646.936Y-299213.539
X334646.936Y-303150.555
X342520.587Y-236220.41
X342520.587Y-240157.68
X342520.645Y-342520.893
X346457.603Y-354331.89
X346457.603Y-366142.684
X346457.603Y-377953.478
X346457.603Y-385827.764
X346457.603Y-040157.066
X346457.603Y-041339.114
X346457.603Y-042520.416
X346457.603Y-043701.464
X346457.603Y-044882.258
X346457.603Y-046063.052
X354331.127Y-236220.41
X354331.508Y-051969.673
X354331.508Y-053150.213
X358268.651Y-240157.68
X362205.667Y-236220.41
X366142.048Y-051969.673
X366142.048Y-053150.213
X370079.699Y-240157.68
X370079.953Y-045276.147
X374016.207Y-236220.41
X374016.969Y-370079.7
X374016.969Y-381890.24
X374016.969Y-039370.161
X374016.969Y-040157.701
X377953.223Y-051969.673
X377953.223Y-053150.213
X377953.35Y-045669.671
X377953.731Y-240157.68
X381890.747Y-043701.354
X385827.001Y-236220.41
X385827.001Y-046457.322
X385827.509Y-381890.24
X385827.509Y-039370.161
X385827.509Y-040157.701
X385827.763Y-051969.673
X385827.763Y-053150.213
X039370.033Y-045669.544
X039370.033Y-046850.084
X039370.16Y-358268.398
X039370.16Y-042126.908
X039370.541Y-236220.41
X039764.049Y-374016.462
X039764.049Y-381890.494
X039764.049Y-039370.288
X039764.049Y-040157.701
X039764.049Y-041339.368
X039764.557Y-240157.68
X040157.573Y-045669.544
X040157.573Y-046850.084
X040551.081Y-236220.41
X040945.936Y-046063.814
X041339.367Y-236220.41
X041339.875Y-045276.274
X041732.129Y-381890.24
X041732.129Y-389764.78
X041732.129Y-040157.32
X041732.129Y-040945.86
X041732.129Y-042126.4
X041732.129Y-042913.94
X041732.129Y-044094.48
X042126.907Y-236220.41
X042520.669Y-381890.24
X042520.669Y-389764.78
X042520.669Y-040157.32
X042520.669Y-040945.86
X042520.669Y-042126.4
X042520.669Y-042913.94
X042520.669Y-044094.48
X042913.431Y-240157.68
X042913.812Y-370079.319
X043307.32Y-054724.531
X043307.447Y-236220.41
X043307.955Y-048425.656
X043701.082Y-051969.8
X043701.463Y-050787.117
X044094.664Y-283465.399
X044094.733Y-058661.31
X044094.987Y-236220.41
X044488.622Y-326772.016
X044488.749Y-334646.302
X044882.003Y-350394.112
X044882.003Y-354331.509
X044882.003Y-377953.605
X044882.569Y-263780.7
X044882.569Y-271654.478
X044882.569Y-279528.293
X045276.331Y-058661.31
X045276.527Y-236220.41
X045276.781Y-240157.68
X045669.347Y-263780.7
X045669.347Y-271654.478
X045669.347Y-279528.293
X046063.305Y-046850.719
X046063.871Y-058661.31
X046457.067Y-236220.41
X046457.125Y-283465.272
X046457.194Y-054331.642
X046457.575Y-389764.018
X046457.575Y-039764.05
X046457.575Y-044094.48
X046457.575Y-044882.639
X046457.632Y-040551.52
X046457.703Y-041339.711
X046850.337Y-056299.087
X046850.649Y-263780.7
X046850.649Y-267717.97
X046850.718Y-275591.316
X046850.718Y-041732.003
X046850.845Y-058268.579
X047244.607Y-236220.41
X047244.607Y-056299.976
X047638.623Y-046850.846
X048031.893Y-299213.539
X048425.02Y-051181.133
X048425.02Y-051969.292
X048425.147Y-236220.41
X048425.401Y-381890.24
X048425.401Y-045276.02
X048425.455Y-385827.764
X048425.783Y-299213.692
X048425.909Y-338583.445
X048819.041Y-330709.54
X048819.094Y-058661.31
X048819.502Y-322835.839
X048819.925Y-048425.91
X049213.179Y-283465.094
X049213.179Y-291339.253
X049213.179Y-303150.2
X049213.23Y-318898.941
X049213.433Y-236220.41
X049213.433Y-056299.849
X049606.303Y-045276.833
X049606.38Y-366142.531
X049606.627Y-318898.01
X049606.703Y-055512.944
X049606.761Y-058661.31
X049606.83Y-054331.896
X049606.947Y-053543.61
X050000.008Y-330709.921
X050000.465Y-051181.133
X050000.465Y-051575.784
X050000.491Y-046063.75
X050000.846Y-042126.019
X050000.973Y-236220.41
X050000.973Y-056299.849
X050394.1Y-326772.939
X050394.304Y-338583.219
X050787.243Y-334646.836
X050787.301Y-040945.149
X050787.301Y-058661.31
X050787.464Y-046063.8
X051181.259Y-338583.318
X051181.386Y-040551.971
X051181.386Y-051181.133
X051181.513Y-236220.41
X051181.767Y-377953.224
X051575.231Y-271654.283
X051575.555Y-338583.369
X051575.841Y-058661.31
X051969.088Y-046063.891
X051969.291Y-041339.114
X051969.349Y-295276.676
X051969.418Y-051181.133
X051969.418Y-051969.165
X051969.476Y-358268.957
X051969.545Y-350394.62
X051969.545Y-354331.763
X051969.672Y-048425.783
X051969.799Y-040157.193
X051969.799Y-040945.098
X052362.053Y-236220.41
X052362.206Y-044094.565
X052362.235Y-043307.626
X052362.307Y-056299.976
X052362.619Y-041732.054
X052756.196Y-053543.483
X052756.323Y-054331.261
X052756.381Y-058661.31
X052756.45Y-055118.547
X052756.577Y-055906.579
X052756.628Y-311024.892
X052756.73Y-047244.126
X053150.085Y-051181.26
X053150.162Y-048031.074
X053150.339Y-299213.666
X053150.466Y-056299.976
X053150.524Y-042126.197
X053150.593Y-236220.41
X053150.847Y-039370.974
X053543.145Y-322835.635
X053543.482Y-314961.984
X053543.609Y-051575.149
X053543.921Y-058661.31
X053937.625Y-338583.141
X053937.705Y-279528.383
X053937.937Y-041732.959
X054331.133Y-236220.41
X054331.26Y-330709.54
X054331.362Y-346457.655
X054331.387Y-334646.506
X054331.699Y-279528.383
X054724.403Y-381890.113
X054724.461Y-058661.31
X054724.715Y-279528.383
X054724.988Y-044094.15
X055118.096Y-303150.479
X055118.165Y-051181.514
X055118.419Y-046850.516
X055118.546Y-346457.731
X055118.673Y-236220.41
X055118.724Y-044094.737
X055118.775Y-044488.674
X055118.8Y-366142.43
X055118.927Y-056299.976
X055512.131Y-045669.646
X055512.562Y-346457.604
X055512.874Y-058661.31
X055906.07Y-303150.809
X055906.578Y-346457.604
X055906.578Y-051181.26
X055906.578Y-053150.594
X055906.68Y-046457.602
X056299.188Y-047638.269
X056299.213Y-236220.41
X056299.34Y-053937.118
X056299.906Y-346457.604
X056693.229Y-056693.103
X056693.356Y-051181.26
X056693.541Y-058661.31
X056693.737Y-053937.88
X056693.737Y-055118.293
X057087.499Y-307087.698
X057087.753Y-236220.41
X057087.753Y-311024.943
X057087.753Y-051575.53
X057087.855Y-326772.093
X057480.084Y-279528.205
X057480.515Y-322835.686
X057480.896Y-041732.384
X057874.023Y-041339.368
X057874.023Y-058661.31
X057874.293Y-322835.559
X057874.912Y-053937.88
X058268.166Y-283465.533
X058268.547Y-236220.41
X058661.055Y-299213.031
X058661.055Y-314961.095
X058661.309Y-330709.667
X058661.436Y-046063.052
X058661.563Y-342520.334
X058661.563Y-058661.31
X058661.69Y-041732.511
X059055.452Y-283465.761
X059055.833Y-047244.989
X059449.087Y-236220.41
X059449.272Y-295276.924
X059449.595Y-050000.085
X059843.036Y-291339.066
X059843.103Y-058661.31
X059843.357Y-040945.86
X060236.373Y-314961.349
X060236.627Y-236220.41
X060236.881Y-047244.862
X060630.701Y-058661.31
X061417.236Y-041339.056
X061417.675Y-236220.41
X061417.675Y-045276.782
X061811.241Y-058661.31
X061811.437Y-374016.335
X061811.564Y-047244.862
X062205.707Y-248031.585
X062205.961Y-271654.554
X062598.088Y-279528.332
X062598.342Y-055906.198
X062598.609Y-047638.878
X062598.781Y-058661.31
X062992.028Y-271654.605
X062992.181Y-251969.652
X062992.231Y-236220.41
X062992.6Y-047638.878
X062992.739Y-326772.524
X063386.501Y-047244.735
X063386.628Y-374016.335
X063780.009Y-055118.42
X063780.009Y-055906.325
X063780.321Y-058661.31
X064173.025Y-236220.283
X064173.152Y-047638.624
X064567.734Y-058661.31
X064567.934Y-041732.126
X064961.057Y-055118.42
X064961.057Y-055906.325
X064961.184Y-042520.543
X064961.565Y-330709.54
X064961.819Y-236220.283
X065354.258Y-267717.462
X065748.401Y-058661.31
X065748.47Y-045669.671
X065748.655Y-248031.128
X065748.724Y-051969.165
X065748.851Y-354331.382
X066142.359Y-236220.283
X066142.359Y-055906.198
X066142.471Y-374016.335
X066142.867Y-044094.988
X066535.121Y-045669.163
X066535.941Y-058661.31
X066929.01Y-055118.42
X066929.137Y-354331.509
X066929.391Y-041732.003
X066929.518Y-374016.208
X066929.518Y-043701.718
X066929.645Y-307087.317
X066929.772Y-236220.283
X067323.338Y-251969.652
X067323.338Y-255906.922
X067323.788Y-042520.416
X067717.481Y-058661.31
X068110.439Y-236220.283
X068504.074Y-047638.497
X068504.963Y-374016.208
X068898.021Y-058661.31
X068898.344Y-326772.524
X068898.725Y-236220.283
X069291.614Y-047638.497
X069291.995Y-318898.873
X069685.053Y-291339.177
X069685.376Y-326772.524
X069685.561Y-058661.31
X069685.884Y-334646.81
X070079.011Y-346457.096
X070079.069Y-303150.098
X070079.519Y-236220.283
X070079.831Y-271654.859
X070472.408Y-047244.989
X070866.101Y-058661.31
X070866.297Y-318898.873
X070866.424Y-338583.826
X070866.932Y-303150.047
X071260.059Y-236220.334
X071260.117Y-248031.763
X071654.456Y-048425.402
X071654.641Y-058661.31
X071654.71Y-326772.397
X071654.837Y-346457.985
X072047.472Y-047638.751
X072047.599Y-236220.283
X072835.123Y-338583.191
X072835.181Y-058661.31
X072835.504Y-326772.27
X073228.139Y-236220.283
X073622.594Y-058661.31
X074016.679Y-236220.283
X074409.187Y-244094.696
X074803.261Y-058661.31
X074803.965Y-236220.283
X074803.965Y-041339.622
X075197.092Y-039764.685
X075197.092Y-040551.844
X075197.346Y-244094.696
X075197.981Y-322835.762
X075591.362Y-366142.049
X075591.743Y-047244.964
X075591.801Y-058661.31
X075984.251Y-236220.283
X076378.648Y-377953.351
X076378.648Y-042520.67
X076378.75Y-047244.964
X076772.341Y-058661.31
X076772.41Y-236220.283
X077165.545Y-049606.442
X077165.553Y-385827.891
X077165.553Y-039370.288
X077165.93Y-255906.86
X077165.985Y-251969.017
X077559.881Y-058661.31
X077953.331Y-050000.847
X077953.585Y-311024.333
X077953.712Y-236220.283
X077953.839Y-045276.274
X078346.855Y-047638.624
X078740.421Y-058268.472
X078740.49Y-342520.842
X078740.617Y-370079.573
X078740.617Y-377953.859
X078740.617Y-389764.018
X078740.617Y-039764.05
X078740.617Y-040551.336
X078740.744Y-358268.652
X079134.379Y-322835.254
X079134.506Y-236220.283
X079134.633Y-311024.587
X079134.633Y-346457.858
X079528.903Y-311024.841
X079528.903Y-057874.532
X079921.03Y-326772.905
X079921.03Y-338583.191
X079921.03Y-350394.112
X079921.284Y-050000.974
X079921.411Y-051575.403
X079921.792Y-057087.246
X080315.046Y-236220.283
X080315.3Y-362205.16
X080315.3Y-374016.081
X080315.3Y-377953.986
X080315.3Y-385827.891
X080315.3Y-039764.05
X080315.554Y-041732.511
X080315.554Y-042520.797
X080315.554Y-043701.972
X080315.554Y-044882.258
X080315.554Y-045276.909
X080315.554Y-046457.068
X080315.681Y-040945.352
X080315.808Y-047638.116
X080709.441Y-040157.828
X080709.951Y-051575.911
X081102.332Y-338583.191
X081102.332Y-346457.477
X081102.332Y-358268.398
X081102.332Y-366142.684
X081102.332Y-374016.589
X081102.332Y-381890.494
X081102.332Y-389764.653
X081102.459Y-041339.495
X081102.84Y-054724.15
X081496.094Y-236220.283
X081496.602Y-039764.431
X081890.872Y-050394.482
X081890.999Y-236220.334
X082283.126Y-041339.114
X082677.015Y-052756.197
X082677.269Y-295276.142
X082677.269Y-053937.753
X082677.269Y-054724.15
X083071.285Y-263780.649
X083071.539Y-236220.334
X083071.539Y-041732.13
X083071.666Y-044488.242
X083071.666Y-048819.164
X083071.666Y-050394.609
X083071.793Y-053937.753
X083465.174Y-279528.967
X083465.555Y-043307.702
X083465.682Y-271654.3
X083465.682Y-047244.227
X083465.809Y-054724.15
X083858.19Y-366142.43
X083858.444Y-041339.495
X083858.698Y-053150.594
X083858.756Y-346457.274
X083858.952Y-354331.128
X084252.079Y-236220.334
X084252.079Y-295276.015
X084252.079Y-040551.463
X085039.619Y-236220.334
X085433.185Y-291339.304
X085433.185Y-299213.844
X085433.185Y-311024.384
X085433.185Y-318898.924
X085433.185Y-330709.464
X085433.185Y-342520.004
X085433.185Y-350394.544
X085433.185Y-374016.894
X085433.185Y-385827.434
X085433.185Y-039370.974
X085433.185Y-040551.514
X085433.185Y-043701.21
X085433.185Y-044488.674
X085433.185Y-045669.214
X085433.185Y-046457.754
X085433.185Y-047638.167
X085433.185Y-048425.834
X085433.185Y-049606.374
X085433.185Y-050394.914
X085433.185Y-051575.454
X085433.185Y-052362.994
X085433.381Y-240157.553
X085433.381Y-248031.585
X085433.381Y-271654.224
X085433.381Y-279528.764
T4
X354331.762Y-050787.117
X358268.524Y-291339.634
X358268.524Y-299213.412
X362205.667Y-051181.768
X362205.921Y-291339.634
X362205.921Y-299213.412
X366142.81Y-048819.164
X370079.699Y-050787.498
X377953.096Y-048819.164
X377953.604Y-050787.498
X381890.874Y-050394.228
X385827.255Y-279528.586
X389764.456Y-283465.145
X389764.652Y-263780.395
X039370.033Y-291339.761
X039370.287Y-271654.808
X039370.414Y-279528.459
X039370.414Y-283465.983
X039764.049Y-299213.285
X039764.684Y-283465.094
X040157.7Y-295276.65
X040157.827Y-283465.983
X040157.954Y-279528.205
X040551.081Y-291339.38
X040551.208Y-318898.111
X040551.716Y-350394.874
X041732.187Y-291339.812
X042520.727Y-334646.48
X042913.304Y-291339.507
X042913.558Y-354331.509
X042913.997Y-346457.782
X043701.521Y-291339.685
X047244.665Y-240157.858
X047244.861Y-354331.255
X047244.919Y-342520.131
X048425.147Y-052756.578
X048425.205Y-240157.858
X049606.761Y-251969.906
X050000.269Y-259843.684
X050000.269Y-267717.716
X050787.428Y-259843.684
X050787.555Y-267717.716
X051969.164Y-283465.221
X051969.164Y-291339.507
X052756.069Y-283465.221
X052756.069Y-291339.507
X054724.962Y-271654.97
X058268.039Y-042913.305
X058661.132Y-279528.167
X063780.448Y-042913.94
X068110.82Y-338583.572
X068898.344Y-042913.94
X070079.011Y-311024.587
X072047.599Y-311024.714
X076378.648Y-053937.499
X076772.537Y-311024.587
X078346.474Y-054331.388
X078346.474Y-054724.582
T5
X042913.87Y-322835.686
X043701.648Y-326772.702
T6
X080709.951Y-043701.337
T7
X041732.06Y-263780.954
T8
X374016.588Y-283465.983
X066929.391Y-056299.468
X067323.77Y-055906.198
X069291.926Y-057087.279
X070866.932Y-053937.499
X071260.625Y-057087.279
X071654.71Y-054331.896
X072441.615Y-053937.626
X072441.673Y-057087.279
X073228.647Y-054331.769
X073622.975Y-057087.279
X074016.425Y-053937.499
X075591.674Y-057087.279
T9
X370079.799Y-267717.5
X370079.799Y-291339.5
X039764.599Y-267717.5
X039764.599Y-291339.5
X057480.896Y-055512.055
X058268.166Y-056299.595
X058661.436Y-055512.055
X059055.706Y-056299.595
X059449.976Y-055512.055
X060236.246Y-056299.595
T10
X385827.44Y-330709.591
X046063.813Y-370079.497
X046063.813Y-374016.97
T11
X050787.809Y-240157.858
X051969.349Y-240157.858
X052756.889Y-240157.858
X053937.429Y-240157.858
X054724.969Y-240157.858
X055906.509Y-240157.858
X057480.954Y-240157.858
X058661.494Y-240157.858
X059843.034Y-240157.858
X060630.574Y-240157.858
X063386.12Y-051969.419
X064173.66Y-051969.419
X065354.2Y-051969.419
T12
X385827.567Y-248031.128
X039370.567Y-248031.128
X040157.567Y-248031.128
X040945.567Y-248031.128
X041732.567Y-248031.128
X042520.567Y-248031.128
X043307.567Y-248031.128
X045276.527Y-055118.928
X045276.527Y-056299.468
X056299.119Y-291339.177
X064173.119Y-291339.177
X078740.294Y-055906.122
X078740.294Y-056693.662
X080315.751Y-048425.434
X080315.751Y-049213.979
X083858.851Y-044094.404
X083858.851Y-044882.944
X083858.851Y-046063.484
T13
X045276.501Y-050394.233
X045276.501Y-051181.733
X045276.501Y-051969.733
X045276.501Y-053150.233
X048031.824Y-047638.326
X048031.824Y-056299.766
X051181.547Y-047638.326
X051181.547Y-056299.766
X054331.191Y-047638.326
X054331.191Y-056299.766
T14
X054724.334Y-255906.16
T15
X346457.713Y-255906.287
X362205.673Y-255906.287
T16
X044094.801Y-049213.163
X044094.801Y-054331.303
T17
X346457.031Y-374016.04
X346457.031Y-046850.24
M30

