%
T1C.4F095S300
X007700Y001600
X007700Y005800
X012900Y001600
X012900Y006100
X023800Y002400
X025700Y001800
X031900Y006000
X032500Y004200
X033600Y006000
X033700Y004200
X033700Y007600
X039700Y004400
X039700Y006000
X045400Y002000
X047100Y007100
X048500Y002000
X050500Y002000
X052000Y002000
X052700Y006300
X054300Y006300
X055100Y005000
X057000Y005500
X059800Y006700
X068000Y012200
X066700Y009200
X063900Y013000
X063200Y008900
X063200Y010100
X063100Y011400
X061800Y013600
X057600Y012700
X054900Y008900
X049300Y013500
X047100Y010800
X045900Y013500
X045900Y009300
X044400Y013500
X043200Y013600
X042000Y013800
X026900Y011300
X022500Y008000
X018400Y008000
X018000Y013600
X012900Y013400
X007700Y010300
X027400Y018000
X032800Y019500
X043000Y018500
X044400Y018500
X048500Y015000
X050100Y015000
X052700Y018800
X056500Y018400
X059500Y018500
X062600Y018900
X066200Y018800
X067800Y018900
X065400Y023800
X064600Y024800
X064400Y026400
X062300Y026700
X058600Y025200
X057700Y026900
X057500Y024500
X056300Y025800
X054200Y024800
X048800Y025800
X048800Y024200
X046000Y021000
X045900Y026000
X042000Y021000
X042000Y025000
X040000Y025000
X039000Y022200
X037000Y021000
X035300Y021000
X030600Y026300
X030600Y025100
X027400Y021000
X001900Y030000
X003500Y032000
X017200Y032000
X019000Y027000
X020300Y030700
X026900Y033000
X030600Y028900
X030600Y027600
X033800Y031400
X034100Y033000
X041000Y033300
X056500Y027700
X058200Y028600
X059400Y027000
X060300Y028800
X060700Y030100
X062000Y030500
X063000Y031000
X064500Y028000
X064700Y030500
X065400Y029300
X066200Y033000
X066200Y035500
X056500Y036100
X048800Y035300
X048800Y033700
X046000Y034700
X043000Y035600
X034100Y035000
X026800Y035000
X021500Y036100
X020000Y036100
X020000Y039400
X018500Y036100
X017200Y033500
X017200Y035000
X014000Y033500
X003500Y035000
X003500Y033500
X001900Y037100
X030500Y040000
X034500Y040000
X039700Y044900
X041000Y040500
X041100Y041800
X043000Y040500
X043200Y042300
X043200Y043800
X045000Y040500
X047000Y040500
X049000Y040500
X051300Y042200
X052200Y040000
X054000Y044200
X055700Y042500
X058300Y041200
X058400Y043500
X062800Y044100
X064000Y041300
X068700Y039700
X068700Y041300
X060000Y052200
X057500Y052200
X055400Y046900
X048000Y046900
X045700Y048600
X040000Y049000
X040000Y047000
X034300Y050000
X030700Y050000
X023600Y051600
X021500Y050000
X020000Y050000
X018500Y050000
X016400Y051500
T2C.9F197S550
X054000Y015500
X056540Y015500
X059080Y015500
X061620Y015500
X064160Y015500
X066700Y015500
T3C1.2F139S550
X032500Y016000
X037580Y016000
T4C1.5F107S550
X002500Y007500
X002500Y003000
X002500Y012000
X002500Y018000
X002500Y023000
T5C3.5F035S794
X024000Y027000
X066000Y004000
X066000Y050000
M30
