G04 This is an RS-274x file exported by *
G04 gerbv version 2.10.0 *
G04 More information is available about gerbv at *
G04 https://gerbv.github.io/ *
G04 --End of header info--*
%MOIN*%
%FSLAX36Y36*%
%IPPOS*%
G04 --Define apertures--*
%ADD10C,0.0020*%
G04 --Start main section--*
G54D10*
G01X8244727Y-3595820D02*
G01X8386459Y-3595820D01*
G01X8244727Y-3749363D02*
G01X8244727Y-3595820D01*
G01X8244727Y-3749363D02*
G01X8386459Y-3749363D01*
G01X8295908Y-3672592D02*
G01X8335278Y-3672592D01*
G01X8315593Y-3692277D02*
G01X8315593Y-3652907D01*
G01X8386459Y-3749363D02*
G01X8386459Y-3595820D01*
G01X8329372Y-3672592D02*
G75*
G02X8301813Y-3672592I-013780J0000000D01*
G01X8301813Y-3672592D02*
G75*
G02X8329372Y-3672592I0013780J0000000D01*
G01X7407955Y-2732080D02*
G01X7703231Y-2732080D01*
G01X7407955Y-2948615D02*
G01X7407955Y-2732080D01*
G01X7407955Y-2948615D02*
G01X7703231Y-2948615D01*
G01X7535908Y-2840348D02*
G01X7575278Y-2840348D01*
G01X7555593Y-2860033D02*
G01X7555593Y-2820663D01*
G01X7703231Y-2948615D02*
G01X7703231Y-2732080D01*
G01X7569372Y-2840348D02*
G75*
G02X7541813Y-2840348I-013780J0000000D01*
G01X7541813Y-2840348D02*
G75*
G02X7569372Y-2840348I0013780J0000000D01*
G01X8251550Y-4704484D02*
G01X8405093Y-4704484D01*
G01X8251550Y-4846216D02*
G01X8251550Y-4704484D01*
G01X8251550Y-4846216D02*
G01X8405093Y-4846216D01*
G01X8308637Y-4775350D02*
G01X8348007Y-4775350D01*
G01X8328322Y-4795035D02*
G01X8328322Y-4755665D01*
G01X8405093Y-4846216D02*
G01X8405093Y-4704484D01*
G01X8342101Y-4775350D02*
G75*
G02X8314542Y-4775350I-013780J0000000D01*
G01X8314542Y-4775350D02*
G75*
G02X8342101Y-4775350I0013780J0000000D01*
G01X8251550Y-4854484D02*
G01X8405093Y-4854484D01*
G01X8251550Y-4996216D02*
G01X8251550Y-4854484D01*
G01X8251550Y-4996216D02*
G01X8405093Y-4996216D01*
G01X8308637Y-4925350D02*
G01X8348007Y-4925350D01*
G01X8328322Y-4945035D02*
G01X8328322Y-4905665D01*
G01X8405093Y-4996216D02*
G01X8405093Y-4854484D01*
G01X8342101Y-4925350D02*
G75*
G02X8314542Y-4925350I-013780J0000000D01*
G01X8314542Y-4925350D02*
G75*
G02X8342101Y-4925350I0013780J0000000D01*
G01X6637955Y-2762080D02*
G01X6933231Y-2762080D01*
G01X6637955Y-2978615D02*
G01X6637955Y-2762080D01*
G01X6637955Y-2978615D02*
G01X6933231Y-2978615D01*
G01X6765908Y-2870348D02*
G01X6805278Y-2870348D01*
G01X6785593Y-2890033D02*
G01X6785593Y-2850663D01*
G01X6933231Y-2978615D02*
G01X6933231Y-2762080D01*
G01X6799372Y-2870348D02*
G75*
G02X6771813Y-2870348I-013780J0000000D01*
G01X6771813Y-2870348D02*
G75*
G02X6799372Y-2870348I0013780J0000000D01*
G01X5007754Y-5199166D02*
G01X5149487Y-5199166D01*
G01X5007754Y-5352710D02*
G01X5007754Y-5199166D01*
G01X5007754Y-5352710D02*
G01X5149487Y-5352710D01*
G01X5058935Y-5275938D02*
G01X5098306Y-5275938D01*
G01X5078620Y-5295623D02*
G01X5078620Y-5256253D01*
G01X5149487Y-5352710D02*
G01X5149487Y-5199166D01*
G01X5092400Y-5275938D02*
G75*
G02X5064841Y-5275938I-013780J0000000D01*
G01X5064841Y-5275938D02*
G75*
G02X5092400Y-5275938I0013780J0000000D01*
G01X7575683Y-3238103D02*
G01X7870959Y-3238103D01*
G01X7575683Y-3454638D02*
G01X7575683Y-3238103D01*
G01X7575683Y-3454638D02*
G01X7870959Y-3454638D01*
G01X7703637Y-3346370D02*
G01X7743006Y-3346370D01*
G01X7723321Y-3366055D02*
G01X7723321Y-3326685D01*
G01X7870959Y-3454638D02*
G01X7870959Y-3238103D01*
G01X7737101Y-3346370D02*
G75*
G02X7709542Y-3346370I-013780J0000000D01*
G01X7709542Y-3346370D02*
G75*
G02X7737101Y-3346370I0013780J0000000D01*
G01X7350683Y-4075288D02*
G01X7645959Y-4075288D01*
G01X7350683Y-4441430D02*
G01X7350683Y-4075288D01*
G01X7350683Y-4441430D02*
G01X7645959Y-4441430D01*
G01X7478637Y-4258359D02*
G01X7518006Y-4258359D01*
G01X7498321Y-4278044D02*
G01X7498321Y-4238674D01*
G01X7645959Y-4441430D02*
G01X7645959Y-4075288D01*
G01X7512101Y-4258359D02*
G75*
G02X7484542Y-4258359I-013780J0000000D01*
G01X7484542Y-4258359D02*
G75*
G02X7512101Y-4258359I0013780J0000000D01*
G01X6682455Y-3451587D02*
G01X6824187Y-3451587D01*
G01X6682455Y-3605131D02*
G01X6682455Y-3451587D01*
G01X6682455Y-3605131D02*
G01X6824187Y-3605131D01*
G01X6733636Y-3528359D02*
G01X6773006Y-3528359D01*
G01X6753321Y-3548044D02*
G01X6753321Y-3508674D01*
G01X6824187Y-3605131D02*
G01X6824187Y-3451587D01*
G01X6767101Y-3528359D02*
G75*
G02X6739542Y-3528359I-013780J0000000D01*
G01X6739542Y-3528359D02*
G75*
G02X6767101Y-3528359I0013780J0000000D01*
G01X7686550Y-4957493D02*
G01X7840093Y-4957493D01*
G01X7686550Y-5099225D02*
G01X7686550Y-4957493D01*
G01X7686550Y-5099225D02*
G01X7840093Y-5099225D01*
G01X7743637Y-5028359D02*
G01X7783006Y-5028359D01*
G01X7763321Y-5048044D02*
G01X7763321Y-5008674D01*
G01X7840093Y-5099225D02*
G01X7840093Y-4957493D01*
G01X7777101Y-5028359D02*
G75*
G02X7749542Y-5028359I-013780J0000000D01*
G01X7749542Y-5028359D02*
G75*
G02X7777101Y-5028359I0013780J0000000D01*
G01X4440593Y-3140348D02*
G01X4720593Y-3140348D01*
G01X4440593Y-3480348D02*
G01X4440593Y-3140348D01*
G01X4440593Y-3480348D02*
G01X4720593Y-3480348D01*
G01X4720593Y-3480348D02*
G01X4720593Y-3140348D01*
M02*

